  0
SECTION
  2
HEADER
  9
$ACADVER
  1
AC1014
  9
$HANDSEED
  5
FFFF
  9
$MEASUREMENT
 70
     1
  0
ENDSEC
  0
SECTION
  2
TABLES
  0
TABLE
  2
VPORT
  5
8
330
0
100
AcDbSymbolTable
 70
     4
  0
VPORT
  5
2E
330
8
100
AcDbSymbolTableRecord
100
AcDbViewportTableRecord
  2
*ACTIVE
 70
     0
 10
0.0
 20
0.0
 11
1.0
 21
1.0
 12
210.0
 22
148.5
 13
0.0
 23
0.0
 14
10.0
 24
10.0
 15
10.0
 25
10.0
 16
0.0
 26
0.0
 36
1.0
 17
0.0
 27
0.0
 37
0.0
 40
341.0
 41
1.24
 42
50.0
 43
0.0
 44
0.0
 50
0.0
 51
0.0
 71
     0
 72
   100
 73
     1
 74
     3
 75
     0
 76
     0
 77
     0
 78
     0
  0
ENDTAB
  0
TABLE
  2
LTYPE
  5
5
330
0
100
AcDbSymbolTable
 70
     1
  0
LTYPE
  5
14
330
5
100
AcDbSymbolTableRecord
100
AcDbLinetypeTableRecord
  2
BYBLOCK
 70
     0
  3

 72
    65
 73
     0
 40
0.0
  0
LTYPE
  5
15
330
5
100
AcDbSymbolTableRecord
100
AcDbLinetypeTableRecord
  2
BYLAYER
 70
     0
  3

 72
    65
 73
     0
 40
0.0
  0
LTYPE
  5
16
330
5
100
AcDbSymbolTableRecord
100
AcDbLinetypeTableRecord
  2
CONTINUOUS
 70
     0
  3
Solid line
 72
    65
 73
     0
 40
0.0
  0
ENDTAB
  0
TABLE
  2
LAYER
  5
2
100
AcDbSymbolTable
 70
2
  0
LAYER
  5
50
100
AcDbSymbolTableRecord
100
AcDbLayerTableRecord
  2
0
 70
0
  6
CONTINUOUS
  0
LAYER
  5
51
100
AcDbSymbolTableRecord
100
AcDbLayerTableRecord
  2
Layer_1
 70
0
  6
CONTINUOUS
  0
ENDTAB
  0
TABLE
  2
STYLE
  5
3
330
0
100
AcDbSymbolTable
 70
     1
  0
STYLE
  5
11
330
3
100
AcDbSymbolTableRecord
100
AcDbTextStyleTableRecord
  2
STANDARD
 70
     0
 40
0.0
 41
1.0
 50
0.0
 71
     0
 42
2.5
  3
txt
  4

  0
ENDTAB
  0
TABLE
  2
VIEW
  5
6
330
0
100
AcDbSymbolTable
 70
     0
  0
ENDTAB
  0
TABLE
  2
UCS
  5
7
330
0
100
AcDbSymbolTable
 70
     0
  0
ENDTAB
  0
TABLE
  2
APPID
  5
9
330
0
100
AcDbSymbolTable
 70
     2
  0
APPID
  5
12
330
9
100
AcDbSymbolTableRecord
100
AcDbRegAppTableRecord
  2
ACAD
 70
     0
  0
ENDTAB
  0
TABLE
  2
DIMSTYLE
  5
A
330
0
100
AcDbSymbolTable
 70
     1
  0
DIMSTYLE
105
27
330
A
100
AcDbSymbolTableRecord
100
AcDbDimStyleTableRecord
  2
ISO-25
 70
     0
  3

  4

  5

  6

  7

 40
1.0
 41
2.5
 42
0.625
 43
3.75
 44
1.25
 45
0.0
 46
0.0
 47
0.0
 48
0.0
140
2.5
141
2.5
142
0.0
143
0.03937007874016
144
1.0
145
0.0
146
1.0
147
0.625
 71
     0
 72
     0
 73
     0
 74
     0
 75
     0
 76
     0
 77
     1
 78
     8
170
     0
171
     3
172
     1
173
     0
174
     0
175
     0
176
     0
177
     0
178
     0
270
     2
271
     2
272
     2
273
     2
274
     3
340
11
275
     0
280
     0
281
     0
282
     0
283
     0
284
     8
285
     0
286
     0
287
     3
288
     0
  0
ENDTAB
  0
TABLE
  2
BLOCK_RECORD
  5
1
330
0
100
AcDbSymbolTable
 70
     1
  0
BLOCK_RECORD
  5
1F
330
1
100
AcDbSymbolTableRecord
100
AcDbBlockTableRecord
  2
*MODEL_SPACE
  0
BLOCK_RECORD
  5
1B
330
1
100
AcDbSymbolTableRecord
100
AcDbBlockTableRecord
  2
*PAPER_SPACE
  0
ENDTAB
  0
ENDSEC
  0
SECTION
  2
BLOCKS
  0
BLOCK
  5
20
330
1F
100
AcDbEntity
  8
0
100
AcDbBlockBegin
  2
*MODEL_SPACE
 70
     0
 10
0.0
 20
0.0
 30
0.0
  3
*MODEL_SPACE
  1

  0
ENDBLK
  5
21
330
1F
100
AcDbEntity
  8
0
100
AcDbBlockEnd
  0
BLOCK
  5
1C
330
1B
100
AcDbEntity
 67
     1
  8
0
100
AcDbBlockBegin
  2
*PAPER_SPACE
  1

  0
ENDBLK
  5
1D
330
1B
100
AcDbEntity
 67
     1
  8
0
100
AcDbBlockEnd
  0
ENDSEC
  0
SECTION
  2
ENTITIES
  0
SPLINE
  5
100
100
AcDbEntity
  8
Layer_1
 62
7
100
AcDbSpline
 70
8
 71
3
 72
8
 73
4
 74
0
 40
0
 40
0
 40
0
 40
0
 40
1
 40
1
 40
1
 40
1
 10
0.009388
 20
3.032031
 30
0.0
 10
0.007762
 20
3.030063
 30
0.0
 10
0.009388
 20
3.034472
 30
0.0
 10
0.009388
 20
3.035831
 30
0.0
  0
SPLINE
  5
101
100
AcDbEntity
  8
Layer_1
 62
7
100
AcDbSpline
 70
8
 71
3
 72
8
 73
4
 74
0
 40
0
 40
0
 40
0
 40
0
 40
1
 40
1
 40
1
 40
1
 10
0.009388
 20
3.035831
 30
0.0
 10
0.009388
 20
3.037209
 30
0.0
 10
0.009388
 20
3.038272
 30
0.0
 10
0.009388
 20
3.039630
 30
0.0
  0
SPLINE
  5
102
100
AcDbEntity
  8
Layer_1
 62
7
100
AcDbSpline
 70
8
 71
3
 72
8
 73
4
 74
0
 40
0
 40
0
 40
0
 40
0
 40
1
 40
1
 40
1
 40
1
 10
0.009388
 20
3.039630
 30
0.0
 10
0.009388
 20
3.042071
 30
0.0
 10
0.009388
 20
3.044787
 30
0.0
 10
0.009665
 20
3.047228
 30
0.0
  0
SPLINE
  5
103
100
AcDbEntity
  8
Layer_1
 62
7
100
AcDbSpline
 70
8
 71
3
 72
8
 73
4
 74
0
 40
0
 40
0
 40
0
 40
0
 40
1
 40
1
 40
1
 40
1
 10
0.009665
 20
3.047228
 30
0.0
 10
0.009665
 20
3.052386
 30
0.0
 10
0.010220
 20
3.057543
 30
0.0
 10
0.010478
 20
3.062701
 30
0.0
  0
SPLINE
  5
104
100
AcDbEntity
  8
Layer_1
 62
7
100
AcDbSpline
 70
8
 71
3
 72
8
 73
4
 74
0
 40
0
 40
0
 40
0
 40
0
 40
1
 40
1
 40
1
 40
1
 10
0.010478
 20
3.062701
 30
0.0
 10
0.011561
 20
3.073272
 30
0.0
 10
0.012645
 20
3.083588
 30
0.0
 10
0.014548
 20
3.093898
 30
0.0
  0
SPLINE
  5
105
100
AcDbEntity
  8
Layer_1
 62
7
100
AcDbSpline
 70
8
 71
3
 72
8
 73
4
 74
0
 40
0
 40
0
 40
0
 40
0
 40
1
 40
1
 40
1
 40
1
 10
0.014548
 20
3.093898
 30
0.0
 10
0.018075
 20
3.115598
 30
0.0
 10
0.023500
 20
3.136756
 30
0.0
 10
0.030824
 20
3.157374
 30
0.0
  0
SPLINE
  5
106
100
AcDbEntity
  8
Layer_1
 62
7
100
AcDbSpline
 70
8
 71
3
 72
8
 73
4
 74
0
 40
0
 40
0
 40
0
 40
0
 40
1
 40
1
 40
1
 40
1
 10
0.030824
 20
3.157374
 30
0.0
 10
0.046829
 20
3.202132
 30
0.0
 10
0.068801
 20
3.240380
 30
0.0
 10
0.099726
 20
3.276189
 30
0.0
  0
SPLINE
  5
107
100
AcDbEntity
  8
Layer_1
 62
7
100
AcDbSpline
 70
8
 71
3
 72
8
 73
4
 74
0
 40
0
 40
0
 40
0
 40
0
 40
1
 40
1
 40
1
 40
1
 10
0.099726
 20
3.276189
 30
0.0
 10
0.159676
 20
3.346175
 30
0.0
 10
0.243226
 20
3.391476
 30
0.0
 10
0.334372
 20
3.403683
 30
0.0
  0
SPLINE
  5
108
100
AcDbEntity
  8
Layer_1
 62
7
100
AcDbSpline
 70
8
 71
3
 72
8
 73
4
 74
0
 40
0
 40
0
 40
0
 40
0
 40
1
 40
1
 40
1
 40
1
 10
0.334372
 20
3.403683
 30
0.0
 10
0.519919
 20
3.428640
 30
0.0
 10
0.694887
 20
3.313624
 30
0.0
 10
0.745342
 20
3.133230
 30
0.0
  0
SPLINE
  5
109
100
AcDbEntity
  8
Layer_1
 62
7
100
AcDbSpline
 70
8
 71
3
 72
8
 73
4
 74
0
 40
0
 40
0
 40
0
 40
0
 40
1
 40
1
 40
1
 40
1
 10
0.745342
 20
3.133230
 30
0.0
 10
0.757007
 20
3.091726
 30
0.0
 10
0.759448
 20
3.050222
 30
0.0
 10
0.759448
 20
3.007362
 30
0.0
  0
SPLINE
  5
10a
100
AcDbEntity
  8
Layer_1
 62
7
100
AcDbSpline
 70
8
 71
3
 72
8
 73
4
 74
0
 40
0
 40
0
 40
0
 40
0
 40
1
 40
1
 40
1
 40
1
 10
0.759448
 20
3.007362
 30
0.0
 10
0.759448
 20
2.963959
 30
0.0
 10
0.759448
 20
2.920557
 30
0.0
 10
0.759448
 20
2.877153
 30
0.0
  0
SPLINE
  5
10b
100
AcDbEntity
  8
Layer_1
 62
7
100
AcDbSpline
 70
8
 71
3
 72
8
 73
4
 74
0
 40
0
 40
0
 40
0
 40
0
 40
1
 40
1
 40
1
 40
1
 10
0.759448
 20
2.877153
 30
0.0
 10
0.759448
 20
2.790348
 30
0.0
 10
0.759448
 20
2.703272
 30
0.0
 10
0.759448
 20
2.616466
 30
0.0
  0
SPLINE
  5
10c
100
AcDbEntity
  8
Layer_1
 62
7
100
AcDbSpline
 70
8
 71
3
 72
8
 73
4
 74
0
 40
0
 40
0
 40
0
 40
0
 40
1
 40
1
 40
1
 40
1
 10
0.759448
 20
2.616466
 30
0.0
 10
0.759448
 20
2.573063
 30
0.0
 10
0.759448
 20
2.529661
 30
0.0
 10
0.759448
 20
2.486258
 30
0.0
  0
SPLINE
  5
10d
100
AcDbEntity
  8
Layer_1
 62
7
100
AcDbSpline
 70
8
 71
3
 72
8
 73
4
 74
0
 40
0
 40
0
 40
0
 40
0
 40
1
 40
1
 40
1
 40
1
 10
0.759448
 20
2.486258
 30
0.0
 10
0.759448
 20
2.443398
 30
0.0
 10
0.755921
 20
2.400537
 30
0.0
 10
0.761074
 20
2.357677
 30
0.0
  0
SPLINE
  5
10e
100
AcDbEntity
  8
Layer_1
 62
7
100
AcDbSpline
 70
8
 71
3
 72
8
 73
4
 74
0
 40
0
 40
0
 40
0
 40
0
 40
1
 40
1
 40
1
 40
1
 10
0.761074
 20
2.357677
 30
0.0
 10
0.771655
 20
2.264632
 30
0.0
 10
0.833503
 20
2.185421
 30
0.0
 10
0.921122
 20
2.152327
 30
0.0
  0
SPLINE
  5
10f
100
AcDbEntity
  8
Layer_1
 62
7
100
AcDbSpline
 70
8
 71
3
 72
8
 73
4
 74
0
 40
0
 40
0
 40
0
 40
0
 40
1
 40
1
 40
1
 40
1
 10
0.921122
 20
2.152327
 30
0.0
 10
0.962897
 20
2.136598
 30
0.0
 10
1.003859
 20
2.136323
 30
0.0
 10
1.046990
 20
2.136323
 30
0.0
  0
SPLINE
  5
110
100
AcDbEntity
  8
Layer_1
 62
7
100
AcDbSpline
 70
8
 71
3
 72
8
 73
4
 74
0
 40
0
 40
0
 40
0
 40
0
 40
1
 40
1
 40
1
 40
1
 10
1.046990
 20
2.136323
 30
0.0
 10
1.090122
 20
2.136323
 30
0.0
 10
1.133254
 20
2.136323
 30
0.0
 10
1.176385
 20
2.136323
 30
0.0
  0
SPLINE
  5
111
100
AcDbEntity
  8
Layer_1
 62
7
100
AcDbSpline
 70
8
 71
3
 72
8
 73
4
 74
0
 40
0
 40
0
 40
0
 40
0
 40
1
 40
1
 40
1
 40
1
 10
1.176385
 20
2.136323
 30
0.0
 10
1.261834
 20
2.136323
 30
0.0
 10
1.347284
 20
2.134945
 30
0.0
 10
1.432733
 20
2.136520
 30
0.0
  0
SPLINE
  5
112
100
AcDbEntity
  8
Layer_1
 62
7
100
AcDbSpline
 70
8
 71
3
 72
8
 73
4
 74
0
 40
0
 40
0
 40
0
 40
0
 40
1
 40
1
 40
1
 40
1
 10
1.432733
 20
2.136520
 30
0.0
 10
1.608243
 20
2.139768
 30
0.0
 10
1.769104
 20
2.173140
 30
0.0
 10
1.931322
 20
2.239872
 30
0.0
  0
SPLINE
  5
113
100
AcDbEntity
  8
Layer_1
 62
7
100
AcDbSpline
 70
8
 71
3
 72
8
 73
4
 74
0
 40
0
 40
0
 40
0
 40
0
 40
1
 40
1
 40
1
 40
1
 10
1.931322
 20
2.239872
 30
0.0
 10
2.276374
 20
2.382018
 30
0.0
 10
2.548727
 20
2.658167
 30
0.0
 10
2.686259
 20
3.005390
 30
0.0
  0
SPLINE
  5
114
100
AcDbEntity
  8
Layer_1
 62
7
100
AcDbSpline
 70
8
 71
3
 72
8
 73
4
 74
0
 40
0
 40
0
 40
0
 40
0
 40
1
 40
1
 40
1
 40
1
 10
2.686259
 20
3.005390
 30
0.0
 10
2.752177
 20
3.172218
 30
0.0
 10
2.782559
 20
3.336878
 30
0.0
 10
2.782559
 20
3.516457
 30
0.0
  0
SPLINE
  5
115
100
AcDbEntity
  8
Layer_1
 62
7
100
AcDbSpline
 70
8
 71
3
 72
8
 73
4
 74
0
 40
0
 40
0
 40
0
 40
0
 40
1
 40
1
 40
1
 40
1
 10
2.782559
 20
3.516457
 30
0.0
 10
2.782559
 20
3.560401
 30
0.0
 10
2.780925
 20
3.604346
 30
0.0
 10
2.783110
 20
3.648293
 30
0.0
  0
SPLINE
  5
116
100
AcDbEntity
  8
Layer_1
 62
7
100
AcDbSpline
 70
8
 71
3
 72
8
 73
4
 74
0
 40
0
 40
0
 40
0
 40
0
 40
1
 40
1
 40
1
 40
1
 10
2.783110
 20
3.648293
 30
0.0
 10
2.785278
 20
3.696035
 30
0.0
 10
2.798301
 20
3.735370
 30
0.0
 10
2.824885
 20
3.774974
 30
0.0
  0
SPLINE
  5
117
100
AcDbEntity
  8
Layer_1
 62
7
100
AcDbSpline
 70
8
 71
3
 72
8
 73
4
 74
0
 40
0
 40
0
 40
0
 40
0
 40
1
 40
1
 40
1
 40
1
 10
2.824885
 20
3.774974
 30
0.0
 10
2.852826
 20
3.817022
 30
0.0
 10
2.886192
 20
3.844961
 30
0.0
 10
2.932579
 20
3.865307
 30
0.0
  0
SPLINE
  5
118
100
AcDbEntity
  8
Layer_1
 62
7
100
AcDbSpline
 70
8
 71
3
 72
8
 73
4
 74
0
 40
0
 40
0
 40
0
 40
0
 40
1
 40
1
 40
1
 40
1
 10
2.932579
 20
3.865307
 30
0.0
 10
2.974896
 20
3.883752
 30
0.0
 10
3.016671
 20
3.886193
 30
0.0
 10
3.061430
 20
3.886193
 30
0.0
  0
SPLINE
  5
119
100
AcDbEntity
  8
Layer_1
 62
7
100
AcDbSpline
 70
8
 71
3
 72
8
 73
4
 74
0
 40
0
 40
0
 40
0
 40
0
 40
1
 40
1
 40
1
 40
1
 10
3.061430
 20
3.886193
 30
0.0
 10
3.415434
 20
3.886193
 30
0.0
 10
3.769709
 20
3.886193
 30
0.0
 10
4.123714
 20
3.886193
 30
0.0
  0
SPLINE
  5
11a
100
AcDbEntity
  8
Layer_1
 62
7
100
AcDbSpline
 70
8
 71
3
 72
8
 73
4
 74
0
 40
0
 40
0
 40
0
 40
0
 40
1
 40
1
 40
1
 40
1
 10
4.123714
 20
3.886193
 30
0.0
 10
4.299766
 20
3.886193
 30
0.0
 10
4.475819
 20
3.886193
 30
0.0
 10
4.651871
 20
3.886193
 30
0.0
  0
SPLINE
  5
11b
100
AcDbEntity
  8
Layer_1
 62
7
100
AcDbSpline
 70
8
 71
3
 72
8
 73
4
 74
0
 40
0
 40
0
 40
0
 40
0
 40
1
 40
1
 40
1
 40
1
 10
4.651871
 20
3.886193
 30
0.0
 10
4.746815
 20
3.886193
 30
0.0
 10
4.831179
 20
3.840350
 30
0.0
 10
4.877023
 20
3.755986
 30
0.0
  0
SPLINE
  5
11c
100
AcDbEntity
  8
Layer_1
 62
7
100
AcDbSpline
 70
8
 71
3
 72
8
 73
4
 74
0
 40
0
 40
0
 40
0
 40
0
 40
1
 40
1
 40
1
 40
1
 10
4.877023
 20
3.755986
 30
0.0
 10
4.899267
 20
3.715295
 30
0.0
 10
4.906320
 20
3.674876
 30
0.0
 10
4.907948
 20
3.629846
 30
0.0
  0
SPLINE
  5
11d
100
AcDbEntity
  8
Layer_1
 62
7
100
AcDbSpline
 70
8
 71
3
 72
8
 73
4
 74
0
 40
0
 40
0
 40
0
 40
0
 40
1
 40
1
 40
1
 40
1
 10
4.907948
 20
3.629846
 30
0.0
 10
4.909306
 20
3.586714
 30
0.0
 10
4.910115
 20
3.543854
 30
0.0
 10
4.909837
 20
3.500722
 30
0.0
  0
SPLINE
  5
11e
100
AcDbEntity
  8
Layer_1
 62
7
100
AcDbSpline
 70
8
 71
3
 72
8
 73
4
 74
0
 40
0
 40
0
 40
0
 40
0
 40
1
 40
1
 40
1
 40
1
 10
4.909837
 20
3.500722
 30
0.0
 10
4.909030
 20
3.139665
 30
0.0
 10
4.855584
 20
2.798683
 30
0.0
 10
4.746806
 20
2.454445
 30
0.0
  0
SPLINE
  5
11f
100
AcDbEntity
  8
Layer_1
 62
7
100
AcDbSpline
 70
8
 71
3
 72
8
 73
4
 74
0
 40
0
 40
0
 40
0
 40
0
 40
1
 40
1
 40
1
 40
1
 10
4.746806
 20
2.454445
 30
0.0
 10
4.304911
 20
1.057961
 30
0.0
 10
3.040534
 20
0.084110
 30
0.0
 10
1.577860
 20
0.013037
 30
0.0
  0
SPLINE
  5
120
100
AcDbEntity
  8
Layer_1
 62
7
100
AcDbSpline
 70
8
 71
3
 72
8
 73
4
 74
0
 40
0
 40
0
 40
0
 40
0
 40
1
 40
1
 40
1
 40
1
 10
1.577860
 20
0.013037
 30
0.0
 10
1.217075
 20
-0.004601
 30
0.0
 10
0.873651
 20
0.031207
 30
0.0
 10
0.524258
 20
0.122088
 30
0.0
  0
SPLINE
  5
121
100
AcDbEntity
  8
Layer_1
 62
7
100
AcDbSpline
 70
8
 71
3
 72
8
 73
4
 74
0
 40
0
 40
0
 40
0
 40
0
 40
1
 40
1
 40
1
 40
1
 10
0.524258
 20
0.122088
 30
0.0
 10
0.345221
 20
0.168746
 30
0.0
 10
0.191141
 20
0.207809
 30
0.0
 10
0.082364
 20
0.386303
 30
0.0
  0
SPLINE
  5
122
100
AcDbEntity
  8
Layer_1
 62
7
100
AcDbSpline
 70
8
 71
3
 72
8
 73
4
 74
0
 40
0
 40
0
 40
0
 40
0
 40
1
 40
1
 40
1
 40
1
 10
0.082364
 20
0.386303
 30
0.0
 10
0.033264
 20
0.466596
 30
0.0
 10
0.010478
 20
0.545807
 30
0.0
 10
0.009393
 20
0.640209
 30
0.0
  0
SPLINE
  5
123
100
AcDbEntity
  8
Layer_1
 62
7
100
AcDbSpline
 70
8
 71
3
 72
8
 73
4
 74
0
 40
0
 40
0
 40
0
 40
0
 40
1
 40
1
 40
1
 40
1
 10
0.009393
 20
0.640209
 30
0.0
 10
0.008310
 20
0.727829
 30
0.0
 10
0.009393
 20
0.815718
 30
0.0
 10
0.009393
 20
0.903608
 30
0.0
  0
SPLINE
  5
124
100
AcDbEntity
  8
Layer_1
 62
7
100
AcDbSpline
 70
8
 71
3
 72
8
 73
4
 74
0
 40
0
 40
0
 40
0
 40
0
 40
1
 40
1
 40
1
 40
1
 10
0.009393
 20
0.903608
 30
0.0
 10
0.009393
 20
1.612974
 30
0.0
 10
0.009393
 20
2.322608
 30
0.0
 10
0.009393
 20
3.031972
 30
0.0
  0
SPLINE
  5
125
100
AcDbEntity
  8
Layer_1
 62
7
100
AcDbSpline
 70
8
 71
3
 72
8
 73
4
 74
0
 40
0
 40
0
 40
0
 40
0
 40
1
 40
1
 40
1
 40
1
 10
3.062773
 20
2.630285
 30
0.0
 10
2.953995
 20
2.425750
 30
0.0
 10
2.818904
 20
2.255394
 30
0.0
 10
2.644749
 20
2.102399
 30
0.0
  0
SPLINE
  5
126
100
AcDbEntity
  8
Layer_1
 62
7
100
AcDbSpline
 70
8
 71
3
 72
8
 73
4
 74
0
 40
0
 40
0
 40
0
 40
0
 40
1
 40
1
 40
1
 40
1
 10
2.644749
 20
2.102399
 30
0.0
 10
2.602704
 20
2.065236
 30
0.0
 10
2.558758
 20
2.030242
 30
0.0
 10
2.513185
 20
1.996876
 30
0.0
  0
SPLINE
  5
127
100
AcDbEntity
  8
Layer_1
 62
7
100
AcDbSpline
 70
8
 71
3
 72
8
 73
4
 74
0
 40
0
 40
0
 40
0
 40
0
 40
1
 40
1
 40
1
 40
1
 10
2.513185
 20
1.996876
 30
0.0
 10
2.490670
 20
1.980321
 30
0.0
 10
2.467612
 20
1.964325
 30
0.0
 10
2.444284
 20
1.948862
 30
0.0
  0
SPLINE
  5
128
100
AcDbEntity
  8
Layer_1
 62
7
100
AcDbSpline
 70
8
 71
3
 72
8
 73
4
 74
0
 40
0
 40
0
 40
0
 40
0
 40
1
 40
1
 40
1
 40
1
 10
2.444284
 20
1.948862
 30
0.0
 10
2.420954
 20
1.933390
 30
0.0
 10
2.397354
 20
1.919022
 30
0.0
 10
2.377552
 20
1.898949
 30
0.0
  0
SPLINE
  5
129
100
AcDbEntity
  8
Layer_1
 62
7
100
AcDbSpline
 70
8
 71
3
 72
8
 73
4
 74
0
 40
0
 40
0
 40
0
 40
0
 40
1
 40
1
 40
1
 40
1
 10
2.377552
 20
1.898949
 30
0.0
 10
2.293459
 20
1.815126
 30
0.0
 10
2.279895
 20
1.684104
 30
0.0
 10
2.344999
 20
1.585092
 30
0.0
  0
SPLINE
  5
12a
100
AcDbEntity
  8
Layer_1
 62
7
100
AcDbSpline
 70
8
 71
3
 72
8
 73
4
 74
0
 40
0
 40
0
 40
0
 40
0
 40
1
 40
1
 40
1
 40
1
 10
2.344999
 20
1.585092
 30
0.0
 10
2.368057
 20
1.549827
 30
0.0
 10
2.434246
 20
1.492590
 30
0.0
 10
2.464086
 20
1.465462
 30
0.0
  0
SPLINE
  5
12b
100
AcDbEntity
  8
Layer_1
 62
7
100
AcDbSpline
 70
8
 71
3
 72
8
 73
4
 74
0
 40
0
 40
0
 40
0
 40
0
 40
1
 40
1
 40
1
 40
1
 10
2.464086
 20
1.465462
 30
0.0
 10
2.505861
 20
1.427214
 30
0.0
 10
2.547636
 20
1.388966
 30
0.0
 10
2.589140
 20
1.350716
 30
0.0
  0
SPLINE
  5
12c
100
AcDbEntity
  8
Layer_1
 62
7
100
AcDbSpline
 70
8
 71
3
 72
8
 73
4
 74
0
 40
0
 40
0
 40
0
 40
0
 40
1
 40
1
 40
1
 40
1
 10
2.589140
 20
1.350716
 30
0.0
 10
2.630915
 20
1.312740
 30
0.0
 10
2.672690
 20
1.274492
 30
0.0
 10
2.714194
 20
1.236242
 30
0.0
  0
SPLINE
  5
12d
100
AcDbEntity
  8
Layer_1
 62
7
100
AcDbSpline
 70
8
 71
3
 72
8
 73
4
 74
0
 40
0
 40
0
 40
0
 40
0
 40
1
 40
1
 40
1
 40
1
 10
2.714194
 20
1.236242
 30
0.0
 10
2.735082
 20
1.217246
 30
0.0
 10
2.755970
 20
1.197994
 30
0.0
 10
2.776857
 20
1.179006
 30
0.0
  0
SPLINE
  5
12e
100
AcDbEntity
  8
Layer_1
 62
7
100
AcDbSpline
 70
8
 71
3
 72
8
 73
4
 74
0
 40
0
 40
0
 40
0
 40
0
 40
1
 40
1
 40
1
 40
1
 10
2.776857
 20
1.179006
 30
0.0
 10
2.797202
 20
1.160010
 30
0.0
 10
2.817004
 20
1.140212
 30
0.0
 10
2.838977
 20
1.123124
 30
0.0
  0
SPLINE
  5
12f
100
AcDbEntity
  8
Layer_1
 62
7
100
AcDbSpline
 70
8
 71
3
 72
8
 73
4
 74
0
 40
0
 40
0
 40
0
 40
0
 40
1
 40
1
 40
1
 40
1
 10
2.838977
 20
1.123124
 30
0.0
 10
2.889162
 20
1.084333
 30
0.0
 10
2.937718
 20
1.068870
 30
0.0
 10
3.000924
 20
1.071041
 30
0.0
  0
SPLINE
  5
130
100
AcDbEntity
  8
Layer_1
 62
7
100
AcDbSpline
 70
8
 71
3
 72
8
 73
4
 74
0
 40
0
 40
0
 40
0
 40
0
 40
1
 40
1
 40
1
 40
1
 10
3.000924
 20
1.071041
 30
0.0
 10
3.062230
 20
1.073482
 30
0.0
 10
3.108346
 20
1.096268
 30
0.0
 10
3.156089
 20
1.131533
 30
0.0
  0
SPLINE
  5
131
100
AcDbEntity
  8
Layer_1
 62
7
100
AcDbSpline
 70
8
 71
3
 72
8
 73
4
 74
0
 40
0
 40
0
 40
0
 40
0
 40
1
 40
1
 40
1
 40
1
 10
3.156089
 20
1.131533
 30
0.0
 10
3.246149
 20
1.197722
 30
0.0
 10
3.331870
 20
1.268252
 30
0.0
 10
3.414064
 20
1.344478
 30
0.0
  0
SPLINE
  5
132
100
AcDbEntity
  8
Layer_1
 62
7
100
AcDbSpline
 70
8
 71
3
 72
8
 73
4
 74
0
 40
0
 40
0
 40
0
 40
0
 40
1
 40
1
 40
1
 40
1
 10
3.414064
 20
1.344478
 30
0.0
 10
3.581436
 20
1.499372
 30
0.0
 10
3.726293
 20
1.668100
 30
0.0
 10
3.854060
 20
1.857173
 30
0.0
  0
SPLINE
  5
133
100
AcDbEntity
  8
Layer_1
 62
7
100
AcDbSpline
 70
8
 71
3
 72
8
 73
4
 74
0
 40
0
 40
0
 40
0
 40
0
 40
1
 40
1
 40
1
 40
1
 10
3.854060
 20
1.857173
 30
0.0
 10
3.917808
 20
1.951575
 30
0.0
 10
3.975588
 20
2.048687
 30
0.0
 10
4.028213
 20
2.149600
 30
0.0
  0
SPLINE
  5
134
100
AcDbEntity
  8
Layer_1
 62
7
100
AcDbSpline
 70
8
 71
3
 72
8
 73
4
 74
0
 40
0
 40
0
 40
0
 40
0
 40
1
 40
1
 40
1
 40
1
 10
4.028213
 20
2.149600
 30
0.0
 10
4.057239
 20
2.205752
 30
0.0
 10
4.148927
 20
2.393740
 30
0.0
 10
4.163304
 20
2.457488
 30
0.0
  0
SPLINE
  5
135
100
AcDbEntity
  8
Layer_1
 62
7
100
AcDbSpline
 70
8
 71
3
 72
8
 73
4
 74
0
 40
0
 40
0
 40
0
 40
0
 40
1
 40
1
 40
1
 40
1
 10
4.163304
 20
2.457488
 30
0.0
 10
4.189618
 20
2.572777
 30
0.0
 10
4.131566
 20
2.690506
 30
0.0
 10
4.024415
 20
2.739878
 30
0.0
  0
SPLINE
  5
136
100
AcDbEntity
  8
Layer_1
 62
7
100
AcDbSpline
 70
8
 71
3
 72
8
 73
4
 74
0
 40
0
 40
0
 40
0
 40
0
 40
1
 40
1
 40
1
 40
1
 10
4.024415
 20
2.739878
 30
0.0
 10
3.969620
 20
2.765104
 30
0.0
 10
3.915638
 20
2.762935
 30
0.0
 10
3.858943
 20
2.762935
 30
0.0
  0
SPLINE
  5
137
100
AcDbEntity
  8
Layer_1
 62
7
100
AcDbSpline
 70
8
 71
3
 72
8
 73
4
 74
0
 40
0
 40
0
 40
0
 40
0
 40
1
 40
1
 40
1
 40
1
 10
3.858943
 20
2.762935
 30
0.0
 10
3.803061
 20
2.762935
 30
0.0
 10
3.746909
 20
2.762935
 30
0.0
 10
3.691028
 20
2.762935
 30
0.0
  0
SPLINE
  5
138
100
AcDbEntity
  8
Layer_1
 62
7
100
AcDbSpline
 70
8
 71
3
 72
8
 73
4
 74
0
 40
0
 40
0
 40
0
 40
0
 40
1
 40
1
 40
1
 40
1
 10
3.691028
 20
2.762935
 30
0.0
 10
3.578452
 20
2.762935
 30
0.0
 10
3.466147
 20
2.762935
 30
0.0
 10
3.353843
 20
2.762935
 30
0.0
  0
SPLINE
  5
139
100
AcDbEntity
  8
Layer_1
 62
7
100
AcDbSpline
 70
8
 71
3
 72
8
 73
4
 74
0
 40
0
 40
0
 40
0
 40
0
 40
1
 40
1
 40
1
 40
1
 10
3.353843
 20
2.762935
 30
0.0
 10
3.297148
 20
2.762935
 30
0.0
 10
3.242623
 20
2.766734
 30
0.0
 10
3.187284
 20
2.743683
 30
0.0
  0
SPLINE
  5
13a
100
AcDbEntity
  8
Layer_1
 62
7
100
AcDbSpline
 70
8
 71
3
 72
8
 73
4
 74
0
 40
0
 40
0
 40
0
 40
0
 40
1
 40
1
 40
1
 40
1
 10
3.187284
 20
2.743683
 30
0.0
 10
3.129776
 20
2.719539
 30
0.0
 10
3.092070
 20
2.685360
 30
0.0
 10
3.062773
 20
2.630293
 30
0.0
  0
LWPOLYLINE
  5
13b
100
AcDbEntity
  8
Layer_1
 62
7
100
AcDbPolyline
 90
1
 70
1
 10
0.009393
 20
3.031972
 30
0.0
  0
SPLINE
  5
13c
100
AcDbEntity
  8
Layer_1
 62
7
100
AcDbSpline
 70
8
 71
3
 72
8
 73
4
 74
0
 40
0
 40
0
 40
0
 40
0
 40
1
 40
1
 40
1
 40
1
 10
1.009279
 20
1.636362
 30
0.0
 10
1.094186
 20
1.636362
 30
0.0
 10
1.179093
 20
1.636362
 30
0.0
 10
1.263728
 20
1.636362
 30
0.0
  0
SPLINE
  5
13d
100
AcDbEntity
  8
Layer_1
 62
7
100
AcDbSpline
 70
8
 71
3
 72
8
 73
4
 74
0
 40
0
 40
0
 40
0
 40
0
 40
1
 40
1
 40
1
 40
1
 10
1.263728
 20
1.636362
 30
0.0
 10
1.306045
 20
1.636362
 30
0.0
 10
1.348634
 20
1.636362
 30
0.0
 10
1.390952
 20
1.636362
 30
0.0
  0
SPLINE
  5
13e
100
AcDbEntity
  8
Layer_1
 62
7
100
AcDbSpline
 70
8
 71
3
 72
8
 73
4
 74
0
 40
0
 40
0
 40
0
 40
0
 40
1
 40
1
 40
1
 40
1
 10
1.390952
 20
1.636362
 30
0.0
 10
1.443578
 20
1.636362
 30
0.0
 10
1.493491
 20
1.636953
 30
0.0
 10
1.544218
 20
1.613846
 30
0.0
  0
SPLINE
  5
13f
100
AcDbEntity
  8
Layer_1
 62
7
100
AcDbSpline
 70
8
 71
3
 72
8
 73
4
 74
0
 40
0
 40
0
 40
0
 40
0
 40
1
 40
1
 40
1
 40
1
 10
1.544218
 20
1.613846
 30
0.0
 10
1.586536
 20
1.594319
 30
0.0
 10
1.617461
 20
1.563120
 30
0.0
 10
1.650555
 20
1.532466
 30
0.0
  0
SPLINE
  5
140
100
AcDbEntity
  8
Layer_1
 62
7
100
AcDbSpline
 70
8
 71
3
 72
8
 73
4
 74
0
 40
0
 40
0
 40
0
 40
0
 40
1
 40
1
 40
1
 40
1
 10
1.650555
 20
1.532466
 30
0.0
 10
1.683649
 20
1.502356
 30
0.0
 10
1.716744
 20
1.471974
 30
0.0
 10
1.749839
 20
1.441592
 30
0.0
  0
SPLINE
  5
141
100
AcDbEntity
  8
Layer_1
 62
7
100
AcDbSpline
 70
8
 71
3
 72
8
 73
4
 74
0
 40
0
 40
0
 40
0
 40
0
 40
1
 40
1
 40
1
 40
1
 10
1.749839
 20
1.441592
 30
0.0
 10
1.816028
 20
1.381098
 30
0.0
 10
1.882218
 20
1.320606
 30
0.0
 10
1.948406
 20
1.259842
 30
0.0
  0
SPLINE
  5
142
100
AcDbEntity
  8
Layer_1
 62
7
100
AcDbSpline
 70
8
 71
3
 72
8
 73
4
 74
0
 40
0
 40
0
 40
0
 40
0
 40
1
 40
1
 40
1
 40
1
 10
1.948406
 20
1.259842
 30
0.0
 10
2.013782
 20
1.199894
 30
0.0
 10
2.079429
 20
1.139671
 30
0.0
 10
2.145075
 20
1.079720
 30
0.0
  0
SPLINE
  5
143
100
AcDbEntity
  8
Layer_1
 62
7
100
AcDbSpline
 70
8
 71
3
 72
8
 73
4
 74
0
 40
0
 40
0
 40
0
 40
0
 40
1
 40
1
 40
1
 40
1
 10
2.145075
 20
1.079720
 30
0.0
 10
2.178441
 20
1.049067
 30
0.0
 10
2.208823
 20
1.018685
 30
0.0
 10
2.227812
 20
0.975827
 30
0.0
  0
SPLINE
  5
144
100
AcDbEntity
  8
Layer_1
 62
7
100
AcDbSpline
 70
8
 71
3
 72
8
 73
4
 74
0
 40
0
 40
0
 40
0
 40
0
 40
1
 40
1
 40
1
 40
1
 10
2.227812
 20
0.975827
 30
0.0
 10
2.247614
 20
0.931610
 30
0.0
 10
2.253582
 20
0.889835
 30
0.0
 10
2.247614
 20
0.841819
 30
0.0
  0
SPLINE
  5
145
100
AcDbEntity
  8
Layer_1
 62
7
100
AcDbSpline
 70
8
 71
3
 72
8
 73
4
 74
0
 40
0
 40
0
 40
0
 40
0
 40
1
 40
1
 40
1
 40
1
 10
2.247614
 20
0.841819
 30
0.0
 10
2.235679
 20
0.749860
 30
0.0
 10
2.173829
 20
0.672006
 30
0.0
 10
2.087024
 20
0.639724
 30
0.0
  0
SPLINE
  5
146
100
AcDbEntity
  8
Layer_1
 62
7
100
AcDbSpline
 70
8
 71
3
 72
8
 73
4
 74
0
 40
0
 40
0
 40
0
 40
0
 40
1
 40
1
 40
1
 40
1
 10
2.087024
 20
0.639724
 30
0.0
 10
2.039010
 20
0.621555
 30
0.0
 10
1.874893
 20
0.594966
 30
0.0
 10
1.825251
 20
0.587913
 30
0.0
  0
SPLINE
  5
147
100
AcDbEntity
  8
Layer_1
 62
7
100
AcDbSpline
 70
8
 71
3
 72
8
 73
4
 74
0
 40
0
 40
0
 40
0
 40
0
 40
1
 40
1
 40
1
 40
1
 10
1.825251
 20
0.587913
 30
0.0
 10
1.646486
 20
0.562413
 30
0.0
 10
1.469077
 20
0.553462
 30
0.0
 10
1.288956
 20
0.560516
 30
0.0
  0
SPLINE
  5
148
100
AcDbEntity
  8
Layer_1
 62
7
100
AcDbSpline
 70
8
 71
3
 72
8
 73
4
 74
0
 40
0
 40
0
 40
0
 40
0
 40
1
 40
1
 40
1
 40
1
 10
1.288956
 20
0.560516
 30
0.0
 10
1.199980
 20
0.564039
 30
0.0
 10
1.111818
 20
0.571638
 30
0.0
 10
1.023656
 20
0.583301
 30
0.0
  0
SPLINE
  5
149
100
AcDbEntity
  8
Layer_1
 62
7
100
AcDbSpline
 70
8
 71
3
 72
8
 73
4
 74
0
 40
0
 40
0
 40
0
 40
0
 40
1
 40
1
 40
1
 40
1
 10
1.023656
 20
0.583301
 30
0.0
 10
0.925999
 20
0.596057
 30
0.0
 10
0.851130
 20
0.615583
 30
0.0
 10
0.794978
 20
0.708899
 30
0.0
  0
SPLINE
  5
14a
100
AcDbEntity
  8
Layer_1
 62
7
100
AcDbSpline
 70
8
 71
3
 72
8
 73
4
 74
0
 40
0
 40
0
 40
0
 40
0
 40
1
 40
1
 40
1
 40
1
 10
0.794978
 20
0.708899
 30
0.0
 10
0.746963
 20
0.788923
 30
0.0
 10
0.759442
 20
0.890104
 30
0.0
 10
0.759442
 20
0.972027
 30
0.0
  0
SPLINE
  5
14b
100
AcDbEntity
  8
Layer_1
 62
7
100
AcDbSpline
 70
8
 71
3
 72
8
 73
4
 74
0
 40
0
 40
0
 40
0
 40
0
 40
1
 40
1
 40
1
 40
1
 10
0.759442
 20
0.972027
 30
0.0
 10
0.759442
 20
1.061545
 30
0.0
 10
0.759442
 20
1.151065
 30
0.0
 10
0.759442
 20
1.240583
 30
0.0
  0
SPLINE
  5
14c
100
AcDbEntity
  8
Layer_1
 62
7
100
AcDbSpline
 70
8
 71
3
 72
8
 73
4
 74
0
 40
0
 40
0
 40
0
 40
0
 40
1
 40
1
 40
1
 40
1
 10
0.759442
 20
1.240583
 30
0.0
 10
0.759442
 20
1.284527
 30
0.0
 10
0.759442
 20
1.328472
 30
0.0
 10
0.759442
 20
1.372691
 30
0.0
  0
SPLINE
  5
14d
100
AcDbEntity
  8
Layer_1
 62
7
100
AcDbSpline
 70
8
 71
3
 72
8
 73
4
 74
0
 40
0
 40
0
 40
0
 40
0
 40
1
 40
1
 40
1
 40
1
 10
0.759442
 20
1.372691
 30
0.0
 10
0.759442
 20
1.417992
 30
0.0
 10
0.765678
 20
1.458681
 30
0.0
 10
0.786568
 20
1.500185
 30
0.0
  0
SPLINE
  5
14e
100
AcDbEntity
  8
Layer_1
 62
7
100
AcDbSpline
 70
8
 71
3
 72
8
 73
4
 74
0
 40
0
 40
0
 40
0
 40
0
 40
1
 40
1
 40
1
 40
1
 10
0.786568
 20
1.500185
 30
0.0
 10
0.829429
 20
1.583736
 30
0.0
 10
0.915420
 20
1.636362
 30
0.0
 10
1.009279
 20
1.636362
 30
0.0
  0
LWPOLYLINE
  5
14f
100
AcDbEntity
  8
Layer_1
 62
7
100
AcDbPolyline
 90
1
 70
1
 10
3.062773
 20
2.630293
 30
0.0
  0
SPLINE
  5
150
100
AcDbEntity
  8
Layer_1
 62
7
100
AcDbSpline
 70
8
 71
3
 72
8
 73
4
 74
0
 40
0
 40
0
 40
0
 40
0
 40
1
 40
1
 40
1
 40
1
 10
3.282770
 20
3.511362
 30
0.0
 10
3.282770
 20
3.580264
 30
0.0
 10
3.226618
 20
3.636417
 30
0.0
 10
3.157716
 20
3.636417
 30
0.0
  0
SPLINE
  5
151
100
AcDbEntity
  8
Layer_1
 62
7
100
AcDbSpline
 70
8
 71
3
 72
8
 73
4
 74
0
 40
0
 40
0
 40
0
 40
0
 40
1
 40
1
 40
1
 40
1
 10
3.157716
 20
3.636417
 30
0.0
 10
3.088815
 20
3.636417
 30
0.0
 10
3.032662
 20
3.580264
 30
0.0
 10
3.032662
 20
3.511362
 30
0.0
  0
SPLINE
  5
152
100
AcDbEntity
  8
Layer_1
 62
7
100
AcDbSpline
 70
8
 71
3
 72
8
 73
4
 74
0
 40
0
 40
0
 40
0
 40
0
 40
1
 40
1
 40
1
 40
1
 10
3.032662
 20
3.511362
 30
0.0
 10
3.032662
 20
3.442189
 30
0.0
 10
3.088815
 20
3.386307
 30
0.0
 10
3.157716
 20
3.386307
 30
0.0
  0
SPLINE
  5
153
100
AcDbEntity
  8
Layer_1
 62
7
100
AcDbSpline
 70
8
 71
3
 72
8
 73
4
 74
0
 40
0
 40
0
 40
0
 40
0
 40
1
 40
1
 40
1
 40
1
 10
3.157716
 20
3.386307
 30
0.0
 10
3.226618
 20
3.386307
 30
0.0
 10
3.282770
 20
3.442189
 30
0.0
 10
3.282770
 20
3.511362
 30
0.0
  0
LWPOLYLINE
  5
154
100
AcDbEntity
  8
Layer_1
 62
7
100
AcDbPolyline
 90
1
 70
1
 10
1.009279
 20
1.636362
 30
0.0
  0
SPLINE
  5
155
100
AcDbEntity
  8
Layer_1
 62
7
100
AcDbSpline
 70
8
 71
3
 72
8
 73
4
 74
0
 40
0
 40
0
 40
0
 40
0
 40
1
 40
1
 40
1
 40
1
 10
0.509333
 20
3.032031
 30
0.0
 10
0.509333
 20
3.101205
 30
0.0
 10
0.453452
 20
3.157086
 30
0.0
 10
0.384279
 20
3.157086
 30
0.0
  0
SPLINE
  5
156
100
AcDbEntity
  8
Layer_1
 62
7
100
AcDbSpline
 70
8
 71
3
 72
8
 73
4
 74
0
 40
0
 40
0
 40
0
 40
0
 40
1
 40
1
 40
1
 40
1
 10
0.384279
 20
3.157086
 30
0.0
 10
0.315377
 20
3.157086
 30
0.0
 10
0.259224
 20
3.101205
 30
0.0
 10
0.259224
 20
3.032031
 30
0.0
  0
SPLINE
  5
157
100
AcDbEntity
  8
Layer_1
 62
7
100
AcDbSpline
 70
8
 71
3
 72
8
 73
4
 74
0
 40
0
 40
0
 40
0
 40
0
 40
1
 40
1
 40
1
 40
1
 10
0.259224
 20
3.032031
 30
0.0
 10
0.259224
 20
2.963130
 30
0.0
 10
0.315377
 20
2.906978
 30
0.0
 10
0.384279
 20
2.906978
 30
0.0
  0
SPLINE
  5
158
100
AcDbEntity
  8
Layer_1
 62
7
100
AcDbSpline
 70
8
 71
3
 72
8
 73
4
 74
0
 40
0
 40
0
 40
0
 40
0
 40
1
 40
1
 40
1
 40
1
 10
0.384279
 20
2.906978
 30
0.0
 10
0.453452
 20
2.906978
 30
0.0
 10
0.509333
 20
2.963130
 30
0.0
 10
0.509333
 20
3.032031
 30
0.0
  0
LWPOLYLINE
  5
159
100
AcDbEntity
  8
Layer_1
 62
7
100
AcDbPolyline
 90
1
 70
1
 10
3.282770
 20
3.511362
 30
0.0
  0
SPLINE
  5
15a
100
AcDbEntity
  8
Layer_1
 62
7
100
AcDbSpline
 70
8
 71
3
 72
8
 73
4
 74
0
 40
0
 40
0
 40
0
 40
0
 40
1
 40
1
 40
1
 40
1
 10
4.657554
 20
3.511362
 30
0.0
 10
4.657554
 20
3.580264
 30
0.0
 10
4.601673
 20
3.636417
 30
0.0
 10
4.532770
 20
3.636417
 30
0.0
  0
SPLINE
  5
15b
100
AcDbEntity
  8
Layer_1
 62
7
100
AcDbSpline
 70
8
 71
3
 72
8
 73
4
 74
0
 40
0
 40
0
 40
0
 40
0
 40
1
 40
1
 40
1
 40
1
 10
4.532770
 20
3.636417
 30
0.0
 10
4.463598
 20
3.636417
 30
0.0
 10
4.407716
 20
3.580264
 30
0.0
 10
4.407716
 20
3.511362
 30
0.0
  0
SPLINE
  5
15c
100
AcDbEntity
  8
Layer_1
 62
7
100
AcDbSpline
 70
8
 71
3
 72
8
 73
4
 74
0
 40
0
 40
0
 40
0
 40
0
 40
1
 40
1
 40
1
 40
1
 10
4.407716
 20
3.511362
 30
0.0
 10
4.407716
 20
3.442189
 30
0.0
 10
4.463598
 20
3.386307
 30
0.0
 10
4.532770
 20
3.386307
 30
0.0
  0
SPLINE
  5
15d
100
AcDbEntity
  8
Layer_1
 62
7
100
AcDbSpline
 70
8
 71
3
 72
8
 73
4
 74
0
 40
0
 40
0
 40
0
 40
0
 40
1
 40
1
 40
1
 40
1
 10
4.532770
 20
3.386307
 30
0.0
 10
4.601673
 20
3.386307
 30
0.0
 10
4.657554
 20
3.442189
 30
0.0
 10
4.657554
 20
3.511362
 30
0.0
  0
LWPOLYLINE
  5
15e
100
AcDbEntity
  8
Layer_1
 62
7
100
AcDbPolyline
 90
1
 70
1
 10
0.509333
 20
3.032031
 30
0.0
  0
LWPOLYLINE
  5
15f
100
AcDbEntity
  8
Layer_1
 62
7
100
AcDbPolyline
 90
1
 70
1
 10
4.657554
 20
3.511362
 30
0.0
  0
ENDSEC
  0
SECTION
  2
OBJECTS
  0
DICTIONARY
  5
C
330
0
100
AcDbDictionary
  3
ACAD_GROUP
350
D
  3
ACAD_MLINESTYLE
350
17
  0
DICTIONARY
  5
D
330
C
100
AcDbDictionary
  0
DICTIONARY
  5
1A
330
C
100
AcDbDictionary
  0
DICTIONARY
  5
17
330
C
100
AcDbDictionary
  3
STANDARD
350
18
  0
DICTIONARY
  5
19
330
C
100
AcDbDictionary
  0
ENDSEC
  0
EOF
