  0
SECTION
  2
HEADER
  9
$ACADVER
  1
AC1014
  9
$HANDSEED
  5
FFFF
  9
$MEASUREMENT
 70
     1
  0
ENDSEC
  0
SECTION
  2
TABLES
  0
TABLE
  2
VPORT
  5
8
330
0
100
AcDbSymbolTable
 70
     4
  0
VPORT
  5
2E
330
8
100
AcDbSymbolTableRecord
100
AcDbViewportTableRecord
  2
*ACTIVE
 70
     0
 10
0.0
 20
0.0
 11
1.0
 21
1.0
 12
210.0
 22
148.5
 13
0.0
 23
0.0
 14
10.0
 24
10.0
 15
10.0
 25
10.0
 16
0.0
 26
0.0
 36
1.0
 17
0.0
 27
0.0
 37
0.0
 40
341.0
 41
1.24
 42
50.0
 43
0.0
 44
0.0
 50
0.0
 51
0.0
 71
     0
 72
   100
 73
     1
 74
     3
 75
     0
 76
     0
 77
     0
 78
     0
  0
ENDTAB
  0
TABLE
  2
LTYPE
  5
5
330
0
100
AcDbSymbolTable
 70
     1
  0
LTYPE
  5
14
330
5
100
AcDbSymbolTableRecord
100
AcDbLinetypeTableRecord
  2
BYBLOCK
 70
     0
  3

 72
    65
 73
     0
 40
0.0
  0
LTYPE
  5
15
330
5
100
AcDbSymbolTableRecord
100
AcDbLinetypeTableRecord
  2
BYLAYER
 70
     0
  3

 72
    65
 73
     0
 40
0.0
  0
LTYPE
  5
16
330
5
100
AcDbSymbolTableRecord
100
AcDbLinetypeTableRecord
  2
CONTINUOUS
 70
     0
  3
Solid line
 72
    65
 73
     0
 40
0.0
  0
ENDTAB
  0
TABLE
  2
LAYER
  5
2
100
AcDbSymbolTable
 70
2
  0
LAYER
  5
50
100
AcDbSymbolTableRecord
100
AcDbLayerTableRecord
  2
0
 70
0
  6
CONTINUOUS
  0
LAYER
  5
51
100
AcDbSymbolTableRecord
100
AcDbLayerTableRecord
  2
Layer_1
 70
0
  6
CONTINUOUS
  0
ENDTAB
  0
TABLE
  2
STYLE
  5
3
330
0
100
AcDbSymbolTable
 70
     1
  0
STYLE
  5
11
330
3
100
AcDbSymbolTableRecord
100
AcDbTextStyleTableRecord
  2
STANDARD
 70
     0
 40
0.0
 41
1.0
 50
0.0
 71
     0
 42
2.5
  3
txt
  4

  0
ENDTAB
  0
TABLE
  2
VIEW
  5
6
330
0
100
AcDbSymbolTable
 70
     0
  0
ENDTAB
  0
TABLE
  2
UCS
  5
7
330
0
100
AcDbSymbolTable
 70
     0
  0
ENDTAB
  0
TABLE
  2
APPID
  5
9
330
0
100
AcDbSymbolTable
 70
     2
  0
APPID
  5
12
330
9
100
AcDbSymbolTableRecord
100
AcDbRegAppTableRecord
  2
ACAD
 70
     0
  0
ENDTAB
  0
TABLE
  2
DIMSTYLE
  5
A
330
0
100
AcDbSymbolTable
 70
     1
  0
DIMSTYLE
105
27
330
A
100
AcDbSymbolTableRecord
100
AcDbDimStyleTableRecord
  2
ISO-25
 70
     0
  3

  4

  5

  6

  7

 40
1.0
 41
2.5
 42
0.625
 43
3.75
 44
1.25
 45
0.0
 46
0.0
 47
0.0
 48
0.0
140
2.5
141
2.5
142
0.0
143
0.03937007874016
144
1.0
145
0.0
146
1.0
147
0.625
 71
     0
 72
     0
 73
     0
 74
     0
 75
     0
 76
     0
 77
     1
 78
     8
170
     0
171
     3
172
     1
173
     0
174
     0
175
     0
176
     0
177
     0
178
     0
270
     2
271
     2
272
     2
273
     2
274
     3
340
11
275
     0
280
     0
281
     0
282
     0
283
     0
284
     8
285
     0
286
     0
287
     3
288
     0
  0
ENDTAB
  0
TABLE
  2
BLOCK_RECORD
  5
1
330
0
100
AcDbSymbolTable
 70
     1
  0
BLOCK_RECORD
  5
1F
330
1
100
AcDbSymbolTableRecord
100
AcDbBlockTableRecord
  2
*MODEL_SPACE
  0
BLOCK_RECORD
  5
1B
330
1
100
AcDbSymbolTableRecord
100
AcDbBlockTableRecord
  2
*PAPER_SPACE
  0
ENDTAB
  0
ENDSEC
  0
SECTION
  2
BLOCKS
  0
BLOCK
  5
20
330
1F
100
AcDbEntity
  8
0
100
AcDbBlockBegin
  2
*MODEL_SPACE
 70
     0
 10
0.0
 20
0.0
 30
0.0
  3
*MODEL_SPACE
  1

  0
ENDBLK
  5
21
330
1F
100
AcDbEntity
  8
0
100
AcDbBlockEnd
  0
BLOCK
  5
1C
330
1B
100
AcDbEntity
 67
     1
  8
0
100
AcDbBlockBegin
  2
*PAPER_SPACE
  1

  0
ENDBLK
  5
1D
330
1B
100
AcDbEntity
 67
     1
  8
0
100
AcDbBlockEnd
  0
ENDSEC
  0
SECTION
  2
ENTITIES
  0
SPLINE
  5
100
100
AcDbEntity
  8
Layer_1
 62
7
100
AcDbSpline
 70
8
 71
3
 72
8
 73
4
 74
0
 40
0
 40
0
 40
0
 40
0
 40
1
 40
1
 40
1
 40
1
 10
11.134401
 20
0.758876
 30
0.0
 10
9.402087
 20
0.758876
 30
0.0
 10
7.670044
 20
0.758876
 30
0.0
 10
5.937731
 20
0.758876
 30
0.0
  0
SPLINE
  5
101
100
AcDbEntity
  8
Layer_1
 62
7
100
AcDbSpline
 70
8
 71
3
 72
8
 73
4
 74
0
 40
0
 40
0
 40
0
 40
0
 40
1
 40
1
 40
1
 40
1
 10
5.937731
 20
0.758876
 30
0.0
 10
5.072117
 20
0.758876
 30
0.0
 10
4.206503
 20
0.758876
 30
0.0
 10
3.341160
 20
0.758876
 30
0.0
  0
SPLINE
  5
102
100
AcDbEntity
  8
Layer_1
 62
7
100
AcDbSpline
 70
8
 71
3
 72
8
 73
4
 74
0
 40
0
 40
0
 40
0
 40
0
 40
1
 40
1
 40
1
 40
1
 10
3.341160
 20
0.758876
 30
0.0
 10
2.909574
 20
0.758876
 30
0.0
 10
2.477987
 20
0.758876
 30
0.0
 10
2.046401
 20
0.758876
 30
0.0
  0
SPLINE
  5
103
100
AcDbEntity
  8
Layer_1
 62
7
100
AcDbSpline
 70
8
 71
3
 72
8
 73
4
 74
0
 40
0
 40
0
 40
0
 40
0
 40
1
 40
1
 40
1
 40
1
 10
2.046401
 20
0.758876
 30
0.0
 10
1.830743
 20
0.758876
 30
0.0
 10
1.614814
 20
0.758876
 30
0.0
 10
1.399157
 20
0.758876
 30
0.0
  0
SPLINE
  5
104
100
AcDbEntity
  8
Layer_1
 62
7
100
AcDbSpline
 70
8
 71
3
 72
8
 73
4
 74
0
 40
0
 40
0
 40
0
 40
0
 40
1
 40
1
 40
1
 40
1
 10
1.399157
 20
0.758876
 30
0.0
 10
1.345175
 20
0.758876
 30
0.0
 10
1.291193
 20
0.758876
 30
0.0
 10
1.237210
 20
0.758876
 30
0.0
  0
SPLINE
  5
105
100
AcDbEntity
  8
Layer_1
 62
7
100
AcDbSpline
 70
8
 71
3
 72
8
 73
4
 74
0
 40
0
 40
0
 40
0
 40
0
 40
1
 40
1
 40
1
 40
1
 10
1.237210
 20
0.758876
 30
0.0
 10
1.210355
 20
0.758876
 30
0.0
 10
1.183228
 20
0.758876
 30
0.0
 10
1.156373
 20
0.758876
 30
0.0
  0
SPLINE
  5
106
100
AcDbEntity
  8
Layer_1
 62
7
100
AcDbSpline
 70
8
 71
3
 72
8
 73
4
 74
0
 40
0
 40
0
 40
0
 40
0
 40
1
 40
1
 40
1
 40
1
 10
1.156373
 20
0.758876
 30
0.0
 10
1.128975
 20
0.758876
 30
0.0
 10
1.103475
 20
0.758325
 30
0.0
 10
1.077705
 20
0.745311
 30
0.0
  0
SPLINE
  5
107
100
AcDbEntity
  8
Layer_1
 62
7
100
AcDbSpline
 70
8
 71
3
 72
8
 73
4
 74
0
 40
0
 40
0
 40
0
 40
0
 40
1
 40
1
 40
1
 40
1
 10
1.077705
 20
0.745311
 30
0.0
 10
0.960518
 20
0.685633
 30
0.0
 10
1.003106
 20
0.508766
 30
0.0
 10
1.134400
 20
0.508766
 30
0.0
  0
SPLINE
  5
108
100
AcDbEntity
  8
Layer_1
 62
7
100
AcDbSpline
 70
8
 71
3
 72
8
 73
4
 74
0
 40
0
 40
0
 40
0
 40
0
 40
1
 40
1
 40
1
 40
1
 10
1.134400
 20
0.508766
 30
0.0
 10
2.866713
 20
0.508766
 30
0.0
 10
4.599027
 20
0.508766
 30
0.0
 10
6.331340
 20
0.508766
 30
0.0
  0
SPLINE
  5
109
100
AcDbEntity
  8
Layer_1
 62
7
100
AcDbSpline
 70
8
 71
3
 72
8
 73
4
 74
0
 40
0
 40
0
 40
0
 40
0
 40
1
 40
1
 40
1
 40
1
 10
6.331340
 20
0.508766
 30
0.0
 10
7.196683
 20
0.508766
 30
0.0
 10
8.062297
 20
0.508766
 30
0.0
 10
8.927911
 20
0.508766
 30
0.0
  0
SPLINE
  5
10a
100
AcDbEntity
  8
Layer_1
 62
7
100
AcDbSpline
 70
8
 71
3
 72
8
 73
4
 74
0
 40
0
 40
0
 40
0
 40
0
 40
1
 40
1
 40
1
 40
1
 10
8.927911
 20
0.508766
 30
0.0
 10
9.359498
 20
0.508766
 30
0.0
 10
9.790813
 20
0.508766
 30
0.0
 10
10.222399
 20
0.508766
 30
0.0
  0
SPLINE
  5
10b
100
AcDbEntity
  8
Layer_1
 62
7
100
AcDbSpline
 70
8
 71
3
 72
8
 73
4
 74
0
 40
0
 40
0
 40
0
 40
0
 40
1
 40
1
 40
1
 40
1
 10
10.222399
 20
0.508766
 30
0.0
 10
10.438328
 20
0.508766
 30
0.0
 10
10.653986
 20
0.508766
 30
0.0
 10
10.869914
 20
0.508766
 30
0.0
  0
SPLINE
  5
10c
100
AcDbEntity
  8
Layer_1
 62
7
100
AcDbSpline
 70
8
 71
3
 72
8
 73
4
 74
0
 40
0
 40
0
 40
0
 40
0
 40
1
 40
1
 40
1
 40
1
 10
10.869914
 20
0.508766
 30
0.0
 10
10.923625
 20
0.508766
 30
0.0
 10
10.977607
 20
0.508766
 30
0.0
 10
11.031590
 20
0.508766
 30
0.0
  0
SPLINE
  5
10d
100
AcDbEntity
  8
Layer_1
 62
7
100
AcDbSpline
 70
8
 71
3
 72
8
 73
4
 74
0
 40
0
 40
0
 40
0
 40
0
 40
1
 40
1
 40
1
 40
1
 10
11.031590
 20
0.508766
 30
0.0
 10
11.058716
 20
0.508766
 30
0.0
 10
11.085572
 20
0.508766
 30
0.0
 10
11.112428
 20
0.508766
 30
0.0
  0
SPLINE
  5
10e
100
AcDbEntity
  8
Layer_1
 62
7
100
AcDbSpline
 70
8
 71
3
 72
8
 73
4
 74
0
 40
0
 40
0
 40
0
 40
0
 40
1
 40
1
 40
1
 40
1
 10
11.112428
 20
0.508766
 30
0.0
 10
11.139826
 20
0.508766
 30
0.0
 10
11.165324
 20
0.509318
 30
0.0
 10
11.191095
 20
0.522601
 30
0.0
  0
SPLINE
  5
10f
100
AcDbEntity
  8
Layer_1
 62
7
100
AcDbSpline
 70
8
 71
3
 72
8
 73
4
 74
0
 40
0
 40
0
 40
0
 40
0
 40
1
 40
1
 40
1
 40
1
 10
11.191095
 20
0.522601
 30
0.0
 10
11.242365
 20
0.548643
 30
0.0
 10
11.269219
 20
0.605880
 30
0.0
 10
11.256200
 20
0.662033
 30
0.0
  0
SPLINE
  5
110
100
AcDbEntity
  8
Layer_1
 62
7
100
AcDbSpline
 70
8
 71
3
 72
8
 73
4
 74
0
 40
0
 40
0
 40
0
 40
0
 40
1
 40
1
 40
1
 40
1
 10
11.256200
 20
0.662033
 30
0.0
 10
11.249153
 20
0.692415
 30
0.0
 10
11.235584
 20
0.713845
 30
0.0
 10
11.210899
 20
0.732834
 30
0.0
  0
SPLINE
  5
111
100
AcDbEntity
  8
Layer_1
 62
7
100
AcDbSpline
 70
8
 71
3
 72
8
 73
4
 74
0
 40
0
 40
0
 40
0
 40
0
 40
1
 40
1
 40
1
 40
1
 10
11.210899
 20
0.732834
 30
0.0
 10
11.199225
 20
0.741784
 30
0.0
 10
11.187296
 20
0.748296
 30
0.0
 10
11.173192
 20
0.752636
 30
0.0
  0
SPLINE
  5
112
100
AcDbEntity
  8
Layer_1
 62
7
100
AcDbSpline
 70
8
 71
3
 72
8
 73
4
 74
0
 40
0
 40
0
 40
0
 40
0
 40
1
 40
1
 40
1
 40
1
 10
11.173192
 20
0.752636
 30
0.0
 10
11.166952
 20
0.754803
 30
0.0
 10
11.160436
 20
0.756435
 30
0.0
 10
11.153664
 20
0.757518
 30
0.0
  0
SPLINE
  5
113
100
AcDbEntity
  8
Layer_1
 62
7
100
AcDbSpline
 70
8
 71
3
 72
8
 73
4
 74
0
 40
0
 40
0
 40
0
 40
0
 40
1
 40
1
 40
1
 40
1
 10
11.153664
 20
0.757518
 30
0.0
 10
11.150397
 20
0.758069
 30
0.0
 10
11.147149
 20
0.758325
 30
0.0
 10
11.143901
 20
0.758600
 30
0.0
  0
SPLINE
  5
114
100
AcDbEntity
  8
Layer_1
 62
7
100
AcDbSpline
 70
8
 71
3
 72
8
 73
4
 74
0
 40
0
 40
0
 40
0
 40
0
 40
1
 40
1
 40
1
 40
1
 10
11.143901
 20
0.758600
 30
0.0
 10
11.142326
 20
0.758600
 30
0.0
 10
11.140633
 20
0.758876
 30
0.0
 10
11.139294
 20
0.758876
 30
0.0
  0
SPLINE
  5
115
100
AcDbEntity
  8
Layer_1
 62
7
100
AcDbSpline
 70
8
 71
3
 72
8
 73
4
 74
0
 40
0
 40
0
 40
0
 40
0
 40
1
 40
1
 40
1
 40
1
 10
11.139294
 20
0.758876
 30
0.0
 10
11.137719
 20
0.758876
 30
0.0
 10
11.131420
 20
0.758876
 30
0.0
 10
11.134412
 20
0.758876
 30
0.0
  0
SPLINE
  5
116
100
AcDbEntity
  8
Layer_1
 62
7
100
AcDbSpline
 70
8
 71
3
 72
8
 73
4
 74
0
 40
0
 40
0
 40
0
 40
0
 40
1
 40
1
 40
1
 40
1
 10
11.576294
 20
0.191927
 30
0.0
 10
11.673952
 20
0.289312
 30
0.0
 10
11.771336
 20
0.386697
 30
0.0
 10
11.868721
 20
0.484353
 30
0.0
  0
SPLINE
  5
117
100
AcDbEntity
  8
Layer_1
 62
7
100
AcDbSpline
 70
8
 71
3
 72
8
 73
4
 74
0
 40
0
 40
0
 40
0
 40
0
 40
1
 40
1
 40
1
 40
1
 10
11.868721
 20
0.484353
 30
0.0
 10
11.917548
 20
0.532910
 30
0.0
 10
11.966105
 20
0.581739
 30
0.0
 10
12.014934
 20
0.630295
 30
0.0
  0
SPLINE
  5
118
100
AcDbEntity
  8
Layer_1
 62
7
100
AcDbSpline
 70
8
 71
3
 72
8
 73
4
 74
0
 40
0
 40
0
 40
0
 40
0
 40
1
 40
1
 40
1
 40
1
 10
12.014934
 20
0.630295
 30
0.0
 10
12.063491
 20
0.679124
 30
0.0
 10
12.115302
 20
0.723882
 30
0.0
 10
12.157349
 20
0.779221
 30
0.0
  0
SPLINE
  5
119
100
AcDbEntity
  8
Layer_1
 62
7
100
AcDbSpline
 70
8
 71
3
 72
8
 73
4
 74
0
 40
0
 40
0
 40
0
 40
0
 40
1
 40
1
 40
1
 40
1
 10
12.157349
 20
0.779221
 30
0.0
 10
12.258261
 20
0.912142
 30
0.0
 10
12.259345
 20
1.019021
 30
0.0
 10
12.259345
 20
1.173373
 30
0.0
  0
SPLINE
  5
11a
100
AcDbEntity
  8
Layer_1
 62
7
100
AcDbSpline
 70
8
 71
3
 72
8
 73
4
 74
0
 40
0
 40
0
 40
0
 40
0
 40
1
 40
1
 40
1
 40
1
 10
12.259345
 20
1.173373
 30
0.0
 10
12.259345
 20
1.242274
 30
0.0
 10
12.259542
 20
1.311176
 30
0.0
 10
12.259542
 20
1.380078
 30
0.0
  0
SPLINE
  5
11b
100
AcDbEntity
  8
Layer_1
 62
7
100
AcDbSpline
 70
8
 71
3
 72
8
 73
4
 74
0
 40
0
 40
0
 40
0
 40
0
 40
1
 40
1
 40
1
 40
1
 10
12.259542
 20
1.380078
 30
0.0
 10
12.259542
 20
1.449794
 30
0.0
 10
12.264424
 20
1.514899
 30
0.0
 10
12.226719
 20
1.581359
 30
0.0
  0
SPLINE
  5
11c
100
AcDbEntity
  8
Layer_1
 62
7
100
AcDbSpline
 70
8
 71
3
 72
8
 73
4
 74
0
 40
0
 40
0
 40
0
 40
0
 40
1
 40
1
 40
1
 40
1
 10
12.226719
 20
1.581359
 30
0.0
 10
12.190097
 20
1.645649
 30
0.0
 10
12.126893
 20
1.690408
 30
0.0
 10
12.053922
 20
1.703701
 30
0.0
  0
SPLINE
  5
11d
100
AcDbEntity
  8
Layer_1
 62
7
100
AcDbSpline
 70
8
 71
3
 72
8
 73
4
 74
0
 40
0
 40
0
 40
0
 40
0
 40
1
 40
1
 40
1
 40
1
 10
12.053922
 20
1.703701
 30
0.0
 10
12.023269
 20
1.709124
 30
0.0
 10
11.880310
 20
1.707500
 30
0.0
 10
11.849656
 20
1.707500
 30
0.0
  0
SPLINE
  5
11e
100
AcDbEntity
  8
Layer_1
 62
7
100
AcDbSpline
 70
8
 71
3
 72
8
 73
4
 74
0
 40
0
 40
0
 40
0
 40
0
 40
1
 40
1
 40
1
 40
1
 10
11.849656
 20
1.707500
 30
0.0
 10
11.711853
 20
1.707500
 30
0.0
 10
11.574050
 20
1.707500
 30
0.0
 10
11.436247
 20
1.707500
 30
0.0
  0
SPLINE
  5
11f
100
AcDbEntity
  8
Layer_1
 62
7
100
AcDbSpline
 70
8
 71
3
 72
8
 73
4
 74
0
 40
0
 40
0
 40
0
 40
0
 40
1
 40
1
 40
1
 40
1
 10
11.436247
 20
1.707500
 30
0.0
 10
11.160639
 20
1.707500
 30
0.0
 10
10.885031
 20
1.707500
 30
0.0
 10
10.609423
 20
1.707500
 30
0.0
  0
SPLINE
  5
120
100
AcDbEntity
  8
Layer_1
 62
7
100
AcDbSpline
 70
8
 71
3
 72
8
 73
4
 74
0
 40
0
 40
0
 40
0
 40
0
 40
1
 40
1
 40
1
 40
1
 10
10.609423
 20
1.707500
 30
0.0
 10
9.502110
 20
1.707500
 30
0.0
 10
8.394796
 20
1.707500
 30
0.0
 10
7.287483
 20
1.707500
 30
0.0
  0
SPLINE
  5
121
100
AcDbEntity
  8
Layer_1
 62
7
100
AcDbSpline
 70
8
 71
3
 72
8
 73
4
 74
0
 40
0
 40
0
 40
0
 40
0
 40
1
 40
1
 40
1
 40
1
 10
7.287483
 20
1.707500
 30
0.0
 10
5.073399
 20
1.707500
 30
0.0
 10
2.859043
 20
1.707500
 30
0.0
 10
0.644688
 20
1.707500
 30
0.0
  0
SPLINE
  5
122
100
AcDbEntity
  8
Layer_1
 62
7
100
AcDbSpline
 70
8
 71
3
 72
8
 73
4
 74
0
 40
0
 40
0
 40
0
 40
0
 40
1
 40
1
 40
1
 40
1
 10
0.644688
 20
1.707500
 30
0.0
 10
0.575786
 20
1.707500
 30
0.0
 10
0.507155
 20
1.707500
 30
0.0
 10
0.438253
 20
1.707500
 30
0.0
  0
SPLINE
  5
123
100
AcDbEntity
  8
Layer_1
 62
7
100
AcDbSpline
 70
8
 71
3
 72
8
 73
4
 74
0
 40
0
 40
0
 40
0
 40
0
 40
1
 40
1
 40
1
 40
1
 10
0.438253
 20
1.707500
 30
0.0
 10
0.418994
 20
1.707500
 30
0.0
 10
0.252706
 20
1.708307
 30
0.0
 10
0.233446
 20
1.706142
 30
0.0
  0
SPLINE
  5
124
100
AcDbEntity
  8
Layer_1
 62
7
100
AcDbSpline
 70
8
 71
3
 72
8
 73
4
 74
0
 40
0
 40
0
 40
0
 40
0
 40
1
 40
1
 40
1
 40
1
 10
0.233446
 20
1.706142
 30
0.0
 10
0.160476
 20
1.698547
 30
0.0
 10
0.094558
 20
1.659212
 30
0.0
 10
0.053054
 20
1.598720
 30
0.0
  0
SPLINE
  5
125
100
AcDbEntity
  8
Layer_1
 62
7
100
AcDbSpline
 70
8
 71
3
 72
8
 73
4
 74
0
 40
0
 40
0
 40
0
 40
0
 40
1
 40
1
 40
1
 40
1
 10
0.053054
 20
1.598720
 30
0.0
 10
0.005311
 20
1.529004
 30
0.0
 10
0.009380
 20
1.476921
 30
0.0
 10
0.009380
 20
1.399610
 30
0.0
  0
SPLINE
  5
126
100
AcDbEntity
  8
Layer_1
 62
7
100
AcDbSpline
 70
8
 71
3
 72
8
 73
4
 74
0
 40
0
 40
0
 40
0
 40
0
 40
1
 40
1
 40
1
 40
1
 10
0.009380
 20
1.399610
 30
0.0
 10
0.009380
 20
1.330707
 30
0.0
 10
0.009380
 20
1.261805
 30
0.0
 10
0.009380
 20
1.192904
 30
0.0
  0
SPLINE
  5
127
100
AcDbEntity
  8
Layer_1
 62
7
100
AcDbSpline
 70
8
 71
3
 72
8
 73
4
 74
0
 40
0
 40
0
 40
0
 40
0
 40
1
 40
1
 40
1
 40
1
 10
0.009380
 20
1.192904
 30
0.0
 10
0.009380
 20
1.124273
 30
0.0
 10
0.005039
 20
1.056185
 30
0.0
 10
0.018332
 20
0.987283
 30
0.0
  0
SPLINE
  5
128
100
AcDbEntity
  8
Layer_1
 62
7
100
AcDbSpline
 70
8
 71
3
 72
8
 73
4
 74
0
 40
0
 40
0
 40
0
 40
0
 40
1
 40
1
 40
1
 40
1
 10
0.018332
 20
0.987283
 30
0.0
 10
0.050342
 20
0.822081
 30
0.0
 10
0.130366
 20
0.753993
 30
0.0
 10
0.239687
 20
0.644673
 30
0.0
  0
SPLINE
  5
129
100
AcDbEntity
  8
Layer_1
 62
7
100
AcDbSpline
 70
8
 71
3
 72
8
 73
4
 74
0
 40
0
 40
0
 40
0
 40
0
 40
1
 40
1
 40
1
 40
1
 10
0.239687
 20
0.644673
 30
0.0
 10
0.337072
 20
0.547287
 30
0.0
 10
0.434457
 20
0.450173
 30
0.0
 10
0.531842
 20
0.352789
 30
0.0
  0
SPLINE
  5
12a
100
AcDbEntity
  8
Layer_1
 62
7
100
AcDbSpline
 70
8
 71
3
 72
8
 73
4
 74
0
 40
0
 40
0
 40
0
 40
0
 40
1
 40
1
 40
1
 40
1
 10
0.531842
 20
0.352789
 30
0.0
 10
0.580398
 20
0.303961
 30
0.0
 10
0.628955
 20
0.255404
 30
0.0
 10
0.677783
 20
0.206576
 30
0.0
  0
SPLINE
  5
12b
100
AcDbEntity
  8
Layer_1
 62
7
100
AcDbSpline
 70
8
 71
3
 72
8
 73
4
 74
0
 40
0
 40
0
 40
0
 40
0
 40
1
 40
1
 40
1
 40
1
 10
0.677783
 20
0.206576
 30
0.0
 10
0.727154
 20
0.157205
 30
0.0
 10
0.779237
 20
0.114616
 30
0.0
 10
0.841629
 20
0.081793
 30
0.0
  0
SPLINE
  5
12c
100
AcDbEntity
  8
Layer_1
 62
7
100
AcDbSpline
 70
8
 71
3
 72
8
 73
4
 74
0
 40
0
 40
0
 40
0
 40
0
 40
1
 40
1
 40
1
 40
1
 10
0.841629
 20
0.081793
 30
0.0
 10
0.988385
 20
0.003939
 30
0.0
 10
1.088482
 20
0.008822
 30
0.0
 10
1.245546
 20
0.008822
 30
0.0
  0
SPLINE
  5
12d
100
AcDbEntity
  8
Layer_1
 62
7
100
AcDbSpline
 70
8
 71
3
 72
8
 73
4
 74
0
 40
0
 40
0
 40
0
 40
0
 40
1
 40
1
 40
1
 40
1
 10
1.245546
 20
0.008822
 30
0.0
 10
1.383079
 20
0.008822
 30
0.0
 10
1.520882
 20
0.008822
 30
0.0
 10
1.658415
 20
0.008822
 30
0.0
  0
SPLINE
  5
12e
100
AcDbEntity
  8
Layer_1
 62
7
100
AcDbSpline
 70
8
 71
3
 72
8
 73
4
 74
0
 40
0
 40
0
 40
0
 40
0
 40
1
 40
1
 40
1
 40
1
 10
1.658415
 20
0.008822
 30
0.0
 10
2.766271
 20
0.008822
 30
0.0
 10
3.873856
 20
0.008822
 30
0.0
 10
4.981712
 20
0.008822
 30
0.0
  0
SPLINE
  5
12f
100
AcDbEntity
  8
Layer_1
 62
7
100
AcDbSpline
 70
8
 71
3
 72
8
 73
4
 74
0
 40
0
 40
0
 40
0
 40
0
 40
1
 40
1
 40
1
 40
1
 10
4.981712
 20
0.008822
 30
0.0
 10
6.088754
 20
0.008822
 30
0.0
 10
7.195796
 20
0.008822
 30
0.0
 10
8.303109
 20
0.008822
 30
0.0
  0
SPLINE
  5
130
100
AcDbEntity
  8
Layer_1
 62
7
100
AcDbSpline
 70
8
 71
3
 72
8
 73
4
 74
0
 40
0
 40
0
 40
0
 40
0
 40
1
 40
1
 40
1
 40
1
 10
8.303109
 20
0.008822
 30
0.0
 10
8.856223
 20
0.008822
 30
0.0
 10
9.409337
 20
0.008822
 30
0.0
 10
9.962723
 20
0.008822
 30
0.0
  0
SPLINE
  5
131
100
AcDbEntity
  8
Layer_1
 62
7
100
AcDbSpline
 70
8
 71
3
 72
8
 73
4
 74
0
 40
0
 40
0
 40
0
 40
0
 40
1
 40
1
 40
1
 40
1
 10
9.962723
 20
0.008822
 30
0.0
 10
10.239144
 20
0.008822
 30
0.0
 10
10.515837
 20
0.008822
 30
0.0
 10
10.792258
 20
0.008822
 30
0.0
  0
SPLINE
  5
132
100
AcDbEntity
  8
Layer_1
 62
7
100
AcDbSpline
 70
8
 71
3
 72
8
 73
4
 74
0
 40
0
 40
0
 40
0
 40
0
 40
1
 40
1
 40
1
 40
1
 10
10.792258
 20
0.008822
 30
0.0
 10
10.840544
 20
0.008822
 30
0.0
 10
11.157926
 20
0.007464
 30
0.0
 10
11.206485
 20
0.013163
 30
0.0
  0
SPLINE
  5
133
100
AcDbEntity
  8
Layer_1
 62
7
100
AcDbSpline
 70
8
 71
3
 72
8
 73
4
 74
0
 40
0
 40
0
 40
0
 40
0
 40
1
 40
1
 40
1
 40
1
 10
11.206485
 20
0.013163
 30
0.0
 10
11.346458
 20
0.029438
 30
0.0
 10
11.476664
 20
0.092372
 30
0.0
 10
11.576221
 20
0.191927
 30
0.0
  0
LWPOLYLINE
  5
134
100
AcDbEntity
  8
Layer_1
 62
7
100
AcDbPolyline
 90
1
 70
1
 10
11.134412
 20
0.758876
 30
0.0
  0
LWPOLYLINE
  5
135
100
AcDbEntity
  8
Layer_1
 62
7
100
AcDbPolyline
 90
1
 70
1
 10
11.576221
 20
0.191927
 30
0.0
  0
ENDSEC
  0
SECTION
  2
OBJECTS
  0
DICTIONARY
  5
C
330
0
100
AcDbDictionary
  3
ACAD_GROUP
350
D
  3
ACAD_MLINESTYLE
350
17
  0
DICTIONARY
  5
D
330
C
100
AcDbDictionary
  0
DICTIONARY
  5
1A
330
C
100
AcDbDictionary
  0
DICTIONARY
  5
17
330
C
100
AcDbDictionary
  3
STANDARD
350
18
  0
DICTIONARY
  5
19
330
C
100
AcDbDictionary
  0
ENDSEC
  0
EOF
