  0
SECTION
  2
HEADER
  9
$ACADVER
  1
AC1014
  9
$HANDSEED
  5
FFFF
  9
$MEASUREMENT
 70
     1
  0
ENDSEC
  0
SECTION
  2
TABLES
  0
TABLE
  2
VPORT
  5
8
330
0
100
AcDbSymbolTable
 70
     4
  0
VPORT
  5
2E
330
8
100
AcDbSymbolTableRecord
100
AcDbViewportTableRecord
  2
*ACTIVE
 70
     0
 10
0.0
 20
0.0
 11
1.0
 21
1.0
 12
210.0
 22
148.5
 13
0.0
 23
0.0
 14
10.0
 24
10.0
 15
10.0
 25
10.0
 16
0.0
 26
0.0
 36
1.0
 17
0.0
 27
0.0
 37
0.0
 40
341.0
 41
1.24
 42
50.0
 43
0.0
 44
0.0
 50
0.0
 51
0.0
 71
     0
 72
   100
 73
     1
 74
     3
 75
     0
 76
     0
 77
     0
 78
     0
  0
ENDTAB
  0
TABLE
  2
LTYPE
  5
5
330
0
100
AcDbSymbolTable
 70
     1
  0
LTYPE
  5
14
330
5
100
AcDbSymbolTableRecord
100
AcDbLinetypeTableRecord
  2
BYBLOCK
 70
     0
  3

 72
    65
 73
     0
 40
0.0
  0
LTYPE
  5
15
330
5
100
AcDbSymbolTableRecord
100
AcDbLinetypeTableRecord
  2
BYLAYER
 70
     0
  3

 72
    65
 73
     0
 40
0.0
  0
LTYPE
  5
16
330
5
100
AcDbSymbolTableRecord
100
AcDbLinetypeTableRecord
  2
CONTINUOUS
 70
     0
  3
Solid line
 72
    65
 73
     0
 40
0.0
  0
ENDTAB
  0
TABLE
  2
LAYER
  5
2
100
AcDbSymbolTable
 70
2
  0
LAYER
  5
50
100
AcDbSymbolTableRecord
100
AcDbLayerTableRecord
  2
0
 70
0
  6
CONTINUOUS
  0
LAYER
  5
51
100
AcDbSymbolTableRecord
100
AcDbLayerTableRecord
  2
Layer_1
 70
0
  6
CONTINUOUS
  0
ENDTAB
  0
TABLE
  2
STYLE
  5
3
330
0
100
AcDbSymbolTable
 70
     1
  0
STYLE
  5
11
330
3
100
AcDbSymbolTableRecord
100
AcDbTextStyleTableRecord
  2
STANDARD
 70
     0
 40
0.0
 41
1.0
 50
0.0
 71
     0
 42
2.5
  3
txt
  4

  0
ENDTAB
  0
TABLE
  2
VIEW
  5
6
330
0
100
AcDbSymbolTable
 70
     0
  0
ENDTAB
  0
TABLE
  2
UCS
  5
7
330
0
100
AcDbSymbolTable
 70
     0
  0
ENDTAB
  0
TABLE
  2
APPID
  5
9
330
0
100
AcDbSymbolTable
 70
     2
  0
APPID
  5
12
330
9
100
AcDbSymbolTableRecord
100
AcDbRegAppTableRecord
  2
ACAD
 70
     0
  0
ENDTAB
  0
TABLE
  2
DIMSTYLE
  5
A
330
0
100
AcDbSymbolTable
 70
     1
  0
DIMSTYLE
105
27
330
A
100
AcDbSymbolTableRecord
100
AcDbDimStyleTableRecord
  2
ISO-25
 70
     0
  3

  4

  5

  6

  7

 40
1.0
 41
2.5
 42
0.625
 43
3.75
 44
1.25
 45
0.0
 46
0.0
 47
0.0
 48
0.0
140
2.5
141
2.5
142
0.0
143
0.03937007874016
144
1.0
145
0.0
146
1.0
147
0.625
 71
     0
 72
     0
 73
     0
 74
     0
 75
     0
 76
     0
 77
     1
 78
     8
170
     0
171
     3
172
     1
173
     0
174
     0
175
     0
176
     0
177
     0
178
     0
270
     2
271
     2
272
     2
273
     2
274
     3
340
11
275
     0
280
     0
281
     0
282
     0
283
     0
284
     8
285
     0
286
     0
287
     3
288
     0
  0
ENDTAB
  0
TABLE
  2
BLOCK_RECORD
  5
1
330
0
100
AcDbSymbolTable
 70
     1
  0
BLOCK_RECORD
  5
1F
330
1
100
AcDbSymbolTableRecord
100
AcDbBlockTableRecord
  2
*MODEL_SPACE
  0
BLOCK_RECORD
  5
1B
330
1
100
AcDbSymbolTableRecord
100
AcDbBlockTableRecord
  2
*PAPER_SPACE
  0
ENDTAB
  0
ENDSEC
  0
SECTION
  2
BLOCKS
  0
BLOCK
  5
20
330
1F
100
AcDbEntity
  8
0
100
AcDbBlockBegin
  2
*MODEL_SPACE
 70
     0
 10
0.0
 20
0.0
 30
0.0
  3
*MODEL_SPACE
  1

  0
ENDBLK
  5
21
330
1F
100
AcDbEntity
  8
0
100
AcDbBlockEnd
  0
BLOCK
  5
1C
330
1B
100
AcDbEntity
 67
     1
  8
0
100
AcDbBlockBegin
  2
*PAPER_SPACE
  1

  0
ENDBLK
  5
1D
330
1B
100
AcDbEntity
 67
     1
  8
0
100
AcDbBlockEnd
  0
ENDSEC
  0
SECTION
  2
ENTITIES
  0
SPLINE
  5
100
100
AcDbEntity
  8
Layer_1
 62
7
100
AcDbSpline
 70
8
 71
3
 72
8
 73
4
 74
0
 40
0
 40
0
 40
0
 40
0
 40
1
 40
1
 40
1
 40
1
 10
6.883488
 20
0.221545
 30
0.0
 10
6.905190
 20
0.221545
 30
0.0
 10
6.925806
 20
0.225620
 30
0.0
 10
6.947236
 20
0.213947
 30
0.0
  0
SPLINE
  5
101
100
AcDbEntity
  8
Layer_1
 62
7
100
AcDbSpline
 70
8
 71
3
 72
8
 73
4
 74
0
 40
0
 40
0
 40
0
 40
0
 40
1
 40
1
 40
1
 40
1
 10
6.947236
 20
0.213947
 30
0.0
 10
6.969752
 20
0.201742
 30
0.0
 10
6.978974
 20
0.186821
 30
0.0
 10
6.979788
 20
0.161049
 30
0.0
  0
SPLINE
  5
102
100
AcDbEntity
  8
Layer_1
 62
7
100
AcDbSpline
 70
8
 71
3
 72
8
 73
4
 74
0
 40
0
 40
0
 40
0
 40
0
 40
1
 40
1
 40
1
 40
1
 10
6.979788
 20
0.161049
 30
0.0
 10
6.980871
 20
0.123073
 30
0.0
 10
6.932317
 20
0.076685
 30
0.0
 10
6.907631
 20
0.058512
 30
0.0
  0
SPLINE
  5
103
100
AcDbEntity
  8
Layer_1
 62
7
100
AcDbSpline
 70
8
 71
3
 72
8
 73
4
 74
0
 40
0
 40
0
 40
0
 40
0
 40
1
 40
1
 40
1
 40
1
 10
6.907631
 20
0.058512
 30
0.0
 10
6.827065
 20
-0.001168
 30
0.0
 10
6.746227
 20
0.009411
 30
0.0
 10
6.658337
 20
0.009411
 30
0.0
  0
SPLINE
  5
104
100
AcDbEntity
  8
Layer_1
 62
7
100
AcDbSpline
 70
8
 71
3
 72
8
 73
4
 74
0
 40
0
 40
0
 40
0
 40
0
 40
1
 40
1
 40
1
 40
1
 10
6.658337
 20
0.009411
 30
0.0
 10
6.486624
 20
0.009411
 30
0.0
 10
6.314912
 20
0.009411
 30
0.0
 10
6.143471
 20
0.009411
 30
0.0
  0
SPLINE
  5
105
100
AcDbEntity
  8
Layer_1
 62
7
100
AcDbSpline
 70
8
 71
3
 72
8
 73
4
 74
0
 40
0
 40
0
 40
0
 40
0
 40
1
 40
1
 40
1
 40
1
 10
6.143471
 20
0.009411
 30
0.0
 10
5.800047
 20
0.009411
 30
0.0
 10
5.456622
 20
0.009411
 30
0.0
 10
5.113469
 20
0.009411
 30
0.0
  0
SPLINE
  5
106
100
AcDbEntity
  8
Layer_1
 62
7
100
AcDbSpline
 70
8
 71
3
 72
8
 73
4
 74
0
 40
0
 40
0
 40
0
 40
0
 40
1
 40
1
 40
1
 40
1
 10
5.113469
 20
0.009411
 30
0.0
 10
4.424721
 20
0.009411
 30
0.0
 10
3.735973
 20
0.009411
 30
0.0
 10
3.046954
 20
0.009411
 30
0.0
  0
SPLINE
  5
107
100
AcDbEntity
  8
Layer_1
 62
7
100
AcDbSpline
 70
8
 71
3
 72
8
 73
4
 74
0
 40
0
 40
0
 40
0
 40
0
 40
1
 40
1
 40
1
 40
1
 10
3.046954
 20
0.009411
 30
0.0
 10
2.357664
 20
0.009411
 30
0.0
 10
1.668645
 20
0.009411
 30
0.0
 10
0.979354
 20
0.009411
 30
0.0
  0
SPLINE
  5
108
100
AcDbEntity
  8
Layer_1
 62
7
100
AcDbSpline
 70
8
 71
3
 72
8
 73
4
 74
0
 40
0
 40
0
 40
0
 40
0
 40
1
 40
1
 40
1
 40
1
 10
0.979354
 20
0.009411
 30
0.0
 10
0.808185
 20
0.009411
 30
0.0
 10
0.637015
 20
0.009411
 30
0.0
 10
0.466116
 20
0.009411
 30
0.0
  0
SPLINE
  5
109
100
AcDbEntity
  8
Layer_1
 62
7
100
AcDbSpline
 70
8
 71
3
 72
8
 73
4
 74
0
 40
0
 40
0
 40
0
 40
0
 40
1
 40
1
 40
1
 40
1
 10
0.466116
 20
0.009411
 30
0.0
 10
0.433836
 20
0.009411
 30
0.0
 10
0.244491
 20
0.007836
 30
0.0
 10
0.211939
 20
0.013762
 30
0.0
  0
SPLINE
  5
10a
100
AcDbEntity
  8
Layer_1
 62
7
100
AcDbSpline
 70
8
 71
3
 72
8
 73
4
 74
0
 40
0
 40
0
 40
0
 40
0
 40
1
 40
1
 40
1
 40
1
 10
0.211939
 20
0.013762
 30
0.0
 10
0.120793
 20
0.031399
 30
0.0
 10
0.047008
 20
0.097582
 30
0.0
 10
0.019882
 20
0.186015
 30
0.0
  0
SPLINE
  5
10b
100
AcDbEntity
  8
Layer_1
 62
7
100
AcDbSpline
 70
8
 71
3
 72
8
 73
4
 74
0
 40
0
 40
0
 40
0
 40
0
 40
1
 40
1
 40
1
 40
1
 10
0.019882
 20
0.186015
 30
0.0
 10
0.007132
 20
0.227791
 30
0.0
 10
0.008760
 20
0.269023
 30
0.0
 10
0.008760
 20
0.311342
 30
0.0
  0
SPLINE
  5
10c
100
AcDbEntity
  8
Layer_1
 62
7
100
AcDbSpline
 70
8
 71
3
 72
8
 73
4
 74
0
 40
0
 40
0
 40
0
 40
0
 40
1
 40
1
 40
1
 40
1
 10
0.008760
 20
0.311342
 30
0.0
 10
0.008760
 20
0.353931
 30
0.0
 10
0.008760
 20
0.396791
 30
0.0
 10
0.008760
 20
0.439380
 30
0.0
  0
SPLINE
  5
10d
100
AcDbEntity
  8
Layer_1
 62
7
100
AcDbSpline
 70
8
 71
3
 72
8
 73
4
 74
0
 40
0
 40
0
 40
0
 40
0
 40
1
 40
1
 40
1
 40
1
 10
0.008760
 20
0.439380
 30
0.0
 10
0.008760
 20
0.525100
 30
0.0
 10
0.008760
 20
0.610549
 30
0.0
 10
0.008760
 20
0.696000
 30
0.0
  0
SPLINE
  5
10e
100
AcDbEntity
  8
Layer_1
 62
7
100
AcDbSpline
 70
8
 71
3
 72
8
 73
4
 74
0
 40
0
 40
0
 40
0
 40
0
 40
1
 40
1
 40
1
 40
1
 10
0.008760
 20
0.696000
 30
0.0
 10
0.008760
 20
0.867169
 30
0.0
 10
0.008760
 20
1.038338
 30
0.0
 10
0.008760
 20
1.209508
 30
0.0
  0
SPLINE
  5
10f
100
AcDbEntity
  8
Layer_1
 62
7
100
AcDbSpline
 70
8
 71
3
 72
8
 73
4
 74
0
 40
0
 40
0
 40
0
 40
0
 40
1
 40
1
 40
1
 40
1
 10
0.008760
 20
1.209508
 30
0.0
 10
0.008760
 20
1.251825
 30
0.0
 10
0.007675
 20
1.293059
 30
0.0
 10
0.020967
 20
1.334832
 30
0.0
  0
SPLINE
  5
110
100
AcDbEntity
  8
Layer_1
 62
7
100
AcDbSpline
 70
8
 71
3
 72
8
 73
4
 74
0
 40
0
 40
0
 40
0
 40
0
 40
1
 40
1
 40
1
 40
1
 10
0.020967
 20
1.334832
 30
0.0
 10
0.035886
 20
1.380677
 30
0.0
 10
0.059487
 20
1.415671
 30
0.0
 10
0.096108
 20
1.447409
 30
0.0
  0
SPLINE
  5
111
100
AcDbEntity
  8
Layer_1
 62
7
100
AcDbSpline
 70
8
 71
3
 72
8
 73
4
 74
0
 40
0
 40
0
 40
0
 40
0
 40
1
 40
1
 40
1
 40
1
 10
0.096108
 20
1.447409
 30
0.0
 10
0.173148
 20
1.513598
 30
0.0
 10
0.252900
 20
1.507632
 30
0.0
 10
0.342147
 20
1.507632
 30
0.0
  0
SPLINE
  5
112
100
AcDbEntity
  8
Layer_1
 62
7
100
AcDbSpline
 70
8
 71
3
 72
8
 73
4
 74
0
 40
0
 40
0
 40
0
 40
0
 40
1
 40
1
 40
1
 40
1
 10
0.342147
 20
1.507632
 30
0.0
 10
0.513588
 20
1.507632
 30
0.0
 10
0.685029
 20
1.507632
 30
0.0
 10
0.856470
 20
1.507632
 30
0.0
  0
SPLINE
  5
113
100
AcDbEntity
  8
Layer_1
 62
7
100
AcDbSpline
 70
8
 71
3
 72
8
 73
4
 74
0
 40
0
 40
0
 40
0
 40
0
 40
1
 40
1
 40
1
 40
1
 10
0.856470
 20
1.507632
 30
0.0
 10
1.199352
 20
1.507632
 30
0.0
 10
1.541963
 20
1.507632
 30
0.0
 10
1.884845
 20
1.507632
 30
0.0
  0
SPLINE
  5
114
100
AcDbEntity
  8
Layer_1
 62
7
100
AcDbSpline
 70
8
 71
3
 72
8
 73
4
 74
0
 40
0
 40
0
 40
0
 40
0
 40
1
 40
1
 40
1
 40
1
 10
1.884845
 20
1.507632
 30
0.0
 10
2.573321
 20
1.507632
 30
0.0
 10
3.261798
 20
1.507632
 30
0.0
 10
3.950274
 20
1.507632
 30
0.0
  0
SPLINE
  5
115
100
AcDbEntity
  8
Layer_1
 62
7
100
AcDbSpline
 70
8
 71
3
 72
8
 73
4
 74
0
 40
0
 40
0
 40
0
 40
0
 40
1
 40
1
 40
1
 40
1
 10
3.950274
 20
1.507632
 30
0.0
 10
4.294784
 20
1.507632
 30
0.0
 10
4.639022
 20
1.507632
 30
0.0
 10
4.983532
 20
1.507632
 30
0.0
  0
SPLINE
  5
116
100
AcDbEntity
  8
Layer_1
 62
7
100
AcDbSpline
 70
8
 71
3
 72
8
 73
4
 74
0
 40
0
 40
0
 40
0
 40
0
 40
1
 40
1
 40
1
 40
1
 10
4.983532
 20
1.507632
 30
0.0
 10
5.155787
 20
1.507632
 30
0.0
 10
5.328041
 20
1.507632
 30
0.0
 10
5.500296
 20
1.507632
 30
0.0
  0
SPLINE
  5
117
100
AcDbEntity
  8
Layer_1
 62
7
100
AcDbSpline
 70
8
 71
3
 72
8
 73
4
 74
0
 40
0
 40
0
 40
0
 40
0
 40
1
 40
1
 40
1
 40
1
 10
5.500296
 20
1.507632
 30
0.0
 10
5.586288
 20
1.507632
 30
0.0
 10
5.672551
 20
1.507632
 30
0.0
 10
5.758543
 20
1.507632
 30
0.0
  0
SPLINE
  5
118
100
AcDbEntity
  8
Layer_1
 62
7
100
AcDbSpline
 70
8
 71
3
 72
8
 73
4
 74
0
 40
0
 40
0
 40
0
 40
0
 40
1
 40
1
 40
1
 40
1
 10
5.758543
 20
1.507632
 30
0.0
 10
5.801674
 20
1.507632
 30
0.0
 10
5.844806
 20
1.507632
 30
0.0
 10
5.887937
 20
1.507632
 30
0.0
  0
SPLINE
  5
119
100
AcDbEntity
  8
Layer_1
 62
7
100
AcDbSpline
 70
8
 71
3
 72
8
 73
4
 74
0
 40
0
 40
0
 40
0
 40
0
 40
1
 40
1
 40
1
 40
1
 10
5.887937
 20
1.507632
 30
0.0
 10
5.931340
 20
1.507632
 30
0.0
 10
5.973115
 20
1.507041
 30
0.0
 10
6.015162
 20
1.491076
 30
0.0
  0
SPLINE
  5
11a
100
AcDbEntity
  8
Layer_1
 62
7
100
AcDbSpline
 70
8
 71
3
 72
8
 73
4
 74
0
 40
0
 40
0
 40
0
 40
0
 40
1
 40
1
 40
1
 40
1
 10
6.015162
 20
1.491076
 30
0.0
 10
6.055581
 20
1.475624
 30
0.0
 10
6.092202
 20
1.453641
 30
0.0
 10
6.130179
 20
1.434112
 30
0.0
  0
SPLINE
  5
11b
100
AcDbEntity
  8
Layer_1
 62
7
100
AcDbSpline
 70
8
 71
3
 72
8
 73
4
 74
0
 40
0
 40
0
 40
0
 40
0
 40
1
 40
1
 40
1
 40
1
 10
6.130179
 20
1.434112
 30
0.0
 10
6.168428
 20
1.414584
 30
0.0
 10
6.206405
 20
1.395321
 30
0.0
 10
6.244654
 20
1.375789
 30
0.0
  0
SPLINE
  5
11c
100
AcDbEntity
  8
Layer_1
 62
7
100
AcDbSpline
 70
8
 71
3
 72
8
 73
4
 74
0
 40
0
 40
0
 40
0
 40
0
 40
1
 40
1
 40
1
 40
1
 10
6.244654
 20
1.375789
 30
0.0
 10
6.320880
 20
1.336998
 30
0.0
 10
6.397106
 20
1.298206
 30
0.0
 10
6.473332
 20
1.259415
 30
0.0
  0
SPLINE
  5
11d
100
AcDbEntity
  8
Layer_1
 62
7
100
AcDbSpline
 70
8
 71
3
 72
8
 73
4
 74
0
 40
0
 40
0
 40
0
 40
0
 40
1
 40
1
 40
1
 40
1
 10
6.473332
 20
1.259415
 30
0.0
 10
6.549558
 20
1.220352
 30
0.0
 10
6.625784
 20
1.181561
 30
0.0
 10
6.702011
 20
1.142769
 30
0.0
  0
SPLINE
  5
11e
100
AcDbEntity
  8
Layer_1
 62
7
100
AcDbSpline
 70
8
 71
3
 72
8
 73
4
 74
0
 40
0
 40
0
 40
0
 40
0
 40
1
 40
1
 40
1
 40
1
 10
6.702011
 20
1.142769
 30
0.0
 10
6.739988
 20
1.123242
 30
0.0
 10
6.778237
 20
1.103980
 30
0.0
 10
6.816214
 20
1.084449
 30
0.0
  0
SPLINE
  5
11f
100
AcDbEntity
  8
Layer_1
 62
7
100
AcDbSpline
 70
8
 71
3
 72
8
 73
4
 74
0
 40
0
 40
0
 40
0
 40
0
 40
1
 40
1
 40
1
 40
1
 10
6.816214
 20
1.084449
 30
0.0
 10
6.854463
 20
1.065177
 30
0.0
 10
6.893254
 20
1.048639
 30
0.0
 10
6.926077
 20
1.019073
 30
0.0
  0
SPLINE
  5
120
100
AcDbEntity
  8
Layer_1
 62
7
100
AcDbSpline
 70
8
 71
3
 72
8
 73
4
 74
0
 40
0
 40
0
 40
0
 40
0
 40
1
 40
1
 40
1
 40
1
 10
6.926077
 20
1.019073
 30
0.0
 10
6.984943
 20
0.966175
 30
0.0
 10
7.037026
 20
0.863636
 30
0.0
 10
6.979788
 20
0.788224
 30
0.0
  0
SPLINE
  5
121
100
AcDbEntity
  8
Layer_1
 62
7
100
AcDbSpline
 70
8
 71
3
 72
8
 73
4
 74
0
 40
0
 40
0
 40
0
 40
0
 40
1
 40
1
 40
1
 40
1
 10
6.979788
 20
0.788224
 30
0.0
 10
6.966767
 20
0.771138
 30
0.0
 10
6.951306
 20
0.756486
 30
0.0
 10
6.936657
 20
0.741023
 30
0.0
  0
SPLINE
  5
122
100
AcDbEntity
  8
Layer_1
 62
7
100
AcDbSpline
 70
8
 71
3
 72
8
 73
4
 74
0
 40
0
 40
0
 40
0
 40
0
 40
1
 40
1
 40
1
 40
1
 10
6.936657
 20
0.741023
 30
0.0
 10
6.922009
 20
0.725295
 30
0.0
 10
6.907631
 20
0.709557
 30
0.0
 10
6.892983
 20
0.694094
 30
0.0
  0
SPLINE
  5
123
100
AcDbEntity
  8
Layer_1
 62
7
100
AcDbSpline
 70
8
 71
3
 72
8
 73
4
 74
0
 40
0
 40
0
 40
0
 40
0
 40
1
 40
1
 40
1
 40
1
 10
6.892983
 20
0.694094
 30
0.0
 10
6.863957
 20
0.662897
 30
0.0
 10
6.834660
 20
0.631431
 30
0.0
 10
6.805363
 20
0.600236
 30
0.0
  0
SPLINE
  5
124
100
AcDbEntity
  8
Layer_1
 62
7
100
AcDbSpline
 70
8
 71
3
 72
8
 73
4
 74
0
 40
0
 40
0
 40
0
 40
0
 40
1
 40
1
 40
1
 40
1
 10
6.805363
 20
0.600236
 30
0.0
 10
6.745143
 20
0.535403
 30
0.0
 10
6.681937
 20
0.487116
 30
0.0
 10
6.698213
 20
0.380238
 30
0.0
  0
SPLINE
  5
125
100
AcDbEntity
  8
Layer_1
 62
7
100
AcDbSpline
 70
8
 71
3
 72
8
 73
4
 74
0
 40
0
 40
0
 40
0
 40
0
 40
1
 40
1
 40
1
 40
1
 10
6.698213
 20
0.380238
 30
0.0
 10
6.705807
 20
0.331409
 30
0.0
 10
6.725340
 20
0.297230
 30
0.0
 10
6.763046
 20
0.265492
 30
0.0
  0
SPLINE
  5
126
100
AcDbEntity
  8
Layer_1
 62
7
100
AcDbSpline
 70
8
 71
3
 72
8
 73
4
 74
0
 40
0
 40
0
 40
0
 40
0
 40
1
 40
1
 40
1
 40
1
 10
6.763046
 20
0.265492
 30
0.0
 10
6.780949
 20
0.250571
 30
0.0
 10
6.799938
 20
0.239720
 30
0.0
 10
6.821910
 20
0.232126
 30
0.0
  0
SPLINE
  5
127
100
AcDbEntity
  8
Layer_1
 62
7
100
AcDbSpline
 70
8
 71
3
 72
8
 73
4
 74
0
 40
0
 40
0
 40
0
 40
0
 40
1
 40
1
 40
1
 40
1
 10
6.821910
 20
0.232126
 30
0.0
 10
6.832219
 20
0.228602
 30
0.0
 10
6.842527
 20
0.225886
 30
0.0
 10
6.853106
 20
0.223996
 30
0.0
  0
SPLINE
  5
128
100
AcDbEntity
  8
Layer_1
 62
7
100
AcDbSpline
 70
8
 71
3
 72
8
 73
4
 74
0
 40
0
 40
0
 40
0
 40
0
 40
1
 40
1
 40
1
 40
1
 10
6.853106
 20
0.223996
 30
0.0
 10
6.858260
 20
0.223208
 30
0.0
 10
6.863415
 20
0.222618
 30
0.0
 10
6.868569
 20
0.222027
 30
0.0
  0
SPLINE
  5
129
100
AcDbEntity
  8
Layer_1
 62
7
100
AcDbSpline
 70
8
 71
3
 72
8
 73
4
 74
0
 40
0
 40
0
 40
0
 40
0
 40
1
 40
1
 40
1
 40
1
 10
6.868569
 20
0.222027
 30
0.0
 10
6.871014
 20
0.222027
 30
0.0
 10
6.873722
 20
0.221830
 30
0.0
 10
6.876163
 20
0.221830
 30
0.0
  0
SPLINE
  5
12a
100
AcDbEntity
  8
Layer_1
 62
7
100
AcDbSpline
 70
8
 71
3
 72
8
 73
4
 74
0
 40
0
 40
0
 40
0
 40
0
 40
1
 40
1
 40
1
 40
1
 10
6.876163
 20
0.221830
 30
0.0
 10
6.877522
 20
0.221634
 30
0.0
 10
6.878608
 20
0.221634
 30
0.0
 10
6.879963
 20
0.221634
 30
0.0
  0
SPLINE
  5
12b
100
AcDbEntity
  8
Layer_1
 62
7
100
AcDbSpline
 70
8
 71
3
 72
8
 73
4
 74
0
 40
0
 40
0
 40
0
 40
0
 40
1
 40
1
 40
1
 40
1
 10
6.879963
 20
0.221634
 30
0.0
 10
6.881321
 20
0.221634
 30
0.0
 10
6.886199
 20
0.221830
 30
0.0
 10
6.883490
 20
0.221634
 30
0.0
  0
SPLINE
  5
12c
100
AcDbEntity
  8
Layer_1
 62
7
100
AcDbSpline
 70
8
 71
3
 72
8
 73
4
 74
0
 40
0
 40
0
 40
0
 40
0
 40
1
 40
1
 40
1
 40
1
 10
1.165173
 20
0.509362
 30
0.0
 10
1.165173
 20
0.423098
 30
0.0
 10
1.095185
 20
0.353112
 30
0.0
 10
1.008922
 20
0.353112
 30
0.0
  0
SPLINE
  5
12d
100
AcDbEntity
  8
Layer_1
 62
7
100
AcDbSpline
 70
8
 71
3
 72
8
 73
4
 74
0
 40
0
 40
0
 40
0
 40
0
 40
1
 40
1
 40
1
 40
1
 10
1.008922
 20
0.353112
 30
0.0
 10
0.922659
 20
0.353112
 30
0.0
 10
0.852672
 20
0.423098
 30
0.0
 10
0.852672
 20
0.509362
 30
0.0
  0
SPLINE
  5
12e
100
AcDbEntity
  8
Layer_1
 62
7
100
AcDbSpline
 70
8
 71
3
 72
8
 73
4
 74
0
 40
0
 40
0
 40
0
 40
0
 40
1
 40
1
 40
1
 40
1
 10
0.852672
 20
0.509362
 30
0.0
 10
0.852672
 20
0.595624
 30
0.0
 10
0.922659
 20
0.665612
 30
0.0
 10
1.008922
 20
0.665612
 30
0.0
  0
SPLINE
  5
12f
100
AcDbEntity
  8
Layer_1
 62
7
100
AcDbSpline
 70
8
 71
3
 72
8
 73
4
 74
0
 40
0
 40
0
 40
0
 40
0
 40
1
 40
1
 40
1
 40
1
 10
1.008922
 20
0.665612
 30
0.0
 10
1.095185
 20
0.665612
 30
0.0
 10
1.165173
 20
0.595624
 30
0.0
 10
1.165173
 20
0.509362
 30
0.0
  0
LWPOLYLINE
  5
130
100
AcDbEntity
  8
Layer_1
 62
7
100
AcDbPolyline
 90
1
 70
1
 10
6.883490
 20
0.221634
 30
0.0
  0
LWPOLYLINE
  5
131
100
AcDbEntity
  8
Layer_1
 62
7
100
AcDbPolyline
 90
1
 70
1
 10
1.165173
 20
0.509362
 30
0.0
  0
ENDSEC
  0
SECTION
  2
OBJECTS
  0
DICTIONARY
  5
C
330
0
100
AcDbDictionary
  3
ACAD_GROUP
350
D
  3
ACAD_MLINESTYLE
350
17
  0
DICTIONARY
  5
D
330
C
100
AcDbDictionary
  0
DICTIONARY
  5
1A
330
C
100
AcDbDictionary
  0
DICTIONARY
  5
17
330
C
100
AcDbDictionary
  3
STANDARD
350
18
  0
DICTIONARY
  5
19
330
C
100
AcDbDictionary
  0
ENDSEC
  0
EOF
