  0
SECTION
  2
HEADER
  9
$ACADVER
  1
AC1014
  9
$HANDSEED
  5
FFFF
  9
$MEASUREMENT
 70
     1
  0
ENDSEC
  0
SECTION
  2
TABLES
  0
TABLE
  2
VPORT
  5
8
330
0
100
AcDbSymbolTable
 70
     4
  0
VPORT
  5
2E
330
8
100
AcDbSymbolTableRecord
100
AcDbViewportTableRecord
  2
*ACTIVE
 70
     0
 10
0.0
 20
0.0
 11
1.0
 21
1.0
 12
210.0
 22
148.5
 13
0.0
 23
0.0
 14
10.0
 24
10.0
 15
10.0
 25
10.0
 16
0.0
 26
0.0
 36
1.0
 17
0.0
 27
0.0
 37
0.0
 40
341.0
 41
1.24
 42
50.0
 43
0.0
 44
0.0
 50
0.0
 51
0.0
 71
     0
 72
   100
 73
     1
 74
     3
 75
     0
 76
     0
 77
     0
 78
     0
  0
ENDTAB
  0
TABLE
  2
LTYPE
  5
5
330
0
100
AcDbSymbolTable
 70
     1
  0
LTYPE
  5
14
330
5
100
AcDbSymbolTableRecord
100
AcDbLinetypeTableRecord
  2
BYBLOCK
 70
     0
  3

 72
    65
 73
     0
 40
0.0
  0
LTYPE
  5
15
330
5
100
AcDbSymbolTableRecord
100
AcDbLinetypeTableRecord
  2
BYLAYER
 70
     0
  3

 72
    65
 73
     0
 40
0.0
  0
LTYPE
  5
16
330
5
100
AcDbSymbolTableRecord
100
AcDbLinetypeTableRecord
  2
CONTINUOUS
 70
     0
  3
Solid line
 72
    65
 73
     0
 40
0.0
  0
ENDTAB
  0
TABLE
  2
LAYER
  5
2
100
AcDbSymbolTable
 70
2
  0
LAYER
  5
50
100
AcDbSymbolTableRecord
100
AcDbLayerTableRecord
  2
0
 70
0
  6
CONTINUOUS
  0
LAYER
  5
51
100
AcDbSymbolTableRecord
100
AcDbLayerTableRecord
  2
Layer_1
 70
0
  6
CONTINUOUS
  0
ENDTAB
  0
TABLE
  2
STYLE
  5
3
330
0
100
AcDbSymbolTable
 70
     1
  0
STYLE
  5
11
330
3
100
AcDbSymbolTableRecord
100
AcDbTextStyleTableRecord
  2
STANDARD
 70
     0
 40
0.0
 41
1.0
 50
0.0
 71
     0
 42
2.5
  3
txt
  4

  0
ENDTAB
  0
TABLE
  2
VIEW
  5
6
330
0
100
AcDbSymbolTable
 70
     0
  0
ENDTAB
  0
TABLE
  2
UCS
  5
7
330
0
100
AcDbSymbolTable
 70
     0
  0
ENDTAB
  0
TABLE
  2
APPID
  5
9
330
0
100
AcDbSymbolTable
 70
     2
  0
APPID
  5
12
330
9
100
AcDbSymbolTableRecord
100
AcDbRegAppTableRecord
  2
ACAD
 70
     0
  0
ENDTAB
  0
TABLE
  2
DIMSTYLE
  5
A
330
0
100
AcDbSymbolTable
 70
     1
  0
DIMSTYLE
105
27
330
A
100
AcDbSymbolTableRecord
100
AcDbDimStyleTableRecord
  2
ISO-25
 70
     0
  3

  4

  5

  6

  7

 40
1.0
 41
2.5
 42
0.625
 43
3.75
 44
1.25
 45
0.0
 46
0.0
 47
0.0
 48
0.0
140
2.5
141
2.5
142
0.0
143
0.03937007874016
144
1.0
145
0.0
146
1.0
147
0.625
 71
     0
 72
     0
 73
     0
 74
     0
 75
     0
 76
     0
 77
     1
 78
     8
170
     0
171
     3
172
     1
173
     0
174
     0
175
     0
176
     0
177
     0
178
     0
270
     2
271
     2
272
     2
273
     2
274
     3
340
11
275
     0
280
     0
281
     0
282
     0
283
     0
284
     8
285
     0
286
     0
287
     3
288
     0
  0
ENDTAB
  0
TABLE
  2
BLOCK_RECORD
  5
1
330
0
100
AcDbSymbolTable
 70
     1
  0
BLOCK_RECORD
  5
1F
330
1
100
AcDbSymbolTableRecord
100
AcDbBlockTableRecord
  2
*MODEL_SPACE
  0
BLOCK_RECORD
  5
1B
330
1
100
AcDbSymbolTableRecord
100
AcDbBlockTableRecord
  2
*PAPER_SPACE
  0
ENDTAB
  0
ENDSEC
  0
SECTION
  2
BLOCKS
  0
BLOCK
  5
20
330
1F
100
AcDbEntity
  8
0
100
AcDbBlockBegin
  2
*MODEL_SPACE
 70
     0
 10
0.0
 20
0.0
 30
0.0
  3
*MODEL_SPACE
  1

  0
ENDBLK
  5
21
330
1F
100
AcDbEntity
  8
0
100
AcDbBlockEnd
  0
BLOCK
  5
1C
330
1B
100
AcDbEntity
 67
     1
  8
0
100
AcDbBlockBegin
  2
*PAPER_SPACE
  1

  0
ENDBLK
  5
1D
330
1B
100
AcDbEntity
 67
     1
  8
0
100
AcDbBlockEnd
  0
ENDSEC
  0
SECTION
  2
ENTITIES
  0
SPLINE
  5
100
100
AcDbEntity
  8
Layer_1
 62
7
100
AcDbSpline
 70
8
 71
3
 72
8
 73
4
 74
0
 40
0
 40
0
 40
0
 40
0
 40
1
 40
1
 40
1
 40
1
 10
0.011986
 20
5.095242
 30
0.0
 10
0.207027
 20
4.971002
 30
0.0
 10
0.401797
 20
4.847032
 30
0.0
 10
0.596566
 20
4.722791
 30
0.0
  0
SPLINE
  5
101
100
AcDbEntity
  8
Layer_1
 62
7
100
AcDbSpline
 70
8
 71
3
 72
8
 73
4
 74
0
 40
0
 40
0
 40
0
 40
0
 40
1
 40
1
 40
1
 40
1
 10
0.596566
 20
4.722791
 30
0.0
 10
0.693950
 20
4.660943
 30
0.0
 10
0.791336
 20
4.598823
 30
0.0
 10
0.888722
 20
4.536701
 30
0.0
  0
SPLINE
  5
102
100
AcDbEntity
  8
Layer_1
 62
7
100
AcDbSpline
 70
8
 71
3
 72
8
 73
4
 74
0
 40
0
 40
0
 40
0
 40
0
 40
1
 40
1
 40
1
 40
1
 10
0.888722
 20
4.536701
 30
0.0
 10
0.937277
 20
4.505778
 30
0.0
 10
0.986106
 20
4.474581
 30
0.0
 10
1.034934
 20
4.443658
 30
0.0
  0
SPLINE
  5
103
100
AcDbEntity
  8
Layer_1
 62
7
100
AcDbSpline
 70
8
 71
3
 72
8
 73
4
 74
0
 40
0
 40
0
 40
0
 40
0
 40
1
 40
1
 40
1
 40
1
 10
1.034934
 20
4.443658
 30
0.0
 10
1.059078
 20
4.428205
 30
0.0
 10
1.083491
 20
4.412732
 30
0.0
 10
1.107905
 20
4.397000
 30
0.0
  0
SPLINE
  5
104
100
AcDbEntity
  8
Layer_1
 62
7
100
AcDbSpline
 70
8
 71
3
 72
8
 73
4
 74
0
 40
0
 40
0
 40
0
 40
0
 40
1
 40
1
 40
1
 40
1
 10
1.107905
 20
4.397000
 30
0.0
 10
1.120110
 20
4.389402
 30
0.0
 10
1.132318
 20
4.381547
 30
0.0
 10
1.144255
 20
4.373941
 30
0.0
  0
SPLINE
  5
105
100
AcDbEntity
  8
Layer_1
 62
7
100
AcDbSpline
 70
8
 71
3
 72
8
 73
4
 74
0
 40
0
 40
0
 40
0
 40
0
 40
1
 40
1
 40
1
 40
1
 10
1.144255
 20
4.373941
 30
0.0
 10
1.150495
 20
4.369866
 30
0.0
 10
1.156736
 20
4.366067
 30
0.0
 10
1.162700
 20
4.362268
 30
0.0
  0
SPLINE
  5
106
100
AcDbEntity
  8
Layer_1
 62
7
100
AcDbSpline
 70
8
 71
3
 72
8
 73
4
 74
0
 40
0
 40
0
 40
0
 40
0
 40
1
 40
1
 40
1
 40
1
 10
1.162700
 20
4.362268
 30
0.0
 10
1.165692
 20
4.360299
 30
0.0
 10
1.168940
 20
4.358193
 30
0.0
 10
1.171657
 20
4.356303
 30
0.0
  0
SPLINE
  5
107
100
AcDbEntity
  8
Layer_1
 62
7
100
AcDbSpline
 70
8
 71
3
 72
8
 73
4
 74
0
 40
0
 40
0
 40
0
 40
0
 40
1
 40
1
 40
1
 40
1
 10
1.171657
 20
4.356303
 30
0.0
 10
1.275009
 20
4.290656
 30
0.0
 10
1.335503
 20
4.241014
 30
0.0
 10
1.409830
 20
4.142272
 30
0.0
  0
SPLINE
  5
108
100
AcDbEntity
  8
Layer_1
 62
7
100
AcDbSpline
 70
8
 71
3
 72
8
 73
4
 74
0
 40
0
 40
0
 40
0
 40
0
 40
1
 40
1
 40
1
 40
1
 10
1.409830
 20
4.142272
 30
0.0
 10
1.485513
 20
4.042175
 30
0.0
 10
1.543023
 20
3.933939
 30
0.0
 10
1.597275
 20
3.822177
 30
0.0
  0
SPLINE
  5
109
100
AcDbEntity
  8
Layer_1
 62
7
100
AcDbSpline
 70
8
 71
3
 72
8
 73
4
 74
0
 40
0
 40
0
 40
0
 40
0
 40
1
 40
1
 40
1
 40
1
 10
1.597275
 20
3.822177
 30
0.0
 10
1.692218
 20
3.627406
 30
0.0
 10
1.781194
 20
3.429923
 30
0.0
 10
1.872883
 20
3.233797
 30
0.0
  0
SPLINE
  5
10a
100
AcDbEntity
  8
Layer_1
 62
7
100
AcDbSpline
 70
8
 71
3
 72
8
 73
4
 74
0
 40
0
 40
0
 40
0
 40
0
 40
1
 40
1
 40
1
 40
1
 10
1.872883
 20
3.233797
 30
0.0
 10
1.939072
 20
3.091112
 30
0.0
 10
2.005533
 20
2.948697
 30
0.0
 10
2.071993
 20
2.806282
 30
0.0
  0
SPLINE
  5
10b
100
AcDbEntity
  8
Layer_1
 62
7
100
AcDbSpline
 70
8
 71
3
 72
8
 73
4
 74
0
 40
0
 40
0
 40
0
 40
0
 40
1
 40
1
 40
1
 40
1
 10
2.071993
 20
2.806282
 30
0.0
 10
2.204915
 20
2.521179
 30
0.0
 10
2.337836
 20
2.236077
 30
0.0
 10
2.470755
 20
1.951246
 30
0.0
  0
SPLINE
  5
10c
100
AcDbEntity
  8
Layer_1
 62
7
100
AcDbSpline
 70
8
 71
3
 72
8
 73
4
 74
0
 40
0
 40
0
 40
0
 40
0
 40
1
 40
1
 40
1
 40
1
 10
2.470755
 20
1.951246
 30
0.0
 10
2.616155
 20
1.639018
 30
0.0
 10
2.761826
 20
1.327059
 30
0.0
 10
2.907226
 20
1.015102
 30
0.0
  0
SPLINE
  5
10d
100
AcDbEntity
  8
Layer_1
 62
7
100
AcDbSpline
 70
8
 71
3
 72
8
 73
4
 74
0
 40
0
 40
0
 40
0
 40
0
 40
1
 40
1
 40
1
 40
1
 10
2.907226
 20
1.015102
 30
0.0
 10
2.979925
 20
0.859124
 30
0.0
 10
3.052895
 20
0.702874
 30
0.0
 10
3.125324
 20
0.546894
 30
0.0
  0
SPLINE
  5
10e
100
AcDbEntity
  8
Layer_1
 62
7
100
AcDbSpline
 70
8
 71
3
 72
8
 73
4
 74
0
 40
0
 40
0
 40
0
 40
0
 40
1
 40
1
 40
1
 40
1
 10
3.125324
 20
0.546894
 30
0.0
 10
3.161946
 20
0.469041
 30
0.0
 10
3.198295
 20
0.390915
 30
0.0
 10
3.234645
 20
0.312791
 30
0.0
  0
SPLINE
  5
10f
100
AcDbEntity
  8
Layer_1
 62
7
100
AcDbSpline
 70
8
 71
3
 72
8
 73
4
 74
0
 40
0
 40
0
 40
0
 40
0
 40
1
 40
1
 40
1
 40
1
 10
3.234645
 20
0.312791
 30
0.0
 10
3.272623
 20
0.231140
 30
0.0
 10
3.320366
 20
0.165222
 30
0.0
 10
3.393608
 20
0.110154
 30
0.0
  0
SPLINE
  5
110
100
AcDbEntity
  8
Layer_1
 62
7
100
AcDbSpline
 70
8
 71
3
 72
8
 73
4
 74
0
 40
0
 40
0
 40
0
 40
0
 40
1
 40
1
 40
1
 40
1
 10
3.393608
 20
0.110154
 30
0.0
 10
3.467934
 20
0.054002
 30
0.0
 10
3.543619
 20
0.023620
 30
0.0
 10
3.636121
 20
0.012770
 30
0.0
  0
SPLINE
  5
111
100
AcDbEntity
  8
Layer_1
 62
7
100
AcDbSpline
 70
8
 71
3
 72
8
 73
4
 74
0
 40
0
 40
0
 40
0
 40
0
 40
1
 40
1
 40
1
 40
1
 10
3.636121
 20
0.012770
 30
0.0
 10
3.675997
 20
0.008163
 30
0.0
 10
3.852320
 20
0.009246
 30
0.0
 10
3.892196
 20
0.009246
 30
0.0
  0
SPLINE
  5
112
100
AcDbEntity
  8
Layer_1
 62
7
100
AcDbSpline
 70
8
 71
3
 72
8
 73
4
 74
0
 40
0
 40
0
 40
0
 40
0
 40
1
 40
1
 40
1
 40
1
 10
3.892196
 20
0.009246
 30
0.0
 10
4.063909
 20
0.009246
 30
0.0
 10
4.235621
 20
0.009246
 30
0.0
 10
4.407606
 20
0.009246
 30
0.0
  0
SPLINE
  5
113
100
AcDbEntity
  8
Layer_1
 62
7
100
AcDbSpline
 70
8
 71
3
 72
8
 73
4
 74
0
 40
0
 40
0
 40
0
 40
0
 40
1
 40
1
 40
1
 40
1
 10
4.407606
 20
0.009246
 30
0.0
 10
4.751029
 20
0.009246
 30
0.0
 10
5.094454
 20
0.009246
 30
0.0
 10
5.438149
 20
0.009246
 30
0.0
  0
SPLINE
  5
114
100
AcDbEntity
  8
Layer_1
 62
7
100
AcDbSpline
 70
8
 71
3
 72
8
 73
4
 74
0
 40
0
 40
0
 40
0
 40
0
 40
1
 40
1
 40
1
 40
1
 10
5.438149
 20
0.009246
 30
0.0
 10
6.127712
 20
0.009246
 30
0.0
 10
6.817273
 20
0.009246
 30
0.0
 10
7.506834
 20
0.009246
 30
0.0
  0
SPLINE
  5
115
100
AcDbEntity
  8
Layer_1
 62
7
100
AcDbSpline
 70
8
 71
3
 72
8
 73
4
 74
0
 40
0
 40
0
 40
0
 40
0
 40
1
 40
1
 40
1
 40
1
 10
7.506834
 20
0.009246
 30
0.0
 10
7.849446
 20
0.009246
 30
0.0
 10
8.192056
 20
0.009246
 30
0.0
 10
8.534667
 20
0.009246
 30
0.0
  0
SPLINE
  5
116
100
AcDbEntity
  8
Layer_1
 62
7
100
AcDbSpline
 70
8
 71
3
 72
8
 73
4
 74
0
 40
0
 40
0
 40
0
 40
0
 40
1
 40
1
 40
1
 40
1
 10
8.534667
 20
0.009246
 30
0.0
 10
8.620116
 20
0.009246
 30
0.0
 10
8.704208
 20
0.003813
 30
0.0
 10
8.789116
 20
0.027415
 30
0.0
  0
SPLINE
  5
117
100
AcDbEntity
  8
Layer_1
 62
7
100
AcDbSpline
 70
8
 71
3
 72
8
 73
4
 74
0
 40
0
 40
0
 40
0
 40
0
 40
1
 40
1
 40
1
 40
1
 10
8.789116
 20
0.027415
 30
0.0
 10
8.878633
 20
0.052102
 30
0.0
 10
8.948893
 20
0.093606
 30
0.0
 10
9.013726
 20
0.159795
 30
0.0
  0
SPLINE
  5
118
100
AcDbEntity
  8
Layer_1
 62
7
100
AcDbSpline
 70
8
 71
3
 72
8
 73
4
 74
0
 40
0
 40
0
 40
0
 40
0
 40
1
 40
1
 40
1
 40
1
 10
9.013726
 20
0.159795
 30
0.0
 10
9.137423
 20
0.286476
 30
0.0
 10
9.184895
 20
0.469039
 30
0.0
 10
9.138509
 20
0.640209
 30
0.0
  0
SPLINE
  5
119
100
AcDbEntity
  8
Layer_1
 62
7
100
AcDbSpline
 70
8
 71
3
 72
8
 73
4
 74
0
 40
0
 40
0
 40
0
 40
0
 40
1
 40
1
 40
1
 40
1
 10
9.138509
 20
0.640209
 30
0.0
 10
9.123312
 20
0.696091
 30
0.0
 10
9.060927
 20
0.823856
 30
0.0
 10
9.037054
 20
0.875398
 30
0.0
  0
SPLINE
  5
11a
100
AcDbEntity
  8
Layer_1
 62
7
100
AcDbSpline
 70
8
 71
3
 72
8
 73
4
 74
0
 40
0
 40
0
 40
0
 40
0
 40
1
 40
1
 40
1
 40
1
 10
9.037054
 20
0.875398
 30
0.0
 10
9.000704
 20
0.953252
 30
0.0
 10
8.964354
 20
1.031106
 30
0.0
 10
8.928005
 20
1.108959
 30
0.0
  0
SPLINE
  5
11b
100
AcDbEntity
  8
Layer_1
 62
7
100
AcDbSpline
 70
8
 71
3
 72
8
 73
4
 74
0
 40
0
 40
0
 40
0
 40
0
 40
1
 40
1
 40
1
 40
1
 10
8.928005
 20
1.108959
 30
0.0
 10
8.855576
 20
1.264667
 30
0.0
 10
8.782875
 20
1.420102
 30
0.0
 10
8.710177
 20
1.575811
 30
0.0
  0
SPLINE
  5
11c
100
AcDbEntity
  8
Layer_1
 62
7
100
AcDbSpline
 70
8
 71
3
 72
8
 73
4
 74
0
 40
0
 40
0
 40
0
 40
0
 40
1
 40
1
 40
1
 40
1
 10
8.710177
 20
1.575811
 30
0.0
 10
8.674098
 20
1.653663
 30
0.0
 10
8.634765
 20
1.727721
 30
0.0
 10
8.622015
 20
1.815610
 30
0.0
  0
SPLINE
  5
11d
100
AcDbEntity
  8
Layer_1
 62
7
100
AcDbSpline
 70
8
 71
3
 72
8
 73
4
 74
0
 40
0
 40
0
 40
0
 40
0
 40
1
 40
1
 40
1
 40
1
 10
8.622015
 20
1.815610
 30
0.0
 10
8.608452
 20
1.908656
 30
0.0
 10
8.618491
 20
1.990307
 30
0.0
 10
8.654297
 20
2.077384
 30
0.0
  0
SPLINE
  5
11e
100
AcDbEntity
  8
Layer_1
 62
7
100
AcDbSpline
 70
8
 71
3
 72
8
 73
4
 74
0
 40
0
 40
0
 40
0
 40
0
 40
1
 40
1
 40
1
 40
1
 10
8.654297
 20
2.077384
 30
0.0
 10
8.687932
 20
2.159848
 30
0.0
 10
8.744627
 20
2.221699
 30
0.0
 10
8.799966
 20
2.287616
 30
0.0
  0
SPLINE
  5
11f
100
AcDbEntity
  8
Layer_1
 62
7
100
AcDbSpline
 70
8
 71
3
 72
8
 73
4
 74
0
 40
0
 40
0
 40
0
 40
0
 40
1
 40
1
 40
1
 40
1
 10
8.799966
 20
2.287616
 30
0.0
 10
8.855035
 20
2.353262
 30
0.0
 10
8.910100
 20
2.419181
 30
0.0
 10
8.965440
 20
2.484827
 30
0.0
  0
SPLINE
  5
120
100
AcDbEntity
  8
Layer_1
 62
7
100
AcDbSpline
 70
8
 71
3
 72
8
 73
4
 74
0
 40
0
 40
0
 40
0
 40
0
 40
1
 40
1
 40
1
 40
1
 10
8.965440
 20
2.484827
 30
0.0
 10
9.074761
 20
2.615035
 30
0.0
 10
9.184082
 20
2.745516
 30
0.0
 10
9.293403
 20
2.875724
 30
0.0
  0
SPLINE
  5
121
100
AcDbEntity
  8
Layer_1
 62
7
100
AcDbSpline
 70
8
 71
3
 72
8
 73
4
 74
0
 40
0
 40
0
 40
0
 40
0
 40
1
 40
1
 40
1
 40
1
 10
9.293403
 20
2.875724
 30
0.0
 10
9.416015
 20
3.021665
 30
0.0
 10
9.504990
 20
3.114982
 30
0.0
 10
9.525877
 20
3.321415
 30
0.0
  0
SPLINE
  5
122
100
AcDbEntity
  8
Layer_1
 62
7
100
AcDbSpline
 70
8
 71
3
 72
8
 73
4
 74
0
 40
0
 40
0
 40
0
 40
0
 40
1
 40
1
 40
1
 40
1
 10
9.525877
 20
3.321415
 30
0.0
 10
9.543771
 20
3.496384
 30
0.0
 10
9.487086
 20
3.670266
 30
0.0
 10
9.369627
 20
3.801287
 30
0.0
  0
SPLINE
  5
123
100
AcDbEntity
  8
Layer_1
 62
7
100
AcDbSpline
 70
8
 71
3
 72
8
 73
4
 74
0
 40
0
 40
0
 40
0
 40
0
 40
1
 40
1
 40
1
 40
1
 10
9.369627
 20
3.801287
 30
0.0
 10
9.306694
 20
3.871817
 30
0.0
 10
9.236434
 20
3.922002
 30
0.0
 10
9.149629
 20
3.959165
 30
0.0
  0
SPLINE
  5
124
100
AcDbEntity
  8
Layer_1
 62
7
100
AcDbSpline
 70
8
 71
3
 72
8
 73
4
 74
0
 40
0
 40
0
 40
0
 40
0
 40
1
 40
1
 40
1
 40
1
 10
9.149629
 20
3.959165
 30
0.0
 10
9.109482
 20
3.976252
 30
0.0
 10
9.068521
 20
3.989006
 30
0.0
 10
9.025661
 20
3.997413
 30
0.0
  0
SPLINE
  5
125
100
AcDbEntity
  8
Layer_1
 62
7
100
AcDbSpline
 70
8
 71
3
 72
8
 73
4
 74
0
 40
0
 40
0
 40
0
 40
0
 40
1
 40
1
 40
1
 40
1
 10
9.025661
 20
3.997413
 30
0.0
 10
9.005316
 20
4.001488
 30
0.0
 10
8.984700
 20
4.004461
 30
0.0
 10
8.964354
 20
4.006370
 30
0.0
  0
SPLINE
  5
126
100
AcDbEntity
  8
Layer_1
 62
7
100
AcDbSpline
 70
8
 71
3
 72
8
 73
4
 74
0
 40
0
 40
0
 40
0
 40
0
 40
1
 40
1
 40
1
 40
1
 10
8.964354
 20
4.006370
 30
0.0
 10
8.954039
 20
4.007354
 30
0.0
 10
8.944009
 20
4.007945
 30
0.0
 10
8.933972
 20
4.008535
 30
0.0
  0
SPLINE
  5
127
100
AcDbEntity
  8
Layer_1
 62
7
100
AcDbSpline
 70
8
 71
3
 72
8
 73
4
 74
0
 40
0
 40
0
 40
0
 40
0
 40
1
 40
1
 40
1
 40
1
 10
8.933972
 20
4.008535
 30
0.0
 10
8.929090
 20
4.008732
 30
0.0
 10
8.923932
 20
4.009126
 30
0.0
 10
8.919051
 20
4.009126
 30
0.0
  0
SPLINE
  5
128
100
AcDbEntity
  8
Layer_1
 62
7
100
AcDbSpline
 70
8
 71
3
 72
8
 73
4
 74
0
 40
0
 40
0
 40
0
 40
0
 40
1
 40
1
 40
1
 40
1
 10
8.919051
 20
4.009126
 30
0.0
 10
8.916610
 20
4.009126
 30
0.0
 10
8.914169
 20
4.009323
 30
0.0
 10
8.911728
 20
4.009323
 30
0.0
  0
SPLINE
  5
129
100
AcDbEntity
  8
Layer_1
 62
7
100
AcDbSpline
 70
8
 71
3
 72
8
 73
4
 74
0
 40
0
 40
0
 40
0
 40
0
 40
1
 40
1
 40
1
 40
1
 10
8.911728
 20
4.009323
 30
0.0
 10
8.910350
 20
4.009323
 30
0.0
 10
8.909011
 20
4.009323
 30
0.0
 10
8.907929
 20
4.009323
 30
0.0
  0
SPLINE
  5
12a
100
AcDbEntity
  8
Layer_1
 62
7
100
AcDbSpline
 70
8
 71
3
 72
8
 73
4
 74
0
 40
0
 40
0
 40
0
 40
0
 40
1
 40
1
 40
1
 40
1
 10
8.907929
 20
4.009323
 30
0.0
 10
8.906551
 20
4.009323
 30
0.0
 10
8.904405
 20
4.006882
 30
0.0
 10
8.904405
 20
4.009323
 30
0.0
  0
SPLINE
  5
12b
100
AcDbEntity
  8
Layer_1
 62
7
100
AcDbSpline
 70
8
 71
3
 72
8
 73
4
 74
0
 40
0
 40
0
 40
0
 40
0
 40
1
 40
1
 40
1
 40
1
 10
8.904405
 20
4.009323
 30
0.0
 10
8.712617
 20
4.009323
 30
0.0
 10
8.521104
 20
4.009323
 30
0.0
 10
8.329588
 20
4.009323
 30
0.0
  0
SPLINE
  5
12c
100
AcDbEntity
  8
Layer_1
 62
7
100
AcDbSpline
 70
8
 71
3
 72
8
 73
4
 74
0
 40
0
 40
0
 40
0
 40
0
 40
1
 40
1
 40
1
 40
1
 10
8.329588
 20
4.009323
 30
0.0
 10
8.233830
 20
4.009323
 30
0.0
 10
8.138074
 20
4.009323
 30
0.0
 10
8.042316
 20
4.009323
 30
0.0
  0
SPLINE
  5
12d
100
AcDbEntity
  8
Layer_1
 62
7
100
AcDbSpline
 70
8
 71
3
 72
8
 73
4
 74
0
 40
0
 40
0
 40
0
 40
0
 40
1
 40
1
 40
1
 40
1
 10
8.042316
 20
4.009323
 30
0.0
 10
7.946830
 20
4.009323
 30
0.0
 10
7.853243
 20
4.001193
 30
0.0
 10
7.757757
 20
4.028319
 30
0.0
  0
SPLINE
  5
12e
100
AcDbEntity
  8
Layer_1
 62
7
100
AcDbSpline
 70
8
 71
3
 72
8
 73
4
 74
0
 40
0
 40
0
 40
0
 40
0
 40
1
 40
1
 40
1
 40
1
 10
7.757757
 20
4.028319
 30
0.0
 10
7.656574
 20
4.056803
 30
0.0
 10
7.581432
 20
4.105360
 30
0.0
 10
7.513346
 20
4.185112
 30
0.0
  0
SPLINE
  5
12f
100
AcDbEntity
  8
Layer_1
 62
7
100
AcDbSpline
 70
8
 71
3
 72
8
 73
4
 74
0
 40
0
 40
0
 40
0
 40
0
 40
1
 40
1
 40
1
 40
1
 10
7.513346
 20
4.185112
 30
0.0
 10
7.449869
 20
4.259982
 30
0.0
 10
7.417860
 20
4.347872
 30
0.0
 10
7.377712
 20
4.433593
 30
0.0
  0
SPLINE
  5
130
100
AcDbEntity
  8
Layer_1
 62
7
100
AcDbSpline
 70
8
 71
3
 72
8
 73
4
 74
0
 40
0
 40
0
 40
0
 40
0
 40
1
 40
1
 40
1
 40
1
 10
7.377712
 20
4.433593
 30
0.0
 10
7.297417
 20
4.605848
 30
0.0
 10
7.217121
 20
4.778102
 30
0.0
 10
7.136826
 20
4.950087
 30
0.0
  0
SPLINE
  5
131
100
AcDbEntity
  8
Layer_1
 62
7
100
AcDbSpline
 70
8
 71
3
 72
8
 73
4
 74
0
 40
0
 40
0
 40
0
 40
0
 40
1
 40
1
 40
1
 40
1
 10
7.136826
 20
4.950087
 30
0.0
 10
6.813204
 20
5.643988
 30
0.0
 10
6.489854
 20
6.337619
 30
0.0
 10
6.166232
 20
7.031521
 30
0.0
  0
SPLINE
  5
132
100
AcDbEntity
  8
Layer_1
 62
7
100
AcDbSpline
 70
8
 71
3
 72
8
 73
4
 74
0
 40
0
 40
0
 40
0
 40
0
 40
1
 40
1
 40
1
 40
1
 10
6.166232
 20
7.031521
 30
0.0
 10
5.842881
 20
7.725152
 30
0.0
 10
5.519259
 20
8.418782
 30
0.0
 10
5.195909
 20
9.112684
 30
0.0
  0
SPLINE
  5
133
100
AcDbEntity
  8
Layer_1
 62
7
100
AcDbSpline
 70
8
 71
3
 72
8
 73
4
 74
0
 40
0
 40
0
 40
0
 40
0
 40
1
 40
1
 40
1
 40
1
 10
5.195909
 20
9.112684
 30
0.0
 10
5.062444
 20
9.398600
 30
0.0
 10
4.957736
 20
9.671766
 30
0.0
 10
4.663952
 20
9.858941
 30
0.0
  0
SPLINE
  5
134
100
AcDbEntity
  8
Layer_1
 62
7
100
AcDbSpline
 70
8
 71
3
 72
8
 73
4
 74
0
 40
0
 40
0
 40
0
 40
0
 40
1
 40
1
 40
1
 40
1
 10
4.663952
 20
9.858941
 30
0.0
 10
4.643608
 20
9.871691
 30
0.0
 10
4.623263
 20
9.884711
 30
0.0
 10
4.603188
 20
9.897461
 30
0.0
  0
SPLINE
  5
135
100
AcDbEntity
  8
Layer_1
 62
7
100
AcDbSpline
 70
8
 71
3
 72
8
 73
4
 74
0
 40
0
 40
0
 40
0
 40
0
 40
1
 40
1
 40
1
 40
1
 10
4.603188
 20
9.897461
 30
0.0
 10
4.562769
 20
9.923231
 30
0.0
 10
4.522080
 20
9.949001
 30
0.0
 10
4.481661
 20
9.974772
 30
0.0
  0
SPLINE
  5
136
100
AcDbEntity
  8
Layer_1
 62
7
100
AcDbSpline
 70
8
 71
3
 72
8
 73
4
 74
0
 40
0
 40
0
 40
0
 40
0
 40
1
 40
1
 40
1
 40
1
 10
4.481661
 20
9.974772
 30
0.0
 10
4.159123
 20
10.180393
 30
0.0
 10
3.836316
 20
10.386013
 30
0.0
 10
3.513779
 20
10.591634
 30
0.0
  0
LWPOLYLINE
  5
137
100
AcDbEntity
  8
Layer_1
 62
7
100
AcDbPolyline
 90
2
 70
0
 10
3.513775
 20
10.591661
 30
0.0
 10
0.011986
 20
5.095242
 30
0.0
  0
SPLINE
  5
138
100
AcDbEntity
  8
Layer_1
 62
7
100
AcDbSpline
 70
8
 71
3
 72
8
 73
4
 74
0
 40
0
 40
0
 40
0
 40
0
 40
1
 40
1
 40
1
 40
1
 10
3.836856
 20
0.634250
 30
0.0
 10
3.836856
 20
0.668701
 30
0.0
 10
3.808915
 20
0.696913
 30
0.0
 10
3.774464
 20
0.696913
 30
0.0
  0
SPLINE
  5
139
100
AcDbEntity
  8
Layer_1
 62
7
100
AcDbSpline
 70
8
 71
3
 72
8
 73
4
 74
0
 40
0
 40
0
 40
0
 40
0
 40
1
 40
1
 40
1
 40
1
 10
3.774464
 20
0.696913
 30
0.0
 10
3.739741
 20
0.696913
 30
0.0
 10
3.711801
 20
0.668701
 30
0.0
 10
3.711801
 20
0.634250
 30
0.0
  0
SPLINE
  5
13a
100
AcDbEntity
  8
Layer_1
 62
7
100
AcDbSpline
 70
8
 71
3
 72
8
 73
4
 74
0
 40
0
 40
0
 40
0
 40
0
 40
1
 40
1
 40
1
 40
1
 10
3.711801
 20
0.634250
 30
0.0
 10
3.711801
 20
0.599799
 30
0.0
 10
3.739741
 20
0.571858
 30
0.0
 10
3.774464
 20
0.571858
 30
0.0
  0
SPLINE
  5
13b
100
AcDbEntity
  8
Layer_1
 62
7
100
AcDbSpline
 70
8
 71
3
 72
8
 73
4
 74
0
 40
0
 40
0
 40
0
 40
0
 40
1
 40
1
 40
1
 40
1
 10
3.774464
 20
0.571858
 30
0.0
 10
3.808915
 20
0.571858
 30
0.0
 10
3.836856
 20
0.599799
 30
0.0
 10
3.836856
 20
0.634250
 30
0.0
  0
LWPOLYLINE
  5
13c
100
AcDbEntity
  8
Layer_1
 62
7
100
AcDbPolyline
 90
1
 70
1
 10
3.513779
 20
10.591634
 30
0.0
  0
SPLINE
  5
13d
100
AcDbEntity
  8
Layer_1
 62
7
100
AcDbSpline
 70
8
 71
3
 72
8
 73
4
 74
0
 40
0
 40
0
 40
0
 40
0
 40
1
 40
1
 40
1
 40
1
 10
3.082732
 20
2.251817
 30
0.0
 10
3.082732
 20
2.286539
 30
0.0
 10
3.054519
 20
2.314480
 30
0.0
 10
3.020068
 20
2.314480
 30
0.0
  0
SPLINE
  5
13e
100
AcDbEntity
  8
Layer_1
 62
7
100
AcDbSpline
 70
8
 71
3
 72
8
 73
4
 74
0
 40
0
 40
0
 40
0
 40
0
 40
1
 40
1
 40
1
 40
1
 10
3.020068
 20
2.314480
 30
0.0
 10
2.985617
 20
2.314480
 30
0.0
 10
2.957677
 20
2.286539
 30
0.0
 10
2.957677
 20
2.251817
 30
0.0
  0
SPLINE
  5
13f
100
AcDbEntity
  8
Layer_1
 62
7
100
AcDbSpline
 70
8
 71
3
 72
8
 73
4
 74
0
 40
0
 40
0
 40
0
 40
0
 40
1
 40
1
 40
1
 40
1
 10
2.957677
 20
2.251817
 30
0.0
 10
2.957677
 20
2.217366
 30
0.0
 10
2.985617
 20
2.189425
 30
0.0
 10
3.020068
 20
2.189425
 30
0.0
  0
SPLINE
  5
140
100
AcDbEntity
  8
Layer_1
 62
7
100
AcDbSpline
 70
8
 71
3
 72
8
 73
4
 74
0
 40
0
 40
0
 40
0
 40
0
 40
1
 40
1
 40
1
 40
1
 10
3.020068
 20
2.189425
 30
0.0
 10
3.054519
 20
2.189425
 30
0.0
 10
3.082732
 20
2.217366
 30
0.0
 10
3.082732
 20
2.251817
 30
0.0
  0
LWPOLYLINE
  5
141
100
AcDbEntity
  8
Layer_1
 62
7
100
AcDbPolyline
 90
1
 70
1
 10
3.836856
 20
0.634250
 30
0.0
  0
SPLINE
  5
142
100
AcDbEntity
  8
Layer_1
 62
7
100
AcDbSpline
 70
8
 71
3
 72
8
 73
4
 74
0
 40
0
 40
0
 40
0
 40
0
 40
1
 40
1
 40
1
 40
1
 10
9.060651
 20
3.384358
 30
0.0
 10
9.060651
 20
3.470622
 30
0.0
 10
8.990663
 20
3.540608
 30
0.0
 10
8.904401
 20
3.540608
 30
0.0
  0
SPLINE
  5
143
100
AcDbEntity
  8
Layer_1
 62
7
100
AcDbSpline
 70
8
 71
3
 72
8
 73
4
 74
0
 40
0
 40
0
 40
0
 40
0
 40
1
 40
1
 40
1
 40
1
 10
8.904401
 20
3.540608
 30
0.0
 10
8.817866
 20
3.540608
 30
0.0
 10
8.748151
 20
3.470622
 30
0.0
 10
8.748151
 20
3.384358
 30
0.0
  0
SPLINE
  5
144
100
AcDbEntity
  8
Layer_1
 62
7
100
AcDbSpline
 70
8
 71
3
 72
8
 73
4
 74
0
 40
0
 40
0
 40
0
 40
0
 40
1
 40
1
 40
1
 40
1
 10
8.748151
 20
3.384358
 30
0.0
 10
8.748151
 20
3.298096
 30
0.0
 10
8.817866
 20
3.228108
 30
0.0
 10
8.904401
 20
3.228108
 30
0.0
  0
SPLINE
  5
145
100
AcDbEntity
  8
Layer_1
 62
7
100
AcDbSpline
 70
8
 71
3
 72
8
 73
4
 74
0
 40
0
 40
0
 40
0
 40
0
 40
1
 40
1
 40
1
 40
1
 10
8.904401
 20
3.228108
 30
0.0
 10
8.990663
 20
3.228108
 30
0.0
 10
9.060651
 20
3.298096
 30
0.0
 10
9.060651
 20
3.384358
 30
0.0
  0
LWPOLYLINE
  5
146
100
AcDbEntity
  8
Layer_1
 62
7
100
AcDbPolyline
 90
1
 70
1
 10
3.082732
 20
2.251817
 30
0.0
  0
SPLINE
  5
147
100
AcDbEntity
  8
Layer_1
 62
7
100
AcDbSpline
 70
8
 71
3
 72
8
 73
4
 74
0
 40
0
 40
0
 40
0
 40
0
 40
1
 40
1
 40
1
 40
1
 10
4.120330
 20
8.136691
 30
0.0
 10
4.217173
 20
7.973659
 30
0.0
 10
4.290684
 20
7.800591
 30
0.0
 10
4.370167
 20
7.629964
 30
0.0
  0
SPLINE
  5
148
100
AcDbEntity
  8
Layer_1
 62
7
100
AcDbSpline
 70
8
 71
3
 72
8
 73
4
 74
0
 40
0
 40
0
 40
0
 40
0
 40
1
 40
1
 40
1
 40
1
 10
4.370167
 20
7.629964
 30
0.0
 10
4.394308
 20
7.577880
 30
0.0
 10
4.418452
 20
7.526069
 30
0.0
 10
4.442866
 20
7.474257
 30
0.0
  0
SPLINE
  5
149
100
AcDbEntity
  8
Layer_1
 62
7
100
AcDbSpline
 70
8
 71
3
 72
8
 73
4
 74
0
 40
0
 40
0
 40
0
 40
0
 40
1
 40
1
 40
1
 40
1
 10
4.442866
 20
7.474257
 30
0.0
 10
4.491151
 20
7.370361
 30
0.0
 10
4.539436
 20
7.266736
 30
0.0
 10
4.587993
 20
7.162841
 30
0.0
  0
SPLINE
  5
14a
100
AcDbEntity
  8
Layer_1
 62
7
100
AcDbSpline
 70
8
 71
3
 72
8
 73
4
 74
0
 40
0
 40
0
 40
0
 40
0
 40
1
 40
1
 40
1
 40
1
 10
4.587993
 20
7.162841
 30
0.0
 10
4.684836
 20
6.955322
 30
0.0
 10
4.781407
 20
6.747802
 30
0.0
 10
4.878249
 20
6.540011
 30
0.0
  0
SPLINE
  5
14b
100
AcDbEntity
  8
Layer_1
 62
7
100
AcDbSpline
 70
8
 71
3
 72
8
 73
4
 74
0
 40
0
 40
0
 40
0
 40
0
 40
1
 40
1
 40
1
 40
1
 10
4.878249
 20
6.540011
 30
0.0
 10
5.127545
 20
6.005615
 30
0.0
 10
5.376568
 20
5.471219
 30
0.0
 10
5.625864
 20
4.936821
 30
0.0
  0
SPLINE
  5
14c
100
AcDbEntity
  8
Layer_1
 62
7
100
AcDbSpline
 70
8
 71
3
 72
8
 73
4
 74
0
 40
0
 40
0
 40
0
 40
0
 40
1
 40
1
 40
1
 40
1
 10
5.625864
 20
4.936821
 30
0.0
 10
5.875157
 20
4.402697
 30
0.0
 10
6.124180
 20
3.868299
 30
0.0
 10
6.373476
 20
3.333902
 30
0.0
  0
SPLINE
  5
14d
100
AcDbEntity
  8
Layer_1
 62
7
100
AcDbSpline
 70
8
 71
3
 72
8
 73
4
 74
0
 40
0
 40
0
 40
0
 40
0
 40
1
 40
1
 40
1
 40
1
 10
6.373476
 20
3.333902
 30
0.0
 10
6.497716
 20
3.067246
 30
0.0
 10
6.621958
 20
2.800591
 30
0.0
 10
6.746468
 20
2.533935
 30
0.0
  0
SPLINE
  5
14e
100
AcDbEntity
  8
Layer_1
 62
7
100
AcDbSpline
 70
8
 71
3
 72
8
 73
4
 74
0
 40
0
 40
0
 40
0
 40
0
 40
1
 40
1
 40
1
 40
1
 10
6.746468
 20
2.533935
 30
0.0
 10
6.808590
 20
2.400472
 30
0.0
 10
6.870710
 20
2.267280
 30
0.0
 10
6.933100
 20
2.133815
 30
0.0
  0
SPLINE
  5
14f
100
AcDbEntity
  8
Layer_1
 62
7
100
AcDbSpline
 70
8
 71
3
 72
8
 73
4
 74
0
 40
0
 40
0
 40
0
 40
0
 40
1
 40
1
 40
1
 40
1
 10
6.933100
 20
2.133815
 30
0.0
 10
6.964297
 20
2.067085
 30
0.0
 10
6.995222
 20
2.000352
 30
0.0
 10
7.026145
 20
1.933892
 30
0.0
  0
SPLINE
  5
150
100
AcDbEntity
  8
Layer_1
 62
7
100
AcDbSpline
 70
8
 71
3
 72
8
 73
4
 74
0
 40
0
 40
0
 40
0
 40
0
 40
1
 40
1
 40
1
 40
1
 10
7.026145
 20
1.933892
 30
0.0
 10
7.059240
 20
1.863362
 30
0.0
 10
7.064121
 20
1.789848
 30
0.0
 10
7.031303
 20
1.717421
 30
0.0
  0
SPLINE
  5
151
100
AcDbEntity
  8
Layer_1
 62
7
100
AcDbSpline
 70
8
 71
3
 72
8
 73
4
 74
0
 40
0
 40
0
 40
0
 40
0
 40
1
 40
1
 40
1
 40
1
 10
7.031303
 20
1.717421
 30
0.0
 10
7.000106
 20
1.648246
 30
0.0
 10
6.939342
 20
1.596978
 30
0.0
 10
6.866100
 20
1.577990
 30
0.0
  0
SPLINE
  5
152
100
AcDbEntity
  8
Layer_1
 62
7
100
AcDbSpline
 70
8
 71
3
 72
8
 73
4
 74
0
 40
0
 40
0
 40
0
 40
0
 40
1
 40
1
 40
1
 40
1
 10
6.866100
 20
1.577990
 30
0.0
 10
6.829749
 20
1.568502
 30
0.0
 10
6.793401
 20
1.570116
 30
0.0
 10
6.756509
 20
1.570116
 30
0.0
  0
SPLINE
  5
153
100
AcDbEntity
  8
Layer_1
 62
7
100
AcDbSpline
 70
8
 71
3
 72
8
 73
4
 74
0
 40
0
 40
0
 40
0
 40
0
 40
1
 40
1
 40
1
 40
1
 10
6.756509
 20
1.570116
 30
0.0
 10
6.719887
 20
1.570116
 30
0.0
 10
6.682724
 20
1.570116
 30
0.0
 10
6.646102
 20
1.570116
 30
0.0
  0
SPLINE
  5
154
100
AcDbEntity
  8
Layer_1
 62
7
100
AcDbSpline
 70
8
 71
3
 72
8
 73
4
 74
0
 40
0
 40
0
 40
0
 40
0
 40
1
 40
1
 40
1
 40
1
 10
6.646102
 20
1.570116
 30
0.0
 10
6.498804
 20
1.570116
 30
0.0
 10
6.351236
 20
1.570116
 30
0.0
 10
6.203936
 20
1.570116
 30
0.0
  0
SPLINE
  5
155
100
AcDbEntity
  8
Layer_1
 62
7
100
AcDbSpline
 70
8
 71
3
 72
8
 73
4
 74
0
 40
0
 40
0
 40
0
 40
0
 40
1
 40
1
 40
1
 40
1
 10
6.203936
 20
1.570116
 30
0.0
 10
5.909068
 20
1.570116
 30
0.0
 10
5.614202
 20
1.570116
 30
0.0
 10
5.319606
 20
1.570116
 30
0.0
  0
SPLINE
  5
156
100
AcDbEntity
  8
Layer_1
 62
7
100
AcDbSpline
 70
8
 71
3
 72
8
 73
4
 74
0
 40
0
 40
0
 40
0
 40
0
 40
1
 40
1
 40
1
 40
1
 10
5.319606
 20
1.570116
 30
0.0
 10
5.172578
 20
1.570116
 30
0.0
 10
5.026094
 20
1.570116
 30
0.0
 10
4.879610
 20
1.570116
 30
0.0
  0
SPLINE
  5
157
100
AcDbEntity
  8
Layer_1
 62
7
100
AcDbSpline
 70
8
 71
3
 72
8
 73
4
 74
0
 40
0
 40
0
 40
0
 40
0
 40
1
 40
1
 40
1
 40
1
 10
4.879610
 20
1.570116
 30
0.0
 10
4.806096
 20
1.570116
 30
0.0
 10
4.732854
 20
1.570116
 30
0.0
 10
4.659612
 20
1.570116
 30
0.0
  0
SPLINE
  5
158
100
AcDbEntity
  8
Layer_1
 62
7
100
AcDbSpline
 70
8
 71
3
 72
8
 73
4
 74
0
 40
0
 40
0
 40
0
 40
0
 40
1
 40
1
 40
1
 40
1
 10
4.659612
 20
1.570116
 30
0.0
 10
4.629501
 20
1.570116
 30
0.0
 10
4.470808
 20
1.569329
 30
0.0
 10
4.440698
 20
1.572085
 30
0.0
  0
SPLINE
  5
159
100
AcDbEntity
  8
Layer_1
 62
7
100
AcDbSpline
 70
8
 71
3
 72
8
 73
4
 74
0
 40
0
 40
0
 40
0
 40
0
 40
1
 40
1
 40
1
 40
1
 10
4.440698
 20
1.572085
 30
0.0
 10
4.288517
 20
1.585116
 30
0.0
 10
4.150986
 20
1.667299
 30
0.0
 10
4.066621
 20
1.794795
 30
0.0
  0
SPLINE
  5
15a
100
AcDbEntity
  8
Layer_1
 62
7
100
AcDbSpline
 70
8
 71
3
 72
8
 73
4
 74
0
 40
0
 40
0
 40
0
 40
0
 40
1
 40
1
 40
1
 40
1
 10
4.066621
 20
1.794795
 30
0.0
 10
4.026202
 20
1.856372
 30
0.0
 10
4.000432
 20
1.924189
 30
0.0
 10
3.969779
 20
1.990108
 30
0.0
  0
SPLINE
  5
15b
100
AcDbEntity
  8
Layer_1
 62
7
100
AcDbSpline
 70
8
 71
3
 72
8
 73
4
 74
0
 40
0
 40
0
 40
0
 40
0
 40
1
 40
1
 40
1
 40
1
 10
3.969779
 20
1.990108
 30
0.0
 10
3.938854
 20
2.056569
 30
0.0
 10
3.907659
 20
2.123028
 30
0.0
 10
3.876734
 20
2.189488
 30
0.0
  0
SPLINE
  5
15c
100
AcDbEntity
  8
Layer_1
 62
7
100
AcDbSpline
 70
8
 71
3
 72
8
 73
4
 74
0
 40
0
 40
0
 40
0
 40
0
 40
1
 40
1
 40
1
 40
1
 10
3.876734
 20
2.189488
 30
0.0
 10
3.627438
 20
2.723886
 30
0.0
 10
3.378686
 20
3.258012
 30
0.0
 10
3.129393
 20
3.792136
 30
0.0
  0
SPLINE
  5
15d
100
AcDbEntity
  8
Layer_1
 62
7
100
AcDbSpline
 70
8
 71
3
 72
8
 73
4
 74
0
 40
0
 40
0
 40
0
 40
0
 40
1
 40
1
 40
1
 40
1
 10
3.129393
 20
3.792136
 30
0.0
 10
3.032551
 20
3.999927
 30
0.0
 10
2.935706
 20
4.207719
 30
0.0
 10
2.838594
 20
4.415780
 30
0.0
  0
SPLINE
  5
15e
100
AcDbEntity
  8
Layer_1
 62
7
100
AcDbSpline
 70
8
 71
3
 72
8
 73
4
 74
0
 40
0
 40
0
 40
0
 40
0
 40
1
 40
1
 40
1
 40
1
 10
2.838594
 20
4.415780
 30
0.0
 10
2.790037
 20
4.519675
 30
0.0
 10
2.741751
 20
4.623571
 30
0.0
 10
2.693466
 20
4.727467
 30
0.0
  0
SPLINE
  5
15f
100
AcDbEntity
  8
Layer_1
 62
7
100
AcDbSpline
 70
8
 71
3
 72
8
 73
4
 74
0
 40
0
 40
0
 40
0
 40
0
 40
1
 40
1
 40
1
 40
1
 10
2.693466
 20
4.727467
 30
0.0
 10
2.669051
 20
4.779278
 30
0.0
 10
2.644909
 20
4.831362
 30
0.0
 10
2.620493
 20
4.883175
 30
0.0
  0
SPLINE
  5
160
100
AcDbEntity
  8
Layer_1
 62
7
100
AcDbSpline
 70
8
 71
3
 72
8
 73
4
 74
0
 40
0
 40
0
 40
0
 40
0
 40
1
 40
1
 40
1
 40
1
 10
2.620493
 20
4.883175
 30
0.0
 10
2.541013
 20
5.054073
 30
0.0
 10
2.467499
 20
5.227413
 30
0.0
 10
2.370657
 20
5.390173
 30
0.0
  0
SPLINE
  5
161
100
AcDbEntity
  8
Layer_1
 62
7
100
AcDbSpline
 70
8
 71
3
 72
8
 73
4
 74
0
 40
0
 40
0
 40
0
 40
0
 40
1
 40
1
 40
1
 40
1
 10
2.370657
 20
5.390173
 30
0.0
 10
2.327525
 20
5.364131
 30
0.0
 10
2.288192
 20
5.427065
 30
0.0
 10
2.330509
 20
5.454192
 30
0.0
  0
SPLINE
  5
162
100
AcDbEntity
  8
Layer_1
 62
7
100
AcDbSpline
 70
8
 71
3
 72
8
 73
4
 74
0
 40
0
 40
0
 40
0
 40
0
 40
1
 40
1
 40
1
 40
1
 10
2.330509
 20
5.454192
 30
0.0
 10
2.244789
 20
5.584129
 30
0.0
 10
2.135740
 20
5.675275
 30
0.0
 10
2.006887
 20
5.757469
 30
0.0
  0
SPLINE
  5
163
100
AcDbEntity
  8
Layer_1
 62
7
100
AcDbSpline
 70
8
 71
3
 72
8
 73
4
 74
0
 40
0
 40
0
 40
0
 40
0
 40
1
 40
1
 40
1
 40
1
 10
2.006887
 20
5.757469
 30
0.0
 10
1.991434
 20
5.767506
 30
0.0
 10
1.975964
 20
5.777271
 30
0.0
 10
1.960501
 20
5.787037
 30
0.0
  0
SPLINE
  5
164
100
AcDbEntity
  8
Layer_1
 62
7
100
AcDbSpline
 70
8
 71
3
 72
8
 73
4
 74
0
 40
0
 40
0
 40
0
 40
0
 40
1
 40
1
 40
1
 40
1
 10
1.960501
 20
5.787037
 30
0.0
 10
1.930391
 20
5.806025
 30
0.0
 10
1.901635
 20
5.825828
 30
0.0
 10
1.875053
 20
5.849971
 30
0.0
  0
SPLINE
  5
165
100
AcDbEntity
  8
Layer_1
 62
7
100
AcDbSpline
 70
8
 71
3
 72
8
 73
4
 74
0
 40
0
 40
0
 40
0
 40
0
 40
1
 40
1
 40
1
 40
1
 10
1.875053
 20
5.849971
 30
0.0
 10
1.719616
 20
5.990758
 30
0.0
 10
1.668889
 20
6.214012
 30
0.0
 10
1.747828
 20
6.408510
 30
0.0
  0
SPLINE
  5
166
100
AcDbEntity
  8
Layer_1
 62
7
100
AcDbSpline
 70
8
 71
3
 72
8
 73
4
 74
0
 40
0
 40
0
 40
0
 40
0
 40
1
 40
1
 40
1
 40
1
 10
1.747828
 20
6.408510
 30
0.0
 10
1.766824
 20
6.455168
 30
0.0
 10
1.793942
 20
6.496130
 30
0.0
 10
1.820799
 20
6.538176
 30
0.0
  0
SPLINE
  5
167
100
AcDbEntity
  8
Layer_1
 62
7
100
AcDbSpline
 70
8
 71
3
 72
8
 73
4
 74
0
 40
0
 40
0
 40
0
 40
0
 40
1
 40
1
 40
1
 40
1
 10
1.820799
 20
6.538176
 30
0.0
 10
1.848196
 20
6.581308
 30
0.0
 10
1.875594
 20
6.624439
 30
0.0
 10
1.902991
 20
6.667571
 30
0.0
  0
SPLINE
  5
168
100
AcDbEntity
  8
Layer_1
 62
7
100
AcDbSpline
 70
8
 71
3
 72
8
 73
4
 74
0
 40
0
 40
0
 40
0
 40
0
 40
1
 40
1
 40
1
 40
1
 10
1.902991
 20
6.667571
 30
0.0
 10
1.957789
 20
6.753562
 30
0.0
 10
2.012856
 20
6.839826
 30
0.0
 10
2.067923
 20
6.926088
 30
0.0
  0
SPLINE
  5
169
100
AcDbEntity
  8
Layer_1
 62
7
100
AcDbSpline
 70
8
 71
3
 72
8
 73
4
 74
0
 40
0
 40
0
 40
0
 40
0
 40
1
 40
1
 40
1
 40
1
 10
2.067923
 20
6.926088
 30
0.0
 10
2.176972
 20
7.097258
 30
0.0
 10
2.286023
 20
7.268699
 30
0.0
 10
2.395342
 20
7.440140
 30
0.0
  0
SPLINE
  5
16a
100
AcDbEntity
  8
Layer_1
 62
7
100
AcDbSpline
 70
8
 71
3
 72
8
 73
4
 74
0
 40
0
 40
0
 40
0
 40
0
 40
1
 40
1
 40
1
 40
1
 10
2.395342
 20
7.440140
 30
0.0
 10
2.504393
 20
7.611581
 30
0.0
 10
2.613714
 20
7.783022
 30
0.0
 10
2.723033
 20
7.954463
 30
0.0
  0
SPLINE
  5
16b
100
AcDbEntity
  8
Layer_1
 62
7
100
AcDbSpline
 70
8
 71
3
 72
8
 73
4
 74
0
 40
0
 40
0
 40
0
 40
0
 40
1
 40
1
 40
1
 40
1
 10
2.723033
 20
7.954463
 30
0.0
 10
2.777830
 20
8.040726
 30
0.0
 10
2.832897
 20
8.126989
 30
0.0
 10
2.887964
 20
8.213252
 30
0.0
  0
SPLINE
  5
16c
100
AcDbEntity
  8
Layer_1
 62
7
100
AcDbSpline
 70
8
 71
3
 72
8
 73
4
 74
0
 40
0
 40
0
 40
0
 40
0
 40
1
 40
1
 40
1
 40
1
 10
2.887964
 20
8.213252
 30
0.0
 10
2.915362
 20
8.256383
 30
0.0
 10
2.942761
 20
8.299515
 30
0.0
 10
2.970429
 20
8.342646
 30
0.0
  0
SPLINE
  5
16d
100
AcDbEntity
  8
Layer_1
 62
7
100
AcDbSpline
 70
8
 71
3
 72
8
 73
4
 74
0
 40
0
 40
0
 40
0
 40
0
 40
1
 40
1
 40
1
 40
1
 10
2.970429
 20
8.342646
 30
0.0
 10
2.997013
 20
8.384693
 30
0.0
 10
3.022785
 20
8.426740
 30
0.0
 10
3.057236
 20
8.463903
 30
0.0
  0
SPLINE
  5
16e
100
AcDbEntity
  8
Layer_1
 62
7
100
AcDbSpline
 70
8
 71
3
 72
8
 73
4
 74
0
 40
0
 40
0
 40
0
 40
0
 40
1
 40
1
 40
1
 40
1
 10
3.057236
 20
8.463903
 30
0.0
 10
3.200192
 20
8.617440
 30
0.0
 10
3.423446
 20
8.665455
 30
0.0
 10
3.616860
 20
8.584346
 30
0.0
  0
SPLINE
  5
16f
100
AcDbEntity
  8
Layer_1
 62
7
100
AcDbSpline
 70
8
 71
3
 72
8
 73
4
 74
0
 40
0
 40
0
 40
0
 40
0
 40
1
 40
1
 40
1
 40
1
 10
3.616860
 20
8.584346
 30
0.0
 10
3.649682
 20
8.570511
 30
0.0
 10
3.680064
 20
8.552608
 30
0.0
 10
3.709905
 20
8.533619
 30
0.0
  0
SPLINE
  5
170
100
AcDbEntity
  8
Layer_1
 62
7
100
AcDbSpline
 70
8
 71
3
 72
8
 73
4
 74
0
 40
0
 40
0
 40
0
 40
0
 40
1
 40
1
 40
1
 40
1
 10
3.709905
 20
8.533619
 30
0.0
 10
3.725633
 20
8.523853
 30
0.0
 10
3.740828
 20
8.513817
 30
0.0
 10
3.756562
 20
8.504051
 30
0.0
  0
SPLINE
  5
171
100
AcDbEntity
  8
Layer_1
 62
7
100
AcDbSpline
 70
8
 71
3
 72
8
 73
4
 74
0
 40
0
 40
0
 40
0
 40
0
 40
1
 40
1
 40
1
 40
1
 10
3.756562
 20
8.504051
 30
0.0
 10
3.885415
 20
8.421857
 30
0.0
 10
3.994464
 20
8.330711
 30
0.0
 10
4.080184
 20
8.200503
 30
0.0
  0
SPLINE
  5
172
100
AcDbEntity
  8
Layer_1
 62
7
100
AcDbSpline
 70
8
 71
3
 72
8
 73
4
 74
0
 40
0
 40
0
 40
0
 40
0
 40
1
 40
1
 40
1
 40
1
 10
4.080184
 20
8.200503
 30
0.0
 10
4.122501
 20
8.227629
 30
0.0
 10
4.163192
 20
8.162796
 30
0.0
 10
4.120332
 20
8.136755
 30
0.0
  0
LWPOLYLINE
  5
173
100
AcDbEntity
  8
Layer_1
 62
7
100
AcDbPolyline
 90
1
 70
1
 10
9.060651
 20
3.384358
 30
0.0
  0
LWPOLYLINE
  5
174
100
AcDbEntity
  8
Layer_1
 62
7
100
AcDbPolyline
 90
1
 70
1
 10
4.120332
 20
8.136755
 30
0.0
  0
ENDSEC
  0
SECTION
  2
OBJECTS
  0
DICTIONARY
  5
C
330
0
100
AcDbDictionary
  3
ACAD_GROUP
350
D
  3
ACAD_MLINESTYLE
350
17
  0
DICTIONARY
  5
D
330
C
100
AcDbDictionary
  0
DICTIONARY
  5
1A
330
C
100
AcDbDictionary
  0
DICTIONARY
  5
17
330
C
100
AcDbDictionary
  3
STANDARD
350
18
  0
DICTIONARY
  5
19
330
C
100
AcDbDictionary
  0
ENDSEC
  0
EOF
