  0
SECTION
  2
HEADER
  9
$ACADVER
  1
AC1014
  9
$HANDSEED
  5
FFFF
  9
$MEASUREMENT
 70
     1
  0
ENDSEC
  0
SECTION
  2
TABLES
  0
TABLE
  2
VPORT
  5
8
330
0
100
AcDbSymbolTable
 70
     4
  0
VPORT
  5
2E
330
8
100
AcDbSymbolTableRecord
100
AcDbViewportTableRecord
  2
*ACTIVE
 70
     0
 10
0.0
 20
0.0
 11
1.0
 21
1.0
 12
210.0
 22
148.5
 13
0.0
 23
0.0
 14
10.0
 24
10.0
 15
10.0
 25
10.0
 16
0.0
 26
0.0
 36
1.0
 17
0.0
 27
0.0
 37
0.0
 40
341.0
 41
1.24
 42
50.0
 43
0.0
 44
0.0
 50
0.0
 51
0.0
 71
     0
 72
   100
 73
     1
 74
     3
 75
     0
 76
     0
 77
     0
 78
     0
  0
ENDTAB
  0
TABLE
  2
LTYPE
  5
5
330
0
100
AcDbSymbolTable
 70
     1
  0
LTYPE
  5
14
330
5
100
AcDbSymbolTableRecord
100
AcDbLinetypeTableRecord
  2
BYBLOCK
 70
     0
  3

 72
    65
 73
     0
 40
0.0
  0
LTYPE
  5
15
330
5
100
AcDbSymbolTableRecord
100
AcDbLinetypeTableRecord
  2
BYLAYER
 70
     0
  3

 72
    65
 73
     0
 40
0.0
  0
LTYPE
  5
16
330
5
100
AcDbSymbolTableRecord
100
AcDbLinetypeTableRecord
  2
CONTINUOUS
 70
     0
  3
Solid line
 72
    65
 73
     0
 40
0.0
  0
ENDTAB
  0
TABLE
  2
LAYER
  5
2
100
AcDbSymbolTable
 70
2
  0
LAYER
  5
50
100
AcDbSymbolTableRecord
100
AcDbLayerTableRecord
  2
0
 70
0
  6
CONTINUOUS
  0
LAYER
  5
51
100
AcDbSymbolTableRecord
100
AcDbLayerTableRecord
  2
Layer_1
 70
0
  6
CONTINUOUS
  0
ENDTAB
  0
TABLE
  2
STYLE
  5
3
330
0
100
AcDbSymbolTable
 70
     1
  0
STYLE
  5
11
330
3
100
AcDbSymbolTableRecord
100
AcDbTextStyleTableRecord
  2
STANDARD
 70
     0
 40
0.0
 41
1.0
 50
0.0
 71
     0
 42
2.5
  3
txt
  4

  0
ENDTAB
  0
TABLE
  2
VIEW
  5
6
330
0
100
AcDbSymbolTable
 70
     0
  0
ENDTAB
  0
TABLE
  2
UCS
  5
7
330
0
100
AcDbSymbolTable
 70
     0
  0
ENDTAB
  0
TABLE
  2
APPID
  5
9
330
0
100
AcDbSymbolTable
 70
     2
  0
APPID
  5
12
330
9
100
AcDbSymbolTableRecord
100
AcDbRegAppTableRecord
  2
ACAD
 70
     0
  0
ENDTAB
  0
TABLE
  2
DIMSTYLE
  5
A
330
0
100
AcDbSymbolTable
 70
     1
  0
DIMSTYLE
105
27
330
A
100
AcDbSymbolTableRecord
100
AcDbDimStyleTableRecord
  2
ISO-25
 70
     0
  3

  4

  5

  6

  7

 40
1.0
 41
2.5
 42
0.625
 43
3.75
 44
1.25
 45
0.0
 46
0.0
 47
0.0
 48
0.0
140
2.5
141
2.5
142
0.0
143
0.03937007874016
144
1.0
145
0.0
146
1.0
147
0.625
 71
     0
 72
     0
 73
     0
 74
     0
 75
     0
 76
     0
 77
     1
 78
     8
170
     0
171
     3
172
     1
173
     0
174
     0
175
     0
176
     0
177
     0
178
     0
270
     2
271
     2
272
     2
273
     2
274
     3
340
11
275
     0
280
     0
281
     0
282
     0
283
     0
284
     8
285
     0
286
     0
287
     3
288
     0
  0
ENDTAB
  0
TABLE
  2
BLOCK_RECORD
  5
1
330
0
100
AcDbSymbolTable
 70
     1
  0
BLOCK_RECORD
  5
1F
330
1
100
AcDbSymbolTableRecord
100
AcDbBlockTableRecord
  2
*MODEL_SPACE
  0
BLOCK_RECORD
  5
1B
330
1
100
AcDbSymbolTableRecord
100
AcDbBlockTableRecord
  2
*PAPER_SPACE
  0
ENDTAB
  0
ENDSEC
  0
SECTION
  2
BLOCKS
  0
BLOCK
  5
20
330
1F
100
AcDbEntity
  8
0
100
AcDbBlockBegin
  2
*MODEL_SPACE
 70
     0
 10
0.0
 20
0.0
 30
0.0
  3
*MODEL_SPACE
  1

  0
ENDBLK
  5
21
330
1F
100
AcDbEntity
  8
0
100
AcDbBlockEnd
  0
BLOCK
  5
1C
330
1B
100
AcDbEntity
 67
     1
  8
0
100
AcDbBlockBegin
  2
*PAPER_SPACE
  1

  0
ENDBLK
  5
1D
330
1B
100
AcDbEntity
 67
     1
  8
0
100
AcDbBlockEnd
  0
ENDSEC
  0
SECTION
  2
ENTITIES
  0
SPLINE
  5
100
100
AcDbEntity
  8
Layer_1
 62
7
100
AcDbSpline
 70
8
 71
3
 72
8
 73
4
 74
0
 40
0
 40
0
 40
0
 40
0
 40
1
 40
1
 40
1
 40
1
 10
0.507843
 20
0.993548
 30
0.0
 10
0.626658
 20
0.960995
 30
0.0
 10
0.736250
 20
0.958554
 30
0.0
 10
0.856422
 20
0.986226
 30
0.0
  0
SPLINE
  5
101
100
AcDbEntity
  8
Layer_1
 62
7
100
AcDbSpline
 70
8
 71
3
 72
8
 73
4
 74
0
 40
0
 40
0
 40
0
 40
0
 40
1
 40
1
 40
1
 40
1
 10
0.856422
 20
0.986226
 30
0.0
 10
2.647329
 20
1.415643
 30
0.0
 10
4.489506
 20
1.593594
 30
0.0
 10
6.329512
 20
1.515470
 30
0.0
  0
SPLINE
  5
102
100
AcDbEntity
  8
Layer_1
 62
7
100
AcDbSpline
 70
8
 71
3
 72
8
 73
4
 74
0
 40
0
 40
0
 40
0
 40
0
 40
1
 40
1
 40
1
 40
1
 10
6.329512
 20
1.515470
 30
0.0
 10
6.443444
 20
1.510588
 30
0.0
 10
6.557377
 20
1.504623
 30
0.0
 10
6.671038
 20
1.497832
 30
0.0
  0
SPLINE
  5
103
100
AcDbEntity
  8
Layer_1
 62
7
100
AcDbSpline
 70
8
 71
3
 72
8
 73
4
 74
0
 40
0
 40
0
 40
0
 40
0
 40
1
 40
1
 40
1
 40
1
 10
6.671038
 20
1.497832
 30
0.0
 10
6.794736
 20
1.490509
 30
0.0
 10
6.894020
 20
1.459584
 30
0.0
 10
6.990319
 20
1.376848
 30
0.0
  0
SPLINE
  5
104
100
AcDbEntity
  8
Layer_1
 62
7
100
AcDbSpline
 70
8
 71
3
 72
8
 73
4
 74
0
 40
0
 40
0
 40
0
 40
0
 40
1
 40
1
 40
1
 40
1
 10
6.990319
 20
1.376848
 30
0.0
 10
7.036435
 20
1.337513
 30
0.0
 10
7.072514
 20
1.293025
 30
0.0
 10
7.102081
 20
1.240129
 30
0.0
  0
SPLINE
  5
105
100
AcDbEntity
  8
Layer_1
 62
7
100
AcDbSpline
 70
8
 71
3
 72
8
 73
4
 74
0
 40
0
 40
0
 40
0
 40
0
 40
1
 40
1
 40
1
 40
1
 10
7.102081
 20
1.240129
 30
0.0
 10
7.130022
 20
1.189672
 30
0.0
 10
7.145484
 20
1.136233
 30
0.0
 10
7.160133
 20
1.081436
 30
0.0
  0
SPLINE
  5
106
100
AcDbEntity
  8
Layer_1
 62
7
100
AcDbSpline
 70
8
 71
3
 72
8
 73
4
 74
0
 40
0
 40
0
 40
0
 40
0
 40
1
 40
1
 40
1
 40
1
 10
7.160133
 20
1.081436
 30
0.0
 10
7.189701
 20
0.971031
 30
0.0
 10
7.219269
 20
0.860625
 30
0.0
 10
7.248837
 20
0.750491
 30
0.0
  0
SPLINE
  5
107
100
AcDbEntity
  8
Layer_1
 62
7
100
AcDbSpline
 70
8
 71
3
 72
8
 73
4
 74
0
 40
0
 40
0
 40
0
 40
0
 40
1
 40
1
 40
1
 40
1
 10
7.248837
 20
0.750491
 30
0.0
 10
7.278405
 20
0.640086
 30
0.0
 10
7.307973
 20
0.529680
 30
0.0
 10
7.337541
 20
0.419273
 30
0.0
  0
SPLINE
  5
108
100
AcDbEntity
  8
Layer_1
 62
7
100
AcDbSpline
 70
8
 71
3
 72
8
 73
4
 74
0
 40
0
 40
0
 40
0
 40
0
 40
1
 40
1
 40
1
 40
1
 10
7.337541
 20
0.419273
 30
0.0
 10
7.352191
 20
0.364206
 30
0.0
 10
7.367109
 20
0.309139
 30
0.0
 10
7.381758
 20
0.253800
 30
0.0
  0
SPLINE
  5
109
100
AcDbEntity
  8
Layer_1
 62
7
100
AcDbSpline
 70
8
 71
3
 72
8
 73
4
 74
0
 40
0
 40
0
 40
0
 40
0
 40
1
 40
1
 40
1
 40
1
 10
7.381758
 20
0.253800
 30
0.0
 10
7.389083
 20
0.226403
 30
0.0
 10
7.396677
 20
0.198733
 30
0.0
 10
7.404002
 20
0.171064
 30
0.0
  0
SPLINE
  5
10a
100
AcDbEntity
  8
Layer_1
 62
7
100
AcDbSpline
 70
8
 71
3
 72
8
 73
4
 74
0
 40
0
 40
0
 40
0
 40
0
 40
1
 40
1
 40
1
 40
1
 10
7.404002
 20
0.171064
 30
0.0
 10
7.411327
 20
0.143665
 30
0.0
 10
7.416480
 20
0.115997
 30
0.0
 10
7.426517
 20
0.089141
 30
0.0
  0
SPLINE
  5
10b
100
AcDbEntity
  8
Layer_1
 62
7
100
AcDbSpline
 70
8
 71
3
 72
8
 73
4
 74
0
 40
0
 40
0
 40
0
 40
0
 40
1
 40
1
 40
1
 40
1
 10
7.426517
 20
0.089141
 30
0.0
 10
7.448218
 20
0.032174
 30
0.0
 10
7.507897
 20
-0.000648
 30
0.0
 10
7.567847
 20
0.011017
 30
0.0
  0
SPLINE
  5
10c
100
AcDbEntity
  8
Layer_1
 62
7
100
AcDbSpline
 70
8
 71
3
 72
8
 73
4
 74
0
 40
0
 40
0
 40
0
 40
0
 40
1
 40
1
 40
1
 40
1
 10
7.567847
 20
0.011017
 30
0.0
 10
7.629425
 20
0.023497
 30
0.0
 10
7.668488
 20
0.076121
 30
0.0
 10
7.668488
 20
0.137698
 30
0.0
  0
SPLINE
  5
10d
100
AcDbEntity
  8
Layer_1
 62
7
100
AcDbSpline
 70
8
 71
3
 72
8
 73
4
 74
0
 40
0
 40
0
 40
0
 40
0
 40
1
 40
1
 40
1
 40
1
 10
7.668488
 20
0.137698
 30
0.0
 10
7.668488
 20
0.251901
 30
0.0
 10
7.668488
 20
0.366106
 30
0.0
 10
7.668488
 20
0.480308
 30
0.0
  0
SPLINE
  5
10e
100
AcDbEntity
  8
Layer_1
 62
7
100
AcDbSpline
 70
8
 71
3
 72
8
 73
4
 74
0
 40
0
 40
0
 40
0
 40
0
 40
1
 40
1
 40
1
 40
1
 10
7.668488
 20
0.480308
 30
0.0
 10
7.668488
 20
1.399633
 30
0.0
 10
7.668488
 20
2.319230
 30
0.0
 10
7.668488
 20
3.238554
 30
0.0
  0
SPLINE
  5
10f
100
AcDbEntity
  8
Layer_1
 62
7
100
AcDbSpline
 70
8
 71
3
 72
8
 73
4
 74
0
 40
0
 40
0
 40
0
 40
0
 40
1
 40
1
 40
1
 40
1
 10
7.668488
 20
3.238554
 30
0.0
 10
7.668488
 20
3.466962
 30
0.0
 10
7.668488
 20
3.695369
 30
0.0
 10
7.668488
 20
3.924048
 30
0.0
  0
SPLINE
  5
110
100
AcDbEntity
  8
Layer_1
 62
7
100
AcDbSpline
 70
8
 71
3
 72
8
 73
4
 74
0
 40
0
 40
0
 40
0
 40
0
 40
1
 40
1
 40
1
 40
1
 10
7.668488
 20
3.924048
 30
0.0
 10
7.668488
 20
3.981015
 30
0.0
 10
7.668488
 20
4.038251
 30
0.0
 10
7.668488
 20
4.095218
 30
0.0
  0
SPLINE
  5
111
100
AcDbEntity
  8
Layer_1
 62
7
100
AcDbSpline
 70
8
 71
3
 72
8
 73
4
 74
0
 40
0
 40
0
 40
0
 40
0
 40
1
 40
1
 40
1
 40
1
 10
7.668488
 20
4.095218
 30
0.0
 10
7.668488
 20
4.123700
 30
0.0
 10
7.668488
 20
4.152456
 30
0.0
 10
7.668488
 20
4.180938
 30
0.0
  0
SPLINE
  5
112
100
AcDbEntity
  8
Layer_1
 62
7
100
AcDbSpline
 70
8
 71
3
 72
8
 73
4
 74
0
 40
0
 40
0
 40
0
 40
0
 40
1
 40
1
 40
1
 40
1
 10
7.668488
 20
4.180938
 30
0.0
 10
7.668488
 20
4.209420
 30
0.0
 10
7.671202
 20
4.236818
 30
0.0
 10
7.661702
 20
4.265302
 30
0.0
  0
SPLINE
  5
113
100
AcDbEntity
  8
Layer_1
 62
7
100
AcDbSpline
 70
8
 71
3
 72
8
 73
4
 74
0
 40
0
 40
0
 40
0
 40
0
 40
1
 40
1
 40
1
 40
1
 10
7.661702
 20
4.265302
 30
0.0
 10
7.641900
 20
4.322810
 30
0.0
 10
7.583577
 20
4.357804
 30
0.0
 10
7.523356
 20
4.348039
 30
0.0
  0
SPLINE
  5
114
100
AcDbEntity
  8
Layer_1
 62
7
100
AcDbSpline
 70
8
 71
3
 72
8
 73
4
 74
0
 40
0
 40
0
 40
0
 40
0
 40
1
 40
1
 40
1
 40
1
 10
7.523356
 20
4.348039
 30
0.0
 10
7.490533
 20
4.342625
 30
0.0
 10
7.467746
 20
4.329594
 30
0.0
 10
7.446588
 20
4.303822
 30
0.0
  0
SPLINE
  5
115
100
AcDbEntity
  8
Layer_1
 62
7
100
AcDbSpline
 70
8
 71
3
 72
8
 73
4
 74
0
 40
0
 40
0
 40
0
 40
0
 40
1
 40
1
 40
1
 40
1
 10
7.446588
 20
4.303822
 30
0.0
 10
7.427328
 20
4.280222
 30
0.0
 10
7.421631
 20
4.253637
 30
0.0
 10
7.414306
 20
4.225696
 30
0.0
  0
SPLINE
  5
116
100
AcDbEntity
  8
Layer_1
 62
7
100
AcDbSpline
 70
8
 71
3
 72
8
 73
4
 74
0
 40
0
 40
0
 40
0
 40
0
 40
1
 40
1
 40
1
 40
1
 10
7.414306
 20
4.225696
 30
0.0
 10
7.355170
 20
4.005157
 30
0.0
 10
7.296034
 20
3.784615
 30
0.0
 10
7.236898
 20
3.563804
 30
0.0
  0
SPLINE
  5
117
100
AcDbEntity
  8
Layer_1
 62
7
100
AcDbSpline
 70
8
 71
3
 72
8
 73
4
 74
0
 40
0
 40
0
 40
0
 40
0
 40
1
 40
1
 40
1
 40
1
 10
7.236898
 20
3.563804
 30
0.0
 10
7.207329
 20
3.453670
 30
0.0
 10
7.180745
 20
3.342993
 30
0.0
 10
7.148193
 20
3.233672
 30
0.0
  0
SPLINE
  5
118
100
AcDbEntity
  8
Layer_1
 62
7
100
AcDbSpline
 70
8
 71
3
 72
8
 73
4
 74
0
 40
0
 40
0
 40
0
 40
0
 40
1
 40
1
 40
1
 40
1
 10
7.148193
 20
3.233672
 30
0.0
 10
7.114556
 20
3.120011
 30
0.0
 10
7.041586
 20
3.022356
 30
0.0
 10
6.942572
 20
2.957521
 30
0.0
  0
SPLINE
  5
119
100
AcDbEntity
  8
Layer_1
 62
7
100
AcDbSpline
 70
8
 71
3
 72
8
 73
4
 74
0
 40
0
 40
0
 40
0
 40
0
 40
1
 40
1
 40
1
 40
1
 10
6.942572
 20
2.957521
 30
0.0
 10
6.781440
 20
2.852271
 30
0.0
 10
6.659098
 20
2.876684
 30
0.0
 10
6.487386
 20
2.884550
 30
0.0
  0
SPLINE
  5
11a
100
AcDbEntity
  8
Layer_1
 62
7
100
AcDbSpline
 70
8
 71
3
 72
8
 73
4
 74
0
 40
0
 40
0
 40
0
 40
0
 40
1
 40
1
 40
1
 40
1
 10
6.487386
 20
2.884550
 30
0.0
 10
5.724040
 20
2.920901
 30
0.0
 10
4.963948
 20
2.918460
 30
0.0
 10
4.200873
 20
2.874511
 30
0.0
  0
SPLINE
  5
11b
100
AcDbEntity
  8
Layer_1
 62
7
100
AcDbSpline
 70
8
 71
3
 72
8
 73
4
 74
0
 40
0
 40
0
 40
0
 40
0
 40
1
 40
1
 40
1
 40
1
 10
4.200873
 20
2.874511
 30
0.0
 10
3.279107
 20
2.821342
 30
0.0
 10
2.371989
 20
2.704426
 30
0.0
 10
1.466227
 20
2.526474
 30
0.0
  0
SPLINE
  5
11c
100
AcDbEntity
  8
Layer_1
 62
7
100
AcDbSpline
 70
8
 71
3
 72
8
 73
4
 74
0
 40
0
 40
0
 40
0
 40
0
 40
1
 40
1
 40
1
 40
1
 10
1.466227
 20
2.526474
 30
0.0
 10
1.153998
 20
2.465169
 30
0.0
 10
0.843126
 20
2.397893
 30
0.0
 10
0.533610
 20
2.322753
 30
0.0
  0
SPLINE
  5
11d
100
AcDbEntity
  8
Layer_1
 62
7
100
AcDbSpline
 70
8
 71
3
 72
8
 73
4
 74
0
 40
0
 40
0
 40
0
 40
0
 40
1
 40
1
 40
1
 40
1
 10
0.533610
 20
2.322753
 30
0.0
 10
0.529269
 20
2.321572
 30
0.0
 10
0.524929
 20
2.320588
 30
0.0
 10
0.520860
 20
2.319505
 30
0.0
  0
SPLINE
  5
11e
100
AcDbEntity
  8
Layer_1
 62
7
100
AcDbSpline
 70
8
 71
3
 72
8
 73
4
 74
0
 40
0
 40
0
 40
0
 40
0
 40
1
 40
1
 40
1
 40
1
 10
0.520860
 20
2.319505
 30
0.0
 10
0.512179
 20
2.317340
 30
0.0
 10
0.503500
 20
2.314899
 30
0.0
 10
0.495090
 20
2.312182
 30
0.0
  0
SPLINE
  5
11f
100
AcDbEntity
  8
Layer_1
 62
7
100
AcDbSpline
 70
8
 71
3
 72
8
 73
4
 74
0
 40
0
 40
0
 40
0
 40
0
 40
1
 40
1
 40
1
 40
1
 10
0.495090
 20
2.312182
 30
0.0
 10
0.477458
 20
2.306749
 30
0.0
 10
0.460367
 20
2.301060
 30
0.0
 10
0.443549
 20
2.294269
 30
0.0
  0
SPLINE
  5
120
100
AcDbEntity
  8
Layer_1
 62
7
100
AcDbSpline
 70
8
 71
3
 72
8
 73
4
 74
0
 40
0
 40
0
 40
0
 40
0
 40
1
 40
1
 40
1
 40
1
 10
0.443549
 20
2.294269
 30
0.0
 10
0.408555
 20
2.280430
 30
0.0
 10
0.375189
 20
2.263887
 30
0.0
 10
0.342909
 20
2.244627
 30
0.0
  0
SPLINE
  5
121
100
AcDbEntity
  8
Layer_1
 62
7
100
AcDbSpline
 70
8
 71
3
 72
8
 73
4
 74
0
 40
0
 40
0
 40
0
 40
0
 40
1
 40
1
 40
1
 40
1
 10
0.342909
 20
2.244627
 30
0.0
 10
0.274549
 20
2.203667
 30
0.0
 10
0.217312
 20
2.154566
 30
0.0
 10
0.166585
 20
2.093261
 30
0.0
  0
SPLINE
  5
122
100
AcDbEntity
  8
Layer_1
 62
7
100
AcDbSpline
 70
8
 71
3
 72
8
 73
4
 74
0
 40
0
 40
0
 40
0
 40
0
 40
1
 40
1
 40
1
 40
1
 10
0.166585
 20
2.093261
 30
0.0
 10
0.068657
 20
1.975259
 30
0.0
 10
0.013319
 20
1.827962
 30
0.0
 10
0.008979
 20
1.674696
 30
0.0
  0
SPLINE
  5
123
100
AcDbEntity
  8
Layer_1
 62
7
100
AcDbSpline
 70
8
 71
3
 72
8
 73
4
 74
0
 40
0
 40
0
 40
0
 40
0
 40
1
 40
1
 40
1
 40
1
 10
0.008979
 20
1.674696
 30
0.0
 10
-0.000244
 20
1.360296
 30
0.0
 10
0.205376
 20
1.079806
 30
0.0
 10
0.507839
 20
0.993543
 30
0.0
  0
SPLINE
  5
124
100
AcDbEntity
  8
Layer_1
 62
7
100
AcDbSpline
 70
8
 71
3
 72
8
 73
4
 74
0
 40
0
 40
0
 40
0
 40
0
 40
1
 40
1
 40
1
 40
1
 10
6.023794
 20
2.026263
 30
0.0
 10
6.161055
 20
2.022464
 30
0.0
 10
6.255456
 20
2.162169
 30
0.0
 10
6.200931
 20
2.288037
 30
0.0
  0
SPLINE
  5
125
100
AcDbEntity
  8
Layer_1
 62
7
100
AcDbSpline
 70
8
 71
3
 72
8
 73
4
 74
0
 40
0
 40
0
 40
0
 40
0
 40
1
 40
1
 40
1
 40
1
 10
6.200931
 20
2.288037
 30
0.0
 10
6.174618
 20
2.348800
 30
0.0
 10
6.118466
 20
2.391117
 30
0.0
 10
6.052819
 20
2.399527
 30
0.0
  0
SPLINE
  5
126
100
AcDbEntity
  8
Layer_1
 62
7
100
AcDbSpline
 70
8
 71
3
 72
8
 73
4
 74
0
 40
0
 40
0
 40
0
 40
0
 40
1
 40
1
 40
1
 40
1
 10
6.052819
 20
2.399527
 30
0.0
 10
6.035187
 20
2.401968
 30
0.0
 10
5.887346
 20
2.404409
 30
0.0
 10
5.869714
 20
2.404684
 30
0.0
  0
SPLINE
  5
127
100
AcDbEntity
  8
Layer_1
 62
7
100
AcDbSpline
 70
8
 71
3
 72
8
 73
4
 74
0
 40
0
 40
0
 40
0
 40
0
 40
1
 40
1
 40
1
 40
1
 10
5.869714
 20
2.404684
 30
0.0
 10
5.623945
 20
2.409291
 30
0.0
 10
5.377906
 20
2.409566
 30
0.0
 10
5.131867
 20
2.405275
 30
0.0
  0
SPLINE
  5
128
100
AcDbEntity
  8
Layer_1
 62
7
100
AcDbSpline
 70
8
 71
3
 72
8
 73
4
 74
0
 40
0
 40
0
 40
0
 40
0
 40
1
 40
1
 40
1
 40
1
 10
5.131867
 20
2.405275
 30
0.0
 10
4.634091
 20
2.396869
 30
0.0
 10
4.138214
 20
2.370552
 30
0.0
 10
3.642337
 20
2.326336
 30
0.0
  0
SPLINE
  5
129
100
AcDbEntity
  8
Layer_1
 62
7
100
AcDbSpline
 70
8
 71
3
 72
8
 73
4
 74
0
 40
0
 40
0
 40
0
 40
0
 40
1
 40
1
 40
1
 40
1
 10
3.642337
 20
2.326336
 30
0.0
 10
2.647329
 20
2.237631
 30
0.0
 10
1.671580
 20
2.078940
 30
0.0
 10
0.699629
 20
1.848363
 30
0.0
  0
SPLINE
  5
12a
100
AcDbEntity
  8
Layer_1
 62
7
100
AcDbSpline
 70
8
 71
3
 72
8
 73
4
 74
0
 40
0
 40
0
 40
0
 40
0
 40
1
 40
1
 40
1
 40
1
 10
0.699629
 20
1.848363
 30
0.0
 10
0.636424
 20
1.833442
 30
0.0
 10
0.581628
 20
1.820422
 30
0.0
 10
0.540667
 20
1.759659
 30
0.0
  0
SPLINE
  5
12b
100
AcDbEntity
  8
Layer_1
 62
7
100
AcDbSpline
 70
8
 71
3
 72
8
 73
4
 74
0
 40
0
 40
0
 40
0
 40
0
 40
1
 40
1
 40
1
 40
1
 10
0.540667
 20
1.759659
 30
0.0
 10
0.504859
 20
1.706761
 30
0.0
 10
0.498620
 20
1.639759
 30
0.0
 10
0.523848
 20
1.580893
 30
0.0
  0
SPLINE
  5
12c
100
AcDbEntity
  8
Layer_1
 62
7
100
AcDbSpline
 70
8
 71
3
 72
8
 73
4
 74
0
 40
0
 40
0
 40
0
 40
0
 40
1
 40
1
 40
1
 40
1
 10
0.523848
 20
1.580893
 30
0.0
 10
0.549889
 20
1.519857
 30
0.0
 10
0.606584
 20
1.477269
 30
0.0
 10
0.672502
 20
1.468859
 30
0.0
  0
SPLINE
  5
12d
100
AcDbEntity
  8
Layer_1
 62
7
100
AcDbSpline
 70
8
 71
3
 72
8
 73
4
 74
0
 40
0
 40
0
 40
0
 40
0
 40
1
 40
1
 40
1
 40
1
 10
0.672502
 20
1.468859
 30
0.0
 10
0.703969
 20
1.464785
 30
0.0
 10
0.732724
 20
1.470828
 30
0.0
 10
0.762563
 20
1.477816
 30
0.0
  0
SPLINE
  5
12e
100
AcDbEntity
  8
Layer_1
 62
7
100
AcDbSpline
 70
8
 71
3
 72
8
 73
4
 74
0
 40
0
 40
0
 40
0
 40
0
 40
1
 40
1
 40
1
 40
1
 10
0.762563
 20
1.477816
 30
0.0
 10
0.792402
 20
1.485139
 30
0.0
 10
0.822242
 20
1.492186
 30
0.0
 10
0.852081
 20
1.498976
 30
0.0
  0
SPLINE
  5
12f
100
AcDbEntity
  8
Layer_1
 62
7
100
AcDbSpline
 70
8
 71
3
 72
8
 73
4
 74
0
 40
0
 40
0
 40
0
 40
0
 40
1
 40
1
 40
1
 40
1
 10
0.852081
 20
1.498976
 30
0.0
 10
1.091610
 20
1.555127
 30
0.0
 10
1.331953
 20
1.606669
 30
0.0
 10
1.573652
 20
1.654139
 30
0.0
  0
SPLINE
  5
130
100
AcDbEntity
  8
Layer_1
 62
7
100
AcDbSpline
 70
8
 71
3
 72
8
 73
4
 74
0
 40
0
 40
0
 40
0
 40
0
 40
1
 40
1
 40
1
 40
1
 10
1.573652
 20
1.654139
 30
0.0
 10
2.062205
 20
1.749625
 30
0.0
 10
2.552656
 20
1.827208
 30
0.0
 10
3.046906
 20
1.886887
 30
0.0
  0
SPLINE
  5
131
100
AcDbEntity
  8
Layer_1
 62
7
100
AcDbSpline
 70
8
 71
3
 72
8
 73
4
 74
0
 40
0
 40
0
 40
0
 40
0
 40
1
 40
1
 40
1
 40
1
 10
3.046906
 20
1.886887
 30
0.0
 10
4.038388
 20
2.006515
 30
0.0
 10
5.025530
 20
2.052631
 30
0.0
 10
6.023794
 20
2.026318
 30
0.0
  0
LWPOLYLINE
  5
132
100
AcDbEntity
  8
Layer_1
 62
7
100
AcDbPolyline
 90
1
 70
1
 10
0.507839
 20
0.993543
 30
0.0
  0
LWPOLYLINE
  5
133
100
AcDbEntity
  8
Layer_1
 62
7
100
AcDbPolyline
 90
1
 70
1
 10
6.023794
 20
2.026318
 30
0.0
  0
ENDSEC
  0
SECTION
  2
OBJECTS
  0
DICTIONARY
  5
C
330
0
100
AcDbDictionary
  3
ACAD_GROUP
350
D
  3
ACAD_MLINESTYLE
350
17
  0
DICTIONARY
  5
D
330
C
100
AcDbDictionary
  0
DICTIONARY
  5
1A
330
C
100
AcDbDictionary
  0
DICTIONARY
  5
17
330
C
100
AcDbDictionary
  3
STANDARD
350
18
  0
DICTIONARY
  5
19
330
C
100
AcDbDictionary
  0
ENDSEC
  0
EOF
