  0
SECTION
  2
HEADER
  9
$ACADVER
  1
AC1014
  9
$HANDSEED
  5
FFFF
  9
$MEASUREMENT
 70
     1
  0
ENDSEC
  0
SECTION
  2
TABLES
  0
TABLE
  2
VPORT
  5
8
330
0
100
AcDbSymbolTable
 70
     4
  0
VPORT
  5
2E
330
8
100
AcDbSymbolTableRecord
100
AcDbViewportTableRecord
  2
*ACTIVE
 70
     0
 10
0.0
 20
0.0
 11
1.0
 21
1.0
 12
210.0
 22
148.5
 13
0.0
 23
0.0
 14
10.0
 24
10.0
 15
10.0
 25
10.0
 16
0.0
 26
0.0
 36
1.0
 17
0.0
 27
0.0
 37
0.0
 40
341.0
 41
1.24
 42
50.0
 43
0.0
 44
0.0
 50
0.0
 51
0.0
 71
     0
 72
   100
 73
     1
 74
     3
 75
     0
 76
     0
 77
     0
 78
     0
  0
ENDTAB
  0
TABLE
  2
LTYPE
  5
5
330
0
100
AcDbSymbolTable
 70
     1
  0
LTYPE
  5
14
330
5
100
AcDbSymbolTableRecord
100
AcDbLinetypeTableRecord
  2
BYBLOCK
 70
     0
  3

 72
    65
 73
     0
 40
0.0
  0
LTYPE
  5
15
330
5
100
AcDbSymbolTableRecord
100
AcDbLinetypeTableRecord
  2
BYLAYER
 70
     0
  3

 72
    65
 73
     0
 40
0.0
  0
LTYPE
  5
16
330
5
100
AcDbSymbolTableRecord
100
AcDbLinetypeTableRecord
  2
CONTINUOUS
 70
     0
  3
Solid line
 72
    65
 73
     0
 40
0.0
  0
ENDTAB
  0
TABLE
  2
LAYER
  5
2
100
AcDbSymbolTable
 70
2
  0
LAYER
  5
50
100
AcDbSymbolTableRecord
100
AcDbLayerTableRecord
  2
0
 70
0
  6
CONTINUOUS
  0
LAYER
  5
51
100
AcDbSymbolTableRecord
100
AcDbLayerTableRecord
  2
Layer_1
 70
0
  6
CONTINUOUS
  0
ENDTAB
  0
TABLE
  2
STYLE
  5
3
330
0
100
AcDbSymbolTable
 70
     1
  0
STYLE
  5
11
330
3
100
AcDbSymbolTableRecord
100
AcDbTextStyleTableRecord
  2
STANDARD
 70
     0
 40
0.0
 41
1.0
 50
0.0
 71
     0
 42
2.5
  3
txt
  4

  0
ENDTAB
  0
TABLE
  2
VIEW
  5
6
330
0
100
AcDbSymbolTable
 70
     0
  0
ENDTAB
  0
TABLE
  2
UCS
  5
7
330
0
100
AcDbSymbolTable
 70
     0
  0
ENDTAB
  0
TABLE
  2
APPID
  5
9
330
0
100
AcDbSymbolTable
 70
     2
  0
APPID
  5
12
330
9
100
AcDbSymbolTableRecord
100
AcDbRegAppTableRecord
  2
ACAD
 70
     0
  0
ENDTAB
  0
TABLE
  2
DIMSTYLE
  5
A
330
0
100
AcDbSymbolTable
 70
     1
  0
DIMSTYLE
105
27
330
A
100
AcDbSymbolTableRecord
100
AcDbDimStyleTableRecord
  2
ISO-25
 70
     0
  3

  4

  5

  6

  7

 40
1.0
 41
2.5
 42
0.625
 43
3.75
 44
1.25
 45
0.0
 46
0.0
 47
0.0
 48
0.0
140
2.5
141
2.5
142
0.0
143
0.03937007874016
144
1.0
145
0.0
146
1.0
147
0.625
 71
     0
 72
     0
 73
     0
 74
     0
 75
     0
 76
     0
 77
     1
 78
     8
170
     0
171
     3
172
     1
173
     0
174
     0
175
     0
176
     0
177
     0
178
     0
270
     2
271
     2
272
     2
273
     2
274
     3
340
11
275
     0
280
     0
281
     0
282
     0
283
     0
284
     8
285
     0
286
     0
287
     3
288
     0
  0
ENDTAB
  0
TABLE
  2
BLOCK_RECORD
  5
1
330
0
100
AcDbSymbolTable
 70
     1
  0
BLOCK_RECORD
  5
1F
330
1
100
AcDbSymbolTableRecord
100
AcDbBlockTableRecord
  2
*MODEL_SPACE
  0
BLOCK_RECORD
  5
1B
330
1
100
AcDbSymbolTableRecord
100
AcDbBlockTableRecord
  2
*PAPER_SPACE
  0
ENDTAB
  0
ENDSEC
  0
SECTION
  2
BLOCKS
  0
BLOCK
  5
20
330
1F
100
AcDbEntity
  8
0
100
AcDbBlockBegin
  2
*MODEL_SPACE
 70
     0
 10
0.0
 20
0.0
 30
0.0
  3
*MODEL_SPACE
  1

  0
ENDBLK
  5
21
330
1F
100
AcDbEntity
  8
0
100
AcDbBlockEnd
  0
BLOCK
  5
1C
330
1B
100
AcDbEntity
 67
     1
  8
0
100
AcDbBlockBegin
  2
*PAPER_SPACE
  1

  0
ENDBLK
  5
1D
330
1B
100
AcDbEntity
 67
     1
  8
0
100
AcDbBlockEnd
  0
ENDSEC
  0
SECTION
  2
ENTITIES
  0
SPLINE
  5
100
100
AcDbEntity
  8
Layer_1
 62
7
100
AcDbSpline
 70
8
 71
3
 72
8
 73
4
 74
0
 40
0
 40
0
 40
0
 40
0
 40
1
 40
1
 40
1
 40
1
 10
1.875644
 20
0.137114
 30
0.0
 10
1.540900
 20
0.381254
 30
0.0
 10
1.205885
 20
0.625395
 30
0.0
 10
0.871141
 20
0.869535
 30
0.0
  0
SPLINE
  5
101
100
AcDbEntity
  8
Layer_1
 62
7
100
AcDbSpline
 70
8
 71
3
 72
8
 73
4
 74
0
 40
0
 40
0
 40
0
 40
0
 40
1
 40
1
 40
1
 40
1
 10
0.871141
 20
0.869535
 30
0.0
 10
0.704041
 20
0.991606
 30
0.0
 10
0.536668
 20
1.113405
 30
0.0
 10
0.369568
 20
1.235474
 30
0.0
  0
SPLINE
  5
102
100
AcDbEntity
  8
Layer_1
 62
7
100
AcDbSpline
 70
8
 71
3
 72
8
 73
4
 74
0
 40
0
 40
0
 40
0
 40
0
 40
1
 40
1
 40
1
 40
1
 10
0.369568
 20
1.235474
 30
0.0
 10
0.327793
 20
1.265856
 30
0.0
 10
0.286018
 20
1.296510
 30
0.0
 10
0.244243
 20
1.326891
 30
0.0
  0
SPLINE
  5
103
100
AcDbEntity
  8
Layer_1
 62
7
100
AcDbSpline
 70
8
 71
3
 72
8
 73
4
 74
0
 40
0
 40
0
 40
0
 40
0
 40
1
 40
1
 40
1
 40
1
 10
0.244243
 20
1.326891
 30
0.0
 10
0.202196
 20
1.357545
 30
0.0
 10
0.161778
 20
1.388740
 30
0.0
 10
0.127598
 20
1.428889
 30
0.0
  0
SPLINE
  5
104
100
AcDbEntity
  8
Layer_1
 62
7
100
AcDbSpline
 70
8
 71
3
 72
8
 73
4
 74
0
 40
0
 40
0
 40
0
 40
0
 40
1
 40
1
 40
1
 40
1
 10
0.127598
 20
1.428889
 30
0.0
 10
0.059781
 20
1.508641
 30
0.0
 10
0.018819
 20
1.607382
 30
0.0
 10
0.010410
 20
1.711821
 30
0.0
  0
SPLINE
  5
105
100
AcDbEntity
  8
Layer_1
 62
7
100
AcDbSpline
 70
8
 71
3
 72
8
 73
4
 74
0
 40
0
 40
0
 40
0
 40
0
 40
1
 40
1
 40
1
 40
1
 10
0.010410
 20
1.711821
 30
0.0
 10
0.006070
 20
1.764988
 30
0.0
 10
0.009855
 20
1.815716
 30
0.0
 10
0.022075
 20
1.867799
 30
0.0
  0
SPLINE
  5
106
100
AcDbEntity
  8
Layer_1
 62
7
100
AcDbSpline
 70
8
 71
3
 72
8
 73
4
 74
0
 40
0
 40
0
 40
0
 40
0
 40
1
 40
1
 40
1
 40
1
 10
0.022075
 20
1.867799
 30
0.0
 10
0.034010
 20
1.918797
 30
0.0
 10
0.055441
 20
1.964913
 30
0.0
 10
0.078227
 20
2.011571
 30
0.0
  0
SPLINE
  5
107
100
AcDbEntity
  8
Layer_1
 62
7
100
AcDbSpline
 70
8
 71
3
 72
8
 73
4
 74
0
 40
0
 40
0
 40
0
 40
0
 40
1
 40
1
 40
1
 40
1
 10
0.078227
 20
2.011571
 30
0.0
 10
0.123800
 20
2.104073
 30
0.0
 10
0.168830
 20
2.196574
 30
0.0
 10
0.214403
 20
2.289348
 30
0.0
  0
SPLINE
  5
108
100
AcDbEntity
  8
Layer_1
 62
7
100
AcDbSpline
 70
8
 71
3
 72
8
 73
4
 74
0
 40
0
 40
0
 40
0
 40
0
 40
1
 40
1
 40
1
 40
1
 10
0.214403
 20
2.289348
 30
0.0
 10
0.305278
 20
2.475439
 30
0.0
 10
0.396423
 20
2.661799
 30
0.0
 10
0.487298
 20
2.847887
 30
0.0
  0
SPLINE
  5
109
100
AcDbEntity
  8
Layer_1
 62
7
100
AcDbSpline
 70
8
 71
3
 72
8
 73
4
 74
0
 40
0
 40
0
 40
0
 40
0
 40
1
 40
1
 40
1
 40
1
 10
0.487298
 20
2.847887
 30
0.0
 10
0.669318
 20
3.220067
 30
0.0
 10
0.851339
 20
3.592517
 30
0.0
 10
1.033630
 20
3.964697
 30
0.0
  0
SPLINE
  5
10a
100
AcDbEntity
  8
Layer_1
 62
7
100
AcDbSpline
 70
8
 71
3
 72
8
 73
4
 74
0
 40
0
 40
0
 40
0
 40
0
 40
1
 40
1
 40
1
 40
1
 10
1.601936
 20
3.921021
 30
0.0
 10
1.607630
 20
3.857002
 30
0.0
 10
1.613057
 20
3.793254
 30
0.0
 10
1.618754
 20
3.729236
 30
0.0
  0
SPLINE
  5
10b
100
AcDbEntity
  8
Layer_1
 62
7
100
AcDbSpline
 70
8
 71
3
 72
8
 73
4
 74
0
 40
0
 40
0
 40
0
 40
0
 40
1
 40
1
 40
1
 40
1
 10
1.618754
 20
3.729236
 30
0.0
 10
1.621469
 20
3.697498
 30
0.0
 10
1.622823
 20
3.666031
 30
0.0
 10
1.632046
 20
3.635106
 30
0.0
  0
SPLINE
  5
10c
100
AcDbEntity
  8
Layer_1
 62
7
100
AcDbSpline
 70
8
 71
3
 72
8
 73
4
 74
0
 40
0
 40
0
 40
0
 40
0
 40
1
 40
1
 40
1
 40
1
 10
1.632046
 20
3.635106
 30
0.0
 10
1.641541
 20
3.602283
 30
0.0
 10
1.656460
 20
3.574342
 30
0.0
 10
1.677891
 20
3.547758
 30
0.0
  0
SPLINE
  5
10d
100
AcDbEntity
  8
Layer_1
 62
7
100
AcDbSpline
 70
8
 71
3
 72
8
 73
4
 74
0
 40
0
 40
0
 40
0
 40
0
 40
1
 40
1
 40
1
 40
1
 10
1.677891
 20
3.547758
 30
0.0
 10
1.723192
 20
3.492149
 30
0.0
 10
1.779887
 20
3.472074
 30
0.0
 10
1.843364
 20
3.452000
 30
0.0
  0
SPLINE
  5
10e
100
AcDbEntity
  8
Layer_1
 62
7
100
AcDbSpline
 70
8
 71
3
 72
8
 73
4
 74
0
 40
0
 40
0
 40
0
 40
0
 40
1
 40
1
 40
1
 40
1
 10
1.843364
 20
3.452000
 30
0.0
 10
1.904399
 20
3.432199
 30
0.0
 10
1.965976
 20
3.414295
 30
0.0
 10
2.028368
 20
3.397748
 30
0.0
  0
SPLINE
  5
10f
100
AcDbEntity
  8
Layer_1
 62
7
100
AcDbSpline
 70
8
 71
3
 72
8
 73
4
 74
0
 40
0
 40
0
 40
0
 40
0
 40
1
 40
1
 40
1
 40
1
 10
2.028368
 20
3.397748
 30
0.0
 10
2.279833
 20
3.330744
 30
0.0
 10
2.531840
 20
3.289240
 30
0.0
 10
2.791443
 20
3.271880
 30
0.0
  0
SPLINE
  5
110
100
AcDbEntity
  8
Layer_1
 62
7
100
AcDbSpline
 70
8
 71
3
 72
8
 73
4
 74
0
 40
0
 40
0
 40
0
 40
0
 40
1
 40
1
 40
1
 40
1
 10
2.791443
 20
3.271880
 30
0.0
 10
2.920566
 20
3.263199
 30
0.0
 10
3.049418
 20
3.262923
 30
0.0
 10
3.178541
 20
3.262923
 30
0.0
  0
SPLINE
  5
111
100
AcDbEntity
  8
Layer_1
 62
7
100
AcDbSpline
 70
8
 71
3
 72
8
 73
4
 74
0
 40
0
 40
0
 40
0
 40
0
 40
1
 40
1
 40
1
 40
1
 10
3.178541
 20
3.262923
 30
0.0
 10
3.307665
 20
3.262923
 30
0.0
 10
3.436788
 20
3.262923
 30
0.0
 10
3.565912
 20
3.262923
 30
0.0
  0
SPLINE
  5
112
100
AcDbEntity
  8
Layer_1
 62
7
100
AcDbSpline
 70
8
 71
3
 72
8
 73
4
 74
0
 40
0
 40
0
 40
0
 40
0
 40
1
 40
1
 40
1
 40
1
 10
3.565912
 20
3.262923
 30
0.0
 10
3.588427
 20
3.262923
 30
0.0
 10
3.731656
 20
3.262136
 30
0.0
 10
3.754170
 20
3.265088
 30
0.0
  0
SPLINE
  5
113
100
AcDbEntity
  8
Layer_1
 62
7
100
AcDbSpline
 70
8
 71
3
 72
8
 73
4
 74
0
 40
0
 40
0
 40
0
 40
0
 40
1
 40
1
 40
1
 40
1
 10
3.754170
 20
3.265088
 30
0.0
 10
3.820632
 20
3.273494
 30
0.0
 10
3.880853
 20
3.308492
 30
0.0
 10
3.921543
 20
3.361931
 30
0.0
  0
SPLINE
  5
114
100
AcDbEntity
  8
Layer_1
 62
7
100
AcDbSpline
 70
8
 71
3
 72
8
 73
4
 74
0
 40
0
 40
0
 40
0
 40
0
 40
1
 40
1
 40
1
 40
1
 10
3.921543
 20
3.361931
 30
0.0
 10
3.969014
 20
3.424323
 30
0.0
 10
3.969828
 20
3.472336
 30
0.0
 10
3.976068
 20
3.544765
 30
0.0
  0
SPLINE
  5
115
100
AcDbEntity
  8
Layer_1
 62
7
100
AcDbSpline
 70
8
 71
3
 72
8
 73
4
 74
0
 40
0
 40
0
 40
0
 40
0
 40
1
 40
1
 40
1
 40
1
 10
3.976068
 20
3.544765
 30
0.0
 10
3.981763
 20
3.609055
 30
0.0
 10
3.987461
 20
3.673074
 30
0.0
 10
3.992887
 20
3.737092
 30
0.0
  0
LWPOLYLINE
  5
116
100
AcDbEntity
  8
Layer_1
 62
7
100
AcDbPolyline
 90
2
 70
0
 10
1.033630
 20
3.964697
 30
0.0
 10
1.601936
 20
3.921021
 30
0.0
  0
SPLINE
  5
117
100
AcDbEntity
  8
Layer_1
 62
7
100
AcDbSpline
 70
8
 71
3
 72
8
 73
4
 74
0
 40
0
 40
0
 40
0
 40
0
 40
1
 40
1
 40
1
 40
1
 10
4.513449
 20
3.697216
 30
0.0
 10
4.519144
 20
3.631299
 30
0.0
 10
4.524843
 20
3.565651
 30
0.0
 10
4.530538
 20
3.499734
 30
0.0
  0
SPLINE
  5
118
100
AcDbEntity
  8
Layer_1
 62
7
100
AcDbSpline
 70
8
 71
3
 72
8
 73
4
 74
0
 40
0
 40
0
 40
0
 40
0
 40
1
 40
1
 40
1
 40
1
 10
4.530538
 20
3.499734
 30
0.0
 10
4.537323
 20
3.425136
 30
0.0
 10
4.560377
 20
3.371697
 30
0.0
 10
4.618429
 20
3.322596
 30
0.0
  0
SPLINE
  5
119
100
AcDbEntity
  8
Layer_1
 62
7
100
AcDbSpline
 70
8
 71
3
 72
8
 73
4
 74
0
 40
0
 40
0
 40
0
 40
0
 40
1
 40
1
 40
1
 40
1
 10
4.618429
 20
3.322596
 30
0.0
 10
4.675937
 20
3.273769
 30
0.0
 10
4.734531
 20
3.262919
 30
0.0
 10
4.806145
 20
3.262919
 30
0.0
  0
SPLINE
  5
11a
100
AcDbEntity
  8
Layer_1
 62
7
100
AcDbSpline
 70
8
 71
3
 72
8
 73
4
 74
0
 40
0
 40
0
 40
0
 40
0
 40
1
 40
1
 40
1
 40
1
 10
4.806145
 20
3.262919
 30
0.0
 10
4.872335
 20
3.262919
 30
0.0
 10
4.938253
 20
3.262919
 30
0.0
 10
5.004442
 20
3.262919
 30
0.0
  0
SPLINE
  5
11b
100
AcDbEntity
  8
Layer_1
 62
7
100
AcDbSpline
 70
8
 71
3
 72
8
 73
4
 74
0
 40
0
 40
0
 40
0
 40
0
 40
1
 40
1
 40
1
 40
1
 10
5.004442
 20
3.262919
 30
0.0
 10
5.268927
 20
3.262919
 30
0.0
 10
5.533413
 20
3.262919
 30
0.0
 10
5.797899
 20
3.262919
 30
0.0
  0
SPLINE
  5
11c
100
AcDbEntity
  8
Layer_1
 62
7
100
AcDbSpline
 70
8
 71
3
 72
8
 73
4
 74
0
 40
0
 40
0
 40
0
 40
0
 40
1
 40
1
 40
1
 40
1
 10
5.797899
 20
3.262919
 30
0.0
 10
6.063741
 20
3.262919
 30
0.0
 10
6.329854
 20
3.262919
 30
0.0
 10
6.595696
 20
3.262919
 30
0.0
  0
SPLINE
  5
11d
100
AcDbEntity
  8
Layer_1
 62
7
100
AcDbSpline
 70
8
 71
3
 72
8
 73
4
 74
0
 40
0
 40
0
 40
0
 40
0
 40
1
 40
1
 40
1
 40
1
 10
6.595696
 20
3.262919
 30
0.0
 10
6.728618
 20
3.262919
 30
0.0
 10
6.861538
 20
3.262919
 30
0.0
 10
6.994731
 20
3.262919
 30
0.0
  0
SPLINE
  5
11e
100
AcDbEntity
  8
Layer_1
 62
7
100
AcDbSpline
 70
8
 71
3
 72
8
 73
4
 74
0
 40
0
 40
0
 40
0
 40
0
 40
1
 40
1
 40
1
 40
1
 10
6.994731
 20
3.262919
 30
0.0
 10
7.061191
 20
3.262919
 30
0.0
 10
7.127652
 20
3.262919
 30
0.0
 10
7.194112
 20
3.262919
 30
0.0
  0
SPLINE
  5
11f
100
AcDbEntity
  8
Layer_1
 62
7
100
AcDbSpline
 70
8
 71
3
 72
8
 73
4
 74
0
 40
0
 40
0
 40
0
 40
0
 40
1
 40
1
 40
1
 40
1
 10
7.194112
 20
3.262919
 30
0.0
 10
7.259759
 20
3.262919
 30
0.0
 10
7.325406
 20
3.266443
 30
0.0
 10
7.391052
 20
3.261541
 30
0.0
  0
SPLINE
  5
120
100
AcDbEntity
  8
Layer_1
 62
7
100
AcDbSpline
 70
8
 71
3
 72
8
 73
4
 74
0
 40
0
 40
0
 40
0
 40
0
 40
1
 40
1
 40
1
 40
1
 10
7.391052
 20
3.261541
 30
0.0
 10
7.529399
 20
3.251502
 30
0.0
 10
7.657166
 20
3.184771
 30
0.0
 10
7.744513
 20
3.076807
 30
0.0
  0
SPLINE
  5
121
100
AcDbEntity
  8
Layer_1
 62
7
100
AcDbSpline
 70
8
 71
3
 72
8
 73
4
 74
0
 40
0
 40
0
 40
0
 40
0
 40
1
 40
1
 40
1
 40
1
 10
7.744513
 20
3.076807
 30
0.0
 10
7.789272
 20
3.021199
 30
0.0
 10
7.819112
 20
2.962876
 30
0.0
 10
7.837829
 20
2.893974
 30
0.0
  0
SPLINE
  5
122
100
AcDbEntity
  8
Layer_1
 62
7
100
AcDbSpline
 70
8
 71
3
 72
8
 73
4
 74
0
 40
0
 40
0
 40
0
 40
0
 40
1
 40
1
 40
1
 40
1
 10
7.837829
 20
2.893974
 30
0.0
 10
7.855190
 20
2.830226
 30
0.0
 10
7.855190
 20
2.767291
 30
0.0
 10
7.855190
 20
2.702730
 30
0.0
  0
SPLINE
  5
123
100
AcDbEntity
  8
Layer_1
 62
7
100
AcDbSpline
 70
8
 71
3
 72
8
 73
4
 74
0
 40
0
 40
0
 40
0
 40
0
 40
1
 40
1
 40
1
 40
1
 10
7.855190
 20
2.702730
 30
0.0
 10
7.855190
 20
2.440685
 30
0.0
 10
7.855190
 20
2.178098
 30
0.0
 10
7.855190
 20
1.915783
 30
0.0
  0
SPLINE
  5
124
100
AcDbEntity
  8
Layer_1
 62
7
100
AcDbSpline
 70
8
 71
3
 72
8
 73
4
 74
0
 40
0
 40
0
 40
0
 40
0
 40
1
 40
1
 40
1
 40
1
 10
7.855190
 20
1.915783
 30
0.0
 10
7.855190
 20
1.850137
 30
0.0
 10
7.855190
 20
1.784490
 30
0.0
 10
7.855190
 20
1.719114
 30
0.0
  0
SPLINE
  5
125
100
AcDbEntity
  8
Layer_1
 62
7
100
AcDbSpline
 70
8
 71
3
 72
8
 73
4
 74
0
 40
0
 40
0
 40
0
 40
0
 40
1
 40
1
 40
1
 40
1
 10
7.855190
 20
1.719114
 30
0.0
 10
7.855190
 20
1.654824
 30
0.0
 10
7.858176
 20
1.591348
 30
0.0
 10
7.845152
 20
1.527328
 30
0.0
  0
SPLINE
  5
126
100
AcDbEntity
  8
Layer_1
 62
7
100
AcDbSpline
 70
8
 71
3
 72
8
 73
4
 74
0
 40
0
 40
0
 40
0
 40
0
 40
1
 40
1
 40
1
 40
1
 10
7.845152
 20
1.527328
 30
0.0
 10
7.816669
 20
1.389254
 30
0.0
 10
7.731491
 20
1.269624
 30
0.0
 10
7.610235
 20
1.197738
 30
0.0
  0
SPLINE
  5
127
100
AcDbEntity
  8
Layer_1
 62
7
100
AcDbSpline
 70
8
 71
3
 72
8
 73
4
 74
0
 40
0
 40
0
 40
0
 40
0
 40
1
 40
1
 40
1
 40
1
 10
7.610235
 20
1.197738
 30
0.0
 10
7.473516
 20
1.116901
 30
0.0
 10
7.374774
 20
1.127752
 30
0.0
 10
7.228290
 20
1.127752
 30
0.0
  0
SPLINE
  5
128
100
AcDbEntity
  8
Layer_1
 62
7
100
AcDbSpline
 70
8
 71
3
 72
8
 73
4
 74
0
 40
0
 40
0
 40
0
 40
0
 40
1
 40
1
 40
1
 40
1
 10
7.228290
 20
1.127752
 30
0.0
 10
7.097268
 20
1.127752
 30
0.0
 10
6.965974
 20
1.127752
 30
0.0
 10
6.834953
 20
1.127752
 30
0.0
  0
SPLINE
  5
129
100
AcDbEntity
  8
Layer_1
 62
7
100
AcDbSpline
 70
8
 71
3
 72
8
 73
4
 74
0
 40
0
 40
0
 40
0
 40
0
 40
1
 40
1
 40
1
 40
1
 10
6.834953
 20
1.127752
 30
0.0
 10
6.302997
 20
1.127752
 30
0.0
 10
5.771042
 20
1.127752
 30
0.0
 10
5.239087
 20
1.127752
 30
0.0
  0
SPLINE
  5
12a
100
AcDbEntity
  8
Layer_1
 62
7
100
AcDbSpline
 70
8
 71
3
 72
8
 73
4
 74
0
 40
0
 40
0
 40
0
 40
0
 40
1
 40
1
 40
1
 40
1
 10
5.239087
 20
1.127752
 30
0.0
 10
5.109149
 20
1.127752
 30
0.0
 10
4.979213
 20
1.124760
 30
0.0
 10
4.849004
 20
1.127949
 30
0.0
  0
SPLINE
  5
12b
100
AcDbEntity
  8
Layer_1
 62
7
100
AcDbSpline
 70
8
 71
3
 72
8
 73
4
 74
0
 40
0
 40
0
 40
0
 40
0
 40
1
 40
1
 40
1
 40
1
 10
4.849004
 20
1.127949
 30
0.0
 10
4.780916
 20
1.129523
 30
0.0
 10
4.716626
 20
1.158874
 30
0.0
 10
4.670510
 20
1.209328
 30
0.0
  0
SPLINE
  5
12c
100
AcDbEntity
  8
Layer_1
 62
7
100
AcDbSpline
 70
8
 71
3
 72
8
 73
4
 74
0
 40
0
 40
0
 40
0
 40
0
 40
1
 40
1
 40
1
 40
1
 10
4.670510
 20
1.209328
 30
0.0
 10
4.620597
 20
1.264395
 30
0.0
 10
4.605406
 20
1.320277
 30
0.0
 10
4.605406
 20
1.392163
 30
0.0
  0
SPLINE
  5
12d
100
AcDbEntity
  8
Layer_1
 62
7
100
AcDbSpline
 70
8
 71
3
 72
8
 73
4
 74
0
 40
0
 40
0
 40
0
 40
0
 40
1
 40
1
 40
1
 40
1
 10
4.605406
 20
1.392163
 30
0.0
 10
4.605406
 20
1.446417
 30
0.0
 10
4.610288
 20
1.529695
 30
0.0
 10
4.591028
 20
1.584220
 30
0.0
  0
SPLINE
  5
12e
100
AcDbEntity
  8
Layer_1
 62
7
100
AcDbSpline
 70
8
 71
3
 72
8
 73
4
 74
0
 40
0
 40
0
 40
0
 40
0
 40
1
 40
1
 40
1
 40
1
 10
4.591028
 20
1.584220
 30
0.0
 10
4.567699
 20
1.650681
 30
0.0
 10
4.517515
 20
1.704120
 30
0.0
 10
4.452682
 20
1.731517
 30
0.0
  0
SPLINE
  5
12f
100
AcDbEntity
  8
Layer_1
 62
7
100
AcDbSpline
 70
8
 71
3
 72
8
 73
4
 74
0
 40
0
 40
0
 40
0
 40
0
 40
1
 40
1
 40
1
 40
1
 10
4.452682
 20
1.731517
 30
0.0
 10
4.322202
 20
1.786584
 30
0.0
 10
4.173005
 20
1.723112
 30
0.0
 10
4.122007
 20
1.591002
 30
0.0
  0
SPLINE
  5
130
100
AcDbEntity
  8
Layer_1
 62
7
100
AcDbSpline
 70
8
 71
3
 72
8
 73
4
 74
0
 40
0
 40
0
 40
0
 40
0
 40
1
 40
1
 40
1
 40
1
 10
4.122007
 20
1.591002
 30
0.0
 10
4.109800
 20
1.559535
 30
0.0
 10
4.105188
 20
1.528338
 30
0.0
 10
4.105188
 20
1.494972
 30
0.0
  0
SPLINE
  5
131
100
AcDbEntity
  8
Layer_1
 62
7
100
AcDbSpline
 70
8
 71
3
 72
8
 73
4
 74
0
 40
0
 40
0
 40
0
 40
0
 40
1
 40
1
 40
1
 40
1
 10
4.105188
 20
1.494972
 30
0.0
 10
4.105188
 20
1.461608
 30
0.0
 10
4.105188
 20
1.428511
 30
0.0
 10
4.105188
 20
1.395417
 30
0.0
  0
SPLINE
  5
132
100
AcDbEntity
  8
Layer_1
 62
7
100
AcDbSpline
 70
8
 71
3
 72
8
 73
4
 74
0
 40
0
 40
0
 40
0
 40
0
 40
1
 40
1
 40
1
 40
1
 10
4.105188
 20
1.395417
 30
0.0
 10
4.105188
 20
1.328958
 30
0.0
 10
4.105188
 20
1.262498
 30
0.0
 10
4.105188
 20
1.196037
 30
0.0
  0
SPLINE
  5
133
100
AcDbEntity
  8
Layer_1
 62
7
100
AcDbSpline
 70
8
 71
3
 72
8
 73
4
 74
0
 40
0
 40
0
 40
0
 40
0
 40
1
 40
1
 40
1
 40
1
 10
4.105188
 20
1.196037
 30
0.0
 10
4.105188
 20
1.129576
 30
0.0
 10
4.105188
 20
1.063116
 30
0.0
 10
4.105188
 20
0.996655
 30
0.0
  0
SPLINE
  5
134
100
AcDbEntity
  8
Layer_1
 62
7
100
AcDbSpline
 70
8
 71
3
 72
8
 73
4
 74
0
 40
0
 40
0
 40
0
 40
0
 40
1
 40
1
 40
1
 40
1
 10
4.105188
 20
0.996655
 30
0.0
 10
4.105188
 20
0.963832
 30
0.0
 10
4.106822
 20
0.931279
 30
0.0
 10
4.099765
 20
0.898185
 30
0.0
  0
SPLINE
  5
135
100
AcDbEntity
  8
Layer_1
 62
7
100
AcDbSpline
 70
8
 71
3
 72
8
 73
4
 74
0
 40
0
 40
0
 40
0
 40
0
 40
1
 40
1
 40
1
 40
1
 10
4.099765
 20
0.898185
 30
0.0
 10
4.092168
 20
0.863462
 30
0.0
 10
4.078877
 20
0.833624
 30
0.0
 10
4.058261
 20
0.804868
 30
0.0
  0
SPLINE
  5
136
100
AcDbEntity
  8
Layer_1
 62
7
100
AcDbSpline
 70
8
 71
3
 72
8
 73
4
 74
0
 40
0
 40
0
 40
0
 40
0
 40
1
 40
1
 40
1
 40
1
 10
4.058261
 20
0.804868
 30
0.0
 10
4.015129
 20
0.744919
 30
0.0
 10
3.956264
 20
0.722132
 30
0.0
 10
3.894415
 20
0.693921
 30
0.0
  0
SPLINE
  5
137
100
AcDbEntity
  8
Layer_1
 62
7
100
AcDbSpline
 70
8
 71
3
 72
8
 73
4
 74
0
 40
0
 40
0
 40
0
 40
0
 40
1
 40
1
 40
1
 40
1
 10
3.894415
 20
0.693921
 30
0.0
 10
3.834194
 20
0.666523
 30
0.0
 10
3.773701
 20
0.638854
 30
0.0
 10
3.713208
 20
0.611456
 30
0.0
  0
SPLINE
  5
138
100
AcDbEntity
  8
Layer_1
 62
7
100
AcDbSpline
 70
8
 71
3
 72
8
 73
4
 74
0
 40
0
 40
0
 40
0
 40
0
 40
1
 40
1
 40
1
 40
1
 10
3.713208
 20
0.611456
 30
0.0
 10
3.592223
 20
0.556116
 30
0.0
 10
3.471238
 20
0.501049
 30
0.0
 10
3.350524
 20
0.445982
 30
0.0
  0
SPLINE
  5
139
100
AcDbEntity
  8
Layer_1
 62
7
100
AcDbSpline
 70
8
 71
3
 72
8
 73
4
 74
0
 40
0
 40
0
 40
0
 40
0
 40
1
 40
1
 40
1
 40
1
 10
3.350524
 20
0.445982
 30
0.0
 10
3.109910
 20
0.336389
 30
0.0
 10
2.869296
 20
0.226799
 30
0.0
 10
2.628953
 20
0.117206
 30
0.0
  0
SPLINE
  5
13a
100
AcDbEntity
  8
Layer_1
 62
7
100
AcDbSpline
 70
8
 71
3
 72
8
 73
4
 74
0
 40
0
 40
0
 40
0
 40
0
 40
1
 40
1
 40
1
 40
1
 10
2.628953
 20
0.117206
 30
0.0
 10
2.492234
 20
0.055086
 30
0.0
 10
2.408955
 20
0.007614
 30
0.0
 10
2.250263
 20
0.008699
 30
0.0
  0
SPLINE
  5
13b
100
AcDbEntity
  8
Layer_1
 62
7
100
AcDbSpline
 70
8
 71
3
 72
8
 73
4
 74
0
 40
0
 40
0
 40
0
 40
0
 40
1
 40
1
 40
1
 40
1
 10
2.250263
 20
0.008699
 30
0.0
 10
2.114902
 20
0.009880
 30
0.0
 10
1.983336
 20
0.054815
 30
0.0
 10
1.875643
 20
0.137010
 30
0.0
  0
LWPOLYLINE
  5
13c
100
AcDbEntity
  8
Layer_1
 62
7
100
AcDbPolyline
 90
2
 70
0
 10
3.992887
 20
3.737092
 30
0.0
 10
4.513449
 20
3.697216
 30
0.0
  0
SPLINE
  5
13d
100
AcDbEntity
  8
Layer_1
 62
7
100
AcDbSpline
 70
8
 71
3
 72
8
 73
4
 74
0
 40
0
 40
0
 40
0
 40
0
 40
1
 40
1
 40
1
 40
1
 10
7.605354
 20
1.501317
 30
0.0
 10
7.605354
 20
1.570218
 30
0.0
 10
7.549473
 20
1.626372
 30
0.0
 10
7.480299
 20
1.626372
 30
0.0
  0
SPLINE
  5
13e
100
AcDbEntity
  8
Layer_1
 62
7
100
AcDbSpline
 70
8
 71
3
 72
8
 73
4
 74
0
 40
0
 40
0
 40
0
 40
0
 40
1
 40
1
 40
1
 40
1
 10
7.480299
 20
1.626372
 30
0.0
 10
7.411398
 20
1.626372
 30
0.0
 10
7.355245
 20
1.570218
 30
0.0
 10
7.355245
 20
1.501317
 30
0.0
  0
SPLINE
  5
13f
100
AcDbEntity
  8
Layer_1
 62
7
100
AcDbSpline
 70
8
 71
3
 72
8
 73
4
 74
0
 40
0
 40
0
 40
0
 40
0
 40
1
 40
1
 40
1
 40
1
 10
7.355245
 20
1.501317
 30
0.0
 10
7.355245
 20
1.432143
 30
0.0
 10
7.411398
 20
1.376263
 30
0.0
 10
7.480299
 20
1.376263
 30
0.0
  0
SPLINE
  5
140
100
AcDbEntity
  8
Layer_1
 62
7
100
AcDbSpline
 70
8
 71
3
 72
8
 73
4
 74
0
 40
0
 40
0
 40
0
 40
0
 40
1
 40
1
 40
1
 40
1
 10
7.480299
 20
1.376263
 30
0.0
 10
7.549473
 20
1.376263
 30
0.0
 10
7.605354
 20
1.432143
 30
0.0
 10
7.605354
 20
1.501317
 30
0.0
  0
LWPOLYLINE
  5
141
100
AcDbEntity
  8
Layer_1
 62
7
100
AcDbPolyline
 90
2
 70
0
 10
1.875643
 20
0.137010
 30
0.0
 10
1.875644
 20
0.137114
 30
0.0
  0
SPLINE
  5
142
100
AcDbEntity
  8
Layer_1
 62
7
100
AcDbSpline
 70
8
 71
3
 72
8
 73
4
 74
0
 40
0
 40
0
 40
0
 40
0
 40
1
 40
1
 40
1
 40
1
 10
2.374776
 20
0.734173
 30
0.0
 10
2.319438
 20
0.800362
 30
0.0
 10
2.220696
 20
0.809043
 30
0.0
 10
2.154778
 20
0.753425
 30
0.0
  0
SPLINE
  5
143
100
AcDbEntity
  8
Layer_1
 62
7
100
AcDbSpline
 70
8
 71
3
 72
8
 73
4
 74
0
 40
0
 40
0
 40
0
 40
0
 40
1
 40
1
 40
1
 40
1
 10
2.154778
 20
0.753425
 30
0.0
 10
2.088589
 20
0.698086
 30
0.0
 10
2.079909
 20
0.599346
 30
0.0
 10
2.135247
 20
0.533427
 30
0.0
  0
SPLINE
  5
144
100
AcDbEntity
  8
Layer_1
 62
7
100
AcDbSpline
 70
8
 71
3
 72
8
 73
4
 74
0
 40
0
 40
0
 40
0
 40
0
 40
1
 40
1
 40
1
 40
1
 10
2.135247
 20
0.533427
 30
0.0
 10
2.190857
 20
0.467238
 30
0.0
 10
2.289598
 20
0.458828
 30
0.0
 10
2.355516
 20
0.514175
 30
0.0
  0
SPLINE
  5
145
100
AcDbEntity
  8
Layer_1
 62
7
100
AcDbSpline
 70
8
 71
3
 72
8
 73
4
 74
0
 40
0
 40
0
 40
0
 40
0
 40
1
 40
1
 40
1
 40
1
 10
2.355516
 20
0.514175
 30
0.0
 10
2.421705
 20
0.569513
 30
0.0
 10
2.430115
 20
0.668254
 30
0.0
 10
2.374776
 20
0.734173
 30
0.0
  0
LWPOLYLINE
  5
146
100
AcDbEntity
  8
Layer_1
 62
7
100
AcDbPolyline
 90
1
 70
1
 10
7.605354
 20
1.501317
 30
0.0
  0
SPLINE
  5
147
100
AcDbEntity
  8
Layer_1
 62
7
100
AcDbSpline
 70
8
 71
3
 72
8
 73
4
 74
0
 40
0
 40
0
 40
0
 40
0
 40
1
 40
1
 40
1
 40
1
 10
3.456862
 20
1.022260
 30
0.0
 10
3.456862
 20
1.091161
 30
0.0
 10
3.400981
 20
1.147043
 30
0.0
 10
3.332079
 20
1.147043
 30
0.0
  0
SPLINE
  5
148
100
AcDbEntity
  8
Layer_1
 62
7
100
AcDbSpline
 70
8
 71
3
 72
8
 73
4
 74
0
 40
0
 40
0
 40
0
 40
0
 40
1
 40
1
 40
1
 40
1
 10
3.332079
 20
1.147043
 30
0.0
 10
3.262906
 20
1.147043
 30
0.0
 10
3.207025
 20
1.091161
 30
0.0
 10
3.207025
 20
1.022260
 30
0.0
  0
SPLINE
  5
149
100
AcDbEntity
  8
Layer_1
 62
7
100
AcDbSpline
 70
8
 71
3
 72
8
 73
4
 74
0
 40
0
 40
0
 40
0
 40
0
 40
1
 40
1
 40
1
 40
1
 10
3.207025
 20
1.022260
 30
0.0
 10
3.207025
 20
0.953086
 30
0.0
 10
3.262906
 20
0.897204
 30
0.0
 10
3.332079
 20
0.897204
 30
0.0
  0
SPLINE
  5
14a
100
AcDbEntity
  8
Layer_1
 62
7
100
AcDbSpline
 70
8
 71
3
 72
8
 73
4
 74
0
 40
0
 40
0
 40
0
 40
0
 40
1
 40
1
 40
1
 40
1
 10
3.332079
 20
0.897204
 30
0.0
 10
3.400981
 20
0.897204
 30
0.0
 10
3.456862
 20
0.953086
 30
0.0
 10
3.456862
 20
1.022260
 30
0.0
  0
LWPOLYLINE
  5
14b
100
AcDbEntity
  8
Layer_1
 62
7
100
AcDbPolyline
 90
1
 70
1
 10
2.374776
 20
0.734173
 30
0.0
  0
SPLINE
  5
14c
100
AcDbEntity
  8
Layer_1
 62
7
100
AcDbSpline
 70
8
 71
3
 72
8
 73
4
 74
0
 40
0
 40
0
 40
0
 40
0
 40
1
 40
1
 40
1
 40
1
 10
6.230299
 20
1.501317
 30
0.0
 10
6.230299
 20
1.570218
 30
0.0
 10
6.174419
 20
1.626372
 30
0.0
 10
6.105245
 20
1.626372
 30
0.0
  0
SPLINE
  5
14d
100
AcDbEntity
  8
Layer_1
 62
7
100
AcDbSpline
 70
8
 71
3
 72
8
 73
4
 74
0
 40
0
 40
0
 40
0
 40
0
 40
1
 40
1
 40
1
 40
1
 10
6.105245
 20
1.626372
 30
0.0
 10
6.036344
 20
1.626372
 30
0.0
 10
5.980191
 20
1.570218
 30
0.0
 10
5.980191
 20
1.501317
 30
0.0
  0
SPLINE
  5
14e
100
AcDbEntity
  8
Layer_1
 62
7
100
AcDbSpline
 70
8
 71
3
 72
8
 73
4
 74
0
 40
0
 40
0
 40
0
 40
0
 40
1
 40
1
 40
1
 40
1
 10
5.980191
 20
1.501317
 30
0.0
 10
5.980191
 20
1.432143
 30
0.0
 10
6.036344
 20
1.376263
 30
0.0
 10
6.105245
 20
1.376263
 30
0.0
  0
SPLINE
  5
14f
100
AcDbEntity
  8
Layer_1
 62
7
100
AcDbSpline
 70
8
 71
3
 72
8
 73
4
 74
0
 40
0
 40
0
 40
0
 40
0
 40
1
 40
1
 40
1
 40
1
 10
6.105245
 20
1.376263
 30
0.0
 10
6.174419
 20
1.376263
 30
0.0
 10
6.230299
 20
1.432143
 30
0.0
 10
6.230299
 20
1.501317
 30
0.0
  0
LWPOLYLINE
  5
150
100
AcDbEntity
  8
Layer_1
 62
7
100
AcDbPolyline
 90
1
 70
1
 10
3.456862
 20
1.022260
 30
0.0
  0
SPLINE
  5
151
100
AcDbEntity
  8
Layer_1
 62
7
100
AcDbSpline
 70
8
 71
3
 72
8
 73
4
 74
0
 40
0
 40
0
 40
0
 40
0
 40
1
 40
1
 40
1
 40
1
 10
0.652771
 20
1.812732
 30
0.0
 10
0.619677
 20
1.892212
 30
0.0
 10
0.528259
 20
1.930191
 30
0.0
 10
0.448778
 20
1.897096
 30
0.0
  0
SPLINE
  5
152
100
AcDbEntity
  8
Layer_1
 62
7
100
AcDbSpline
 70
8
 71
3
 72
8
 73
4
 74
0
 40
0
 40
0
 40
0
 40
0
 40
1
 40
1
 40
1
 40
1
 10
0.448778
 20
1.897096
 30
0.0
 10
0.369025
 20
1.864273
 30
0.0
 10
0.331048
 20
1.772856
 30
0.0
 10
0.364143
 20
1.693104
 30
0.0
  0
SPLINE
  5
153
100
AcDbEntity
  8
Layer_1
 62
7
100
AcDbSpline
 70
8
 71
3
 72
8
 73
4
 74
0
 40
0
 40
0
 40
0
 40
0
 40
1
 40
1
 40
1
 40
1
 10
0.364143
 20
1.693104
 30
0.0
 10
0.397237
 20
1.613350
 30
0.0
 10
0.488655
 20
1.575372
 30
0.0
 10
0.568136
 20
1.608468
 30
0.0
  0
SPLINE
  5
154
100
AcDbEntity
  8
Layer_1
 62
7
100
AcDbSpline
 70
8
 71
3
 72
8
 73
4
 74
0
 40
0
 40
0
 40
0
 40
0
 40
1
 40
1
 40
1
 40
1
 10
0.568136
 20
1.608468
 30
0.0
 10
0.647889
 20
1.641563
 30
0.0
 10
0.685866
 20
1.732980
 30
0.0
 10
0.652771
 20
1.812732
 30
0.0
  0
LWPOLYLINE
  5
155
100
AcDbEntity
  8
Layer_1
 62
7
100
AcDbPolyline
 90
1
 70
1
 10
6.230299
 20
1.501317
 30
0.0
  0
LWPOLYLINE
  5
156
100
AcDbEntity
  8
Layer_1
 62
7
100
AcDbPolyline
 90
1
 70
1
 10
0.652771
 20
1.812732
 30
0.0
  0
ENDSEC
  0
SECTION
  2
OBJECTS
  0
DICTIONARY
  5
C
330
0
100
AcDbDictionary
  3
ACAD_GROUP
350
D
  3
ACAD_MLINESTYLE
350
17
  0
DICTIONARY
  5
D
330
C
100
AcDbDictionary
  0
DICTIONARY
  5
1A
330
C
100
AcDbDictionary
  0
DICTIONARY
  5
17
330
C
100
AcDbDictionary
  3
STANDARD
350
18
  0
DICTIONARY
  5
19
330
C
100
AcDbDictionary
  0
ENDSEC
  0
EOF
