  0
SECTION
  2
HEADER
  9
$ACADVER
  1
AC1014
  9
$HANDSEED
  5
FFFF
  9
$MEASUREMENT
 70
     1
  0
ENDSEC
  0
SECTION
  2
TABLES
  0
TABLE
  2
VPORT
  5
8
330
0
100
AcDbSymbolTable
 70
     4
  0
VPORT
  5
2E
330
8
100
AcDbSymbolTableRecord
100
AcDbViewportTableRecord
  2
*ACTIVE
 70
     0
 10
0.0
 20
0.0
 11
1.0
 21
1.0
 12
210.0
 22
148.5
 13
0.0
 23
0.0
 14
10.0
 24
10.0
 15
10.0
 25
10.0
 16
0.0
 26
0.0
 36
1.0
 17
0.0
 27
0.0
 37
0.0
 40
341.0
 41
1.24
 42
50.0
 43
0.0
 44
0.0
 50
0.0
 51
0.0
 71
     0
 72
   100
 73
     1
 74
     3
 75
     0
 76
     0
 77
     0
 78
     0
  0
ENDTAB
  0
TABLE
  2
LTYPE
  5
5
330
0
100
AcDbSymbolTable
 70
     1
  0
LTYPE
  5
14
330
5
100
AcDbSymbolTableRecord
100
AcDbLinetypeTableRecord
  2
BYBLOCK
 70
     0
  3

 72
    65
 73
     0
 40
0.0
  0
LTYPE
  5
15
330
5
100
AcDbSymbolTableRecord
100
AcDbLinetypeTableRecord
  2
BYLAYER
 70
     0
  3

 72
    65
 73
     0
 40
0.0
  0
LTYPE
  5
16
330
5
100
AcDbSymbolTableRecord
100
AcDbLinetypeTableRecord
  2
CONTINUOUS
 70
     0
  3
Solid line
 72
    65
 73
     0
 40
0.0
  0
ENDTAB
  0
TABLE
  2
LAYER
  5
2
100
AcDbSymbolTable
 70
2
  0
LAYER
  5
50
100
AcDbSymbolTableRecord
100
AcDbLayerTableRecord
  2
0
 70
0
  6
CONTINUOUS
  0
LAYER
  5
51
100
AcDbSymbolTableRecord
100
AcDbLayerTableRecord
  2
Layer_1
 70
0
  6
CONTINUOUS
  0
ENDTAB
  0
TABLE
  2
STYLE
  5
3
330
0
100
AcDbSymbolTable
 70
     1
  0
STYLE
  5
11
330
3
100
AcDbSymbolTableRecord
100
AcDbTextStyleTableRecord
  2
STANDARD
 70
     0
 40
0.0
 41
1.0
 50
0.0
 71
     0
 42
2.5
  3
txt
  4

  0
ENDTAB
  0
TABLE
  2
VIEW
  5
6
330
0
100
AcDbSymbolTable
 70
     0
  0
ENDTAB
  0
TABLE
  2
UCS
  5
7
330
0
100
AcDbSymbolTable
 70
     0
  0
ENDTAB
  0
TABLE
  2
APPID
  5
9
330
0
100
AcDbSymbolTable
 70
     2
  0
APPID
  5
12
330
9
100
AcDbSymbolTableRecord
100
AcDbRegAppTableRecord
  2
ACAD
 70
     0
  0
ENDTAB
  0
TABLE
  2
DIMSTYLE
  5
A
330
0
100
AcDbSymbolTable
 70
     1
  0
DIMSTYLE
105
27
330
A
100
AcDbSymbolTableRecord
100
AcDbDimStyleTableRecord
  2
ISO-25
 70
     0
  3

  4

  5

  6

  7

 40
1.0
 41
2.5
 42
0.625
 43
3.75
 44
1.25
 45
0.0
 46
0.0
 47
0.0
 48
0.0
140
2.5
141
2.5
142
0.0
143
0.03937007874016
144
1.0
145
0.0
146
1.0
147
0.625
 71
     0
 72
     0
 73
     0
 74
     0
 75
     0
 76
     0
 77
     1
 78
     8
170
     0
171
     3
172
     1
173
     0
174
     0
175
     0
176
     0
177
     0
178
     0
270
     2
271
     2
272
     2
273
     2
274
     3
340
11
275
     0
280
     0
281
     0
282
     0
283
     0
284
     8
285
     0
286
     0
287
     3
288
     0
  0
ENDTAB
  0
TABLE
  2
BLOCK_RECORD
  5
1
330
0
100
AcDbSymbolTable
 70
     1
  0
BLOCK_RECORD
  5
1F
330
1
100
AcDbSymbolTableRecord
100
AcDbBlockTableRecord
  2
*MODEL_SPACE
  0
BLOCK_RECORD
  5
1B
330
1
100
AcDbSymbolTableRecord
100
AcDbBlockTableRecord
  2
*PAPER_SPACE
  0
ENDTAB
  0
ENDSEC
  0
SECTION
  2
BLOCKS
  0
BLOCK
  5
20
330
1F
100
AcDbEntity
  8
0
100
AcDbBlockBegin
  2
*MODEL_SPACE
 70
     0
 10
0.0
 20
0.0
 30
0.0
  3
*MODEL_SPACE
  1

  0
ENDBLK
  5
21
330
1F
100
AcDbEntity
  8
0
100
AcDbBlockEnd
  0
BLOCK
  5
1C
330
1B
100
AcDbEntity
 67
     1
  8
0
100
AcDbBlockBegin
  2
*PAPER_SPACE
  1

  0
ENDBLK
  5
1D
330
1B
100
AcDbEntity
 67
     1
  8
0
100
AcDbBlockEnd
  0
ENDSEC
  0
SECTION
  2
ENTITIES
  0
SPLINE
  5
100
100
AcDbEntity
  8
Layer_1
 62
7
100
AcDbSpline
 70
8
 71
3
 72
8
 73
4
 74
0
 40
0
 40
0
 40
0
 40
0
 40
1
 40
1
 40
1
 40
1
 10
1.875928
 20
0.136740
 30
0.0
 10
1.598150
 20
0.339376
 30
0.0
 10
1.320373
 20
0.541742
 30
0.0
 10
1.042594
 20
0.744378
 30
0.0
  0
SPLINE
  5
101
100
AcDbEntity
  8
Layer_1
 62
7
100
AcDbSpline
 70
8
 71
3
 72
8
 73
4
 74
0
 40
0
 40
0
 40
0
 40
0
 40
1
 40
1
 40
1
 40
1
 10
1.042594
 20
0.744378
 30
0.0
 10
0.903976
 20
0.845561
 30
0.0
 10
0.765087
 20
0.946744
 30
0.0
 10
0.626198
 20
1.047927
 30
0.0
  0
SPLINE
  5
102
100
AcDbEntity
  8
Layer_1
 62
7
100
AcDbSpline
 70
8
 71
3
 72
8
 73
4
 74
0
 40
0
 40
0
 40
0
 40
0
 40
1
 40
1
 40
1
 40
1
 10
0.626198
 20
1.047927
 30
0.0
 10
0.487309
 20
1.149380
 30
0.0
 10
0.347607
 20
1.248935
 30
0.0
 10
0.209803
 20
1.351746
 30
0.0
  0
SPLINE
  5
103
100
AcDbEntity
  8
Layer_1
 62
7
100
AcDbSpline
 70
8
 71
3
 72
8
 73
4
 74
0
 40
0
 40
0
 40
0
 40
0
 40
1
 40
1
 40
1
 40
1
 10
0.209803
 20
1.351746
 30
0.0
 10
0.067930
 20
1.457539
 30
0.0
 10
-0.007211
 20
1.629795
 30
0.0
 10
0.011507
 20
1.805576
 30
0.0
  0
SPLINE
  5
104
100
AcDbEntity
  8
Layer_1
 62
7
100
AcDbSpline
 70
8
 71
3
 72
8
 73
4
 74
0
 40
0
 40
0
 40
0
 40
0
 40
1
 40
1
 40
1
 40
1
 10
0.011507
 20
1.805576
 30
0.0
 10
0.022357
 20
1.907301
 30
0.0
 10
0.053282
 20
1.959655
 30
0.0
 10
0.096414
 20
2.048088
 30
0.0
  0
SPLINE
  5
105
100
AcDbEntity
  8
Layer_1
 62
7
100
AcDbSpline
 70
8
 71
3
 72
8
 73
4
 74
0
 40
0
 40
0
 40
0
 40
0
 40
1
 40
1
 40
1
 40
1
 10
0.096414
 20
2.048088
 30
0.0
 10
0.134120
 20
2.125399
 30
0.0
 10
0.172097
 20
2.202441
 30
0.0
 10
0.209803
 20
2.279480
 30
0.0
  0
SPLINE
  5
106
100
AcDbEntity
  8
Layer_1
 62
7
100
AcDbSpline
 70
8
 71
3
 72
8
 73
4
 74
0
 40
0
 40
0
 40
0
 40
0
 40
1
 40
1
 40
1
 40
1
 10
0.209803
 20
2.279480
 30
0.0
 10
0.360627
 20
2.588183
 30
0.0
 10
0.511724
 20
2.896886
 30
0.0
 10
0.662548
 20
3.205858
 30
0.0
  0
SPLINE
  5
107
100
AcDbEntity
  8
Layer_1
 62
7
100
AcDbSpline
 70
8
 71
3
 72
8
 73
4
 74
0
 40
0
 40
0
 40
0
 40
0
 40
1
 40
1
 40
1
 40
1
 10
0.662548
 20
3.205858
 30
0.0
 10
0.679637
 20
3.240309
 30
0.0
 10
0.755050
 20
3.397643
 30
0.0
 10
0.775667
 20
3.430468
 30
0.0
  0
SPLINE
  5
108
100
AcDbEntity
  8
Layer_1
 62
7
100
AcDbSpline
 70
8
 71
3
 72
8
 73
4
 74
0
 40
0
 40
0
 40
0
 40
0
 40
1
 40
1
 40
1
 40
1
 10
0.775667
 20
3.430468
 30
0.0
 10
0.824766
 20
3.508592
 30
0.0
 10
0.884445
 20
3.563931
 30
0.0
 10
0.965825
 20
3.607063
 30
0.0
  0
SPLINE
  5
109
100
AcDbEntity
  8
Layer_1
 62
7
100
AcDbSpline
 70
8
 71
3
 72
8
 73
4
 74
0
 40
0
 40
0
 40
0
 40
0
 40
1
 40
1
 40
1
 40
1
 10
0.965825
 20
3.607063
 30
0.0
 10
1.050732
 20
3.651823
 30
0.0
 10
1.132655
 20
3.669454
 30
0.0
 10
1.228684
 20
3.663758
 30
0.0
  0
SPLINE
  5
10a
100
AcDbEntity
  8
Layer_1
 62
7
100
AcDbSpline
 70
8
 71
3
 72
8
 73
4
 74
0
 40
0
 40
0
 40
0
 40
0
 40
1
 40
1
 40
1
 40
1
 10
1.228684
 20
3.663758
 30
0.0
 10
1.330951
 20
3.657793
 30
0.0
 10
1.377609
 20
3.631476
 30
0.0
 10
1.468211
 20
3.592413
 30
0.0
  0
SPLINE
  5
10b
100
AcDbEntity
  8
Layer_1
 62
7
100
AcDbSpline
 70
8
 71
3
 72
8
 73
4
 74
0
 40
0
 40
0
 40
0
 40
0
 40
1
 40
1
 40
1
 40
1
 10
1.468211
 20
3.592413
 30
0.0
 10
1.785052
 20
3.454882
 30
0.0
 10
2.106505
 20
3.362108
 30
0.0
 10
2.448030
 20
3.309482
 30
0.0
  0
SPLINE
  5
10c
100
AcDbEntity
  8
Layer_1
 62
7
100
AcDbSpline
 70
8
 71
3
 72
8
 73
4
 74
0
 40
0
 40
0
 40
0
 40
0
 40
1
 40
1
 40
1
 40
1
 10
2.448030
 20
3.309482
 30
0.0
 10
2.832688
 20
3.250074
 30
0.0
 10
3.092018
 20
3.262553
 30
0.0
 10
3.477491
 20
3.262553
 30
0.0
  0
SPLINE
  5
10d
100
AcDbEntity
  8
Layer_1
 62
7
100
AcDbSpline
 70
8
 71
3
 72
8
 73
4
 74
0
 40
0
 40
0
 40
0
 40
0
 40
1
 40
1
 40
1
 40
1
 10
3.477491
 20
3.262553
 30
0.0
 10
3.821457
 20
3.262553
 30
0.0
 10
4.165424
 20
3.262553
 30
0.0
 10
4.509121
 20
3.262553
 30
0.0
  0
SPLINE
  5
10e
100
AcDbEntity
  8
Layer_1
 62
7
100
AcDbSpline
 70
8
 71
3
 72
8
 73
4
 74
0
 40
0
 40
0
 40
0
 40
0
 40
1
 40
1
 40
1
 40
1
 10
4.509121
 20
3.262553
 30
0.0
 10
4.679203
 20
3.262553
 30
0.0
 10
4.849288
 20
3.262553
 30
0.0
 10
5.019644
 20
3.262553
 30
0.0
  0
SPLINE
  5
10f
100
AcDbEntity
  8
Layer_1
 62
7
100
AcDbSpline
 70
8
 71
3
 72
8
 73
4
 74
0
 40
0
 40
0
 40
0
 40
0
 40
1
 40
1
 40
1
 40
1
 10
5.019644
 20
3.262553
 30
0.0
 10
5.104280
 20
3.262553
 30
0.0
 10
5.188916
 20
3.265269
 30
0.0
 10
5.273280
 20
3.262356
 30
0.0
  0
SPLINE
  5
110
100
AcDbEntity
  8
Layer_1
 62
7
100
AcDbSpline
 70
8
 71
3
 72
8
 73
4
 74
0
 40
0
 40
0
 40
0
 40
0
 40
1
 40
1
 40
1
 40
1
 10
5.273280
 20
3.262356
 30
0.0
 10
5.363883
 20
3.259108
 30
0.0
 10
5.440652
 20
3.235771
 30
0.0
 10
5.517692
 20
3.188027
 30
0.0
  0
SPLINE
  5
111
100
AcDbEntity
  8
Layer_1
 62
7
100
AcDbSpline
 70
8
 71
3
 72
8
 73
4
 74
0
 40
0
 40
0
 40
0
 40
0
 40
1
 40
1
 40
1
 40
1
 10
5.517692
 20
3.188027
 30
0.0
 10
5.600156
 20
3.137301
 30
0.0
 10
5.657394
 20
3.075181
 30
0.0
 10
5.701068
 20
2.988647
 30
0.0
  0
SPLINE
  5
112
100
AcDbEntity
  8
Layer_1
 62
7
100
AcDbSpline
 70
8
 71
3
 72
8
 73
4
 74
0
 40
0
 40
0
 40
0
 40
0
 40
1
 40
1
 40
1
 40
1
 10
5.701068
 20
2.988647
 30
0.0
 10
5.741487
 20
2.909165
 30
0.0
 10
5.755050
 20
2.830498
 30
0.0
 10
5.755050
 20
2.742880
 30
0.0
  0
SPLINE
  5
113
100
AcDbEntity
  8
Layer_1
 62
7
100
AcDbSpline
 70
8
 71
3
 72
8
 73
4
 74
0
 40
0
 40
0
 40
0
 40
0
 40
1
 40
1
 40
1
 40
1
 10
5.755050
 20
2.742880
 30
0.0
 10
5.755050
 20
2.572793
 30
0.0
 10
5.755050
 20
2.402439
 30
0.0
 10
5.755050
 20
2.232352
 30
0.0
  0
SPLINE
  5
114
100
AcDbEntity
  8
Layer_1
 62
7
100
AcDbSpline
 70
8
 71
3
 72
8
 73
4
 74
0
 40
0
 40
0
 40
0
 40
0
 40
1
 40
1
 40
1
 40
1
 10
5.755050
 20
2.232352
 30
0.0
 10
5.755050
 20
2.062811
 30
0.0
 10
5.755050
 20
1.893269
 30
0.0
 10
5.755050
 20
1.723728
 30
0.0
  0
SPLINE
  5
115
100
AcDbEntity
  8
Layer_1
 62
7
100
AcDbSpline
 70
8
 71
3
 72
8
 73
4
 74
0
 40
0
 40
0
 40
0
 40
0
 40
1
 40
1
 40
1
 40
1
 10
5.755050
 20
1.723728
 30
0.0
 10
5.755050
 20
1.639905
 30
0.0
 10
5.758042
 20
1.558525
 30
0.0
 10
5.731449
 20
1.475789
 30
0.0
  0
SPLINE
  5
116
100
AcDbEntity
  8
Layer_1
 62
7
100
AcDbSpline
 70
8
 71
3
 72
8
 73
4
 74
0
 40
0
 40
0
 40
0
 40
0
 40
1
 40
1
 40
1
 40
1
 10
5.731449
 20
1.475789
 30
0.0
 10
5.702424
 20
1.384915
 30
0.0
 10
5.657123
 20
1.315199
 30
0.0
 10
5.585237
 20
1.251994
 30
0.0
  0
SPLINE
  5
117
100
AcDbEntity
  8
Layer_1
 62
7
100
AcDbSpline
 70
8
 71
3
 72
8
 73
4
 74
0
 40
0
 40
0
 40
0
 40
0
 40
1
 40
1
 40
1
 40
1
 10
5.585237
 20
1.251994
 30
0.0
 10
5.514979
 20
1.190143
 30
0.0
 10
5.441194
 20
1.154065
 30
0.0
 10
5.348963
 20
1.136433
 30
0.0
  0
SPLINE
  5
118
100
AcDbEntity
  8
Layer_1
 62
7
100
AcDbSpline
 70
8
 71
3
 72
8
 73
4
 74
0
 40
0
 40
0
 40
0
 40
0
 40
1
 40
1
 40
1
 40
1
 10
5.348963
 20
1.136433
 30
0.0
 10
5.285487
 20
1.124504
 30
0.0
 10
5.162875
 20
1.127752
 30
0.0
 10
5.099398
 20
1.127752
 30
0.0
  0
SPLINE
  5
119
100
AcDbEntity
  8
Layer_1
 62
7
100
AcDbSpline
 70
8
 71
3
 72
8
 73
4
 74
0
 40
0
 40
0
 40
0
 40
0
 40
1
 40
1
 40
1
 40
1
 10
5.099398
 20
1.127752
 30
0.0
 10
5.015032
 20
1.127752
 30
0.0
 10
4.930398
 20
1.124504
 30
0.0
 10
4.846034
 20
1.127752
 30
0.0
  0
SPLINE
  5
11a
100
AcDbEntity
  8
Layer_1
 62
7
100
AcDbSpline
 70
8
 71
3
 72
8
 73
4
 74
0
 40
0
 40
0
 40
0
 40
0
 40
1
 40
1
 40
1
 40
1
 10
4.846034
 20
1.127752
 30
0.0
 10
4.755430
 20
1.131275
 30
0.0
 10
4.673778
 20
1.183362
 30
0.0
 10
4.632818
 20
1.264200
 30
0.0
  0
SPLINE
  5
11b
100
AcDbEntity
  8
Layer_1
 62
7
100
AcDbSpline
 70
8
 71
3
 72
8
 73
4
 74
0
 40
0
 40
0
 40
0
 40
0
 40
1
 40
1
 40
1
 40
1
 10
4.632818
 20
1.264200
 30
0.0
 10
4.589957
 20
1.347750
 30
0.0
 10
4.609217
 20
1.429673
 30
0.0
 10
4.605148
 20
1.513494
 30
0.0
  0
SPLINE
  5
11c
100
AcDbEntity
  8
Layer_1
 62
7
100
AcDbSpline
 70
8
 71
3
 72
8
 73
4
 74
0
 40
0
 40
0
 40
0
 40
0
 40
1
 40
1
 40
1
 40
1
 10
4.605148
 20
1.513494
 30
0.0
 10
4.600542
 20
1.604370
 30
0.0
 10
4.547369
 20
1.685206
 30
0.0
 10
4.465717
 20
1.725354
 30
0.0
  0
SPLINE
  5
11d
100
AcDbEntity
  8
Layer_1
 62
7
100
AcDbSpline
 70
8
 71
3
 72
8
 73
4
 74
0
 40
0
 40
0
 40
0
 40
0
 40
1
 40
1
 40
1
 40
1
 10
4.465717
 20
1.725354
 30
0.0
 10
4.387591
 20
1.763874
 30
0.0
 10
4.295361
 20
1.758720
 30
0.0
 10
4.221847
 20
1.712342
 30
0.0
  0
SPLINE
  5
11e
100
AcDbEntity
  8
Layer_1
 62
7
100
AcDbSpline
 70
8
 71
3
 72
8
 73
4
 74
0
 40
0
 40
0
 40
0
 40
0
 40
1
 40
1
 40
1
 40
1
 10
4.221847
 20
1.712342
 30
0.0
 10
4.141280
 20
1.661344
 30
0.0
 10
4.105473
 20
1.581319
 30
0.0
 10
4.105473
 20
1.489088
 30
0.0
  0
SPLINE
  5
11f
100
AcDbEntity
  8
Layer_1
 62
7
100
AcDbSpline
 70
8
 71
3
 72
8
 73
4
 74
0
 40
0
 40
0
 40
0
 40
0
 40
1
 40
1
 40
1
 40
1
 10
4.105473
 20
1.489088
 30
0.0
 10
4.105473
 20
1.319275
 30
0.0
 10
4.105473
 20
1.149462
 30
0.0
 10
4.105473
 20
0.979378
 30
0.0
  0
SPLINE
  5
120
100
AcDbEntity
  8
Layer_1
 62
7
100
AcDbSpline
 70
8
 71
3
 72
8
 73
4
 74
0
 40
0
 40
0
 40
0
 40
0
 40
1
 40
1
 40
1
 40
1
 10
4.105473
 20
0.979378
 30
0.0
 10
4.105473
 20
0.936246
 30
0.0
 10
4.103308
 20
0.895555
 30
0.0
 10
4.086221
 20
0.854323
 30
0.0
  0
SPLINE
  5
121
100
AcDbEntity
  8
Layer_1
 62
7
100
AcDbSpline
 70
8
 71
3
 72
8
 73
4
 74
0
 40
0
 40
0
 40
0
 40
0
 40
1
 40
1
 40
1
 40
1
 10
4.086221
 20
0.854323
 30
0.0
 10
4.068308
 20
0.811734
 30
0.0
 10
4.043361
 20
0.779452
 30
0.0
 10
4.006469
 20
0.751513
 30
0.0
  0
SPLINE
  5
122
100
AcDbEntity
  8
Layer_1
 62
7
100
AcDbSpline
 70
8
 71
3
 72
8
 73
4
 74
0
 40
0
 40
0
 40
0
 40
0
 40
1
 40
1
 40
1
 40
1
 10
4.006469
 20
0.751513
 30
0.0
 10
3.971747
 20
0.725200
 30
0.0
 10
3.932414
 20
0.711094
 30
0.0
 10
3.893892
 20
0.693732
 30
0.0
  0
SPLINE
  5
123
100
AcDbEntity
  8
Layer_1
 62
7
100
AcDbSpline
 70
8
 71
3
 72
8
 73
4
 74
0
 40
0
 40
0
 40
0
 40
0
 40
1
 40
1
 40
1
 40
1
 10
3.893892
 20
0.693732
 30
0.0
 10
3.855373
 20
0.676094
 30
0.0
 10
3.816853
 20
0.658468
 30
0.0
 10
3.778062
 20
0.640836
 30
0.0
  0
SPLINE
  5
124
100
AcDbEntity
  8
Layer_1
 62
7
100
AcDbSpline
 70
8
 71
3
 72
8
 73
4
 74
0
 40
0
 40
0
 40
0
 40
0
 40
1
 40
1
 40
1
 40
1
 10
3.778062
 20
0.640836
 30
0.0
 10
3.466377
 20
0.498691
 30
0.0
 10
3.154690
 20
0.356547
 30
0.0
 10
2.842731
 20
0.214403
 30
0.0
  0
SPLINE
  5
125
100
AcDbEntity
  8
Layer_1
 62
7
100
AcDbSpline
 70
8
 71
3
 72
8
 73
4
 74
0
 40
0
 40
0
 40
0
 40
0
 40
1
 40
1
 40
1
 40
1
 10
2.842731
 20
0.214403
 30
0.0
 10
2.764879
 20
0.179139
 30
0.0
 10
2.687024
 20
0.143602
 30
0.0
 10
2.609170
 20
0.108067
 30
0.0
  0
SPLINE
  5
126
100
AcDbEntity
  8
Layer_1
 62
7
100
AcDbSpline
 70
8
 71
3
 72
8
 73
4
 74
0
 40
0
 40
0
 40
0
 40
0
 40
1
 40
1
 40
1
 40
1
 10
2.609170
 20
0.108067
 30
0.0
 10
2.531318
 20
0.072531
 30
0.0
 10
2.456176
 20
0.035368
 30
0.0
 10
2.370184
 20
0.019362
 30
0.0
  0
SPLINE
  5
127
100
AcDbEntity
  8
Layer_1
 62
7
100
AcDbSpline
 70
8
 71
3
 72
8
 73
4
 74
0
 40
0
 40
0
 40
0
 40
0
 40
1
 40
1
 40
1
 40
1
 10
2.370184
 20
0.019362
 30
0.0
 10
2.196030
 20
-0.013189
 30
0.0
 10
2.016723
 20
0.029401
 30
0.0
 10
1.875936
 20
0.136821
 30
0.0
  0
SPLINE
  5
128
100
AcDbEntity
  8
Layer_1
 62
7
100
AcDbSpline
 70
8
 71
3
 72
8
 73
4
 74
0
 40
0
 40
0
 40
0
 40
0
 40
1
 40
1
 40
1
 40
1
 10
3.457144
 20
1.021886
 30
0.0
 10
3.457144
 20
1.090787
 30
0.0
 10
3.401264
 20
1.146667
 30
0.0
 10
3.332091
 20
1.146667
 30
0.0
  0
SPLINE
  5
129
100
AcDbEntity
  8
Layer_1
 62
7
100
AcDbSpline
 70
8
 71
3
 72
8
 73
4
 74
0
 40
0
 40
0
 40
0
 40
0
 40
1
 40
1
 40
1
 40
1
 10
3.332091
 20
1.146667
 30
0.0
 10
3.262918
 20
1.146667
 30
0.0
 10
3.207036
 20
1.090787
 30
0.0
 10
3.207036
 20
1.021886
 30
0.0
  0
SPLINE
  5
12a
100
AcDbEntity
  8
Layer_1
 62
7
100
AcDbSpline
 70
8
 71
3
 72
8
 73
4
 74
0
 40
0
 40
0
 40
0
 40
0
 40
1
 40
1
 40
1
 40
1
 10
3.207036
 20
1.021886
 30
0.0
 10
3.207036
 20
0.952710
 30
0.0
 10
3.262918
 20
0.896830
 30
0.0
 10
3.332091
 20
0.896830
 30
0.0
  0
SPLINE
  5
12b
100
AcDbEntity
  8
Layer_1
 62
7
100
AcDbSpline
 70
8
 71
3
 72
8
 73
4
 74
0
 40
0
 40
0
 40
0
 40
0
 40
1
 40
1
 40
1
 40
1
 10
3.332091
 20
0.896830
 30
0.0
 10
3.401264
 20
0.896830
 30
0.0
 10
3.457144
 20
0.952710
 30
0.0
 10
3.457144
 20
1.021886
 30
0.0
  0
LWPOLYLINE
  5
12c
100
AcDbEntity
  8
Layer_1
 62
7
100
AcDbPolyline
 90
1
 70
1
 10
1.875936
 20
0.136821
 30
0.0
  0
SPLINE
  5
12d
100
AcDbEntity
  8
Layer_1
 62
7
100
AcDbSpline
 70
8
 71
3
 72
8
 73
4
 74
0
 40
0
 40
0
 40
0
 40
0
 40
1
 40
1
 40
1
 40
1
 10
0.653054
 20
1.812358
 30
0.0
 10
0.619959
 20
1.892110
 30
0.0
 10
0.528542
 20
1.930088
 30
0.0
 10
0.448790
 20
1.896994
 30
0.0
  0
SPLINE
  5
12e
100
AcDbEntity
  8
Layer_1
 62
7
100
AcDbSpline
 70
8
 71
3
 72
8
 73
4
 74
0
 40
0
 40
0
 40
0
 40
0
 40
1
 40
1
 40
1
 40
1
 10
0.448790
 20
1.896994
 30
0.0
 10
0.369037
 20
1.863899
 30
0.0
 10
0.331331
 20
1.772482
 30
0.0
 10
0.364155
 20
1.692728
 30
0.0
  0
SPLINE
  5
12f
100
AcDbEntity
  8
Layer_1
 62
7
100
AcDbSpline
 70
8
 71
3
 72
8
 73
4
 74
0
 40
0
 40
0
 40
0
 40
0
 40
1
 40
1
 40
1
 40
1
 10
0.364155
 20
1.692728
 30
0.0
 10
0.397249
 20
1.612976
 30
0.0
 10
0.488666
 20
1.575269
 30
0.0
 10
0.568418
 20
1.608092
 30
0.0
  0
SPLINE
  5
130
100
AcDbEntity
  8
Layer_1
 62
7
100
AcDbSpline
 70
8
 71
3
 72
8
 73
4
 74
0
 40
0
 40
0
 40
0
 40
0
 40
1
 40
1
 40
1
 40
1
 10
0.568418
 20
1.608092
 30
0.0
 10
0.648171
 20
1.641189
 30
0.0
 10
0.685877
 20
1.732604
 30
0.0
 10
0.653054
 20
1.812358
 30
0.0
  0
LWPOLYLINE
  5
131
100
AcDbEntity
  8
Layer_1
 62
7
100
AcDbPolyline
 90
1
 70
1
 10
3.457144
 20
1.021886
 30
0.0
  0
SPLINE
  5
132
100
AcDbEntity
  8
Layer_1
 62
7
100
AcDbSpline
 70
8
 71
3
 72
8
 73
4
 74
0
 40
0
 40
0
 40
0
 40
0
 40
1
 40
1
 40
1
 40
1
 10
2.374788
 20
0.733799
 30
0.0
 10
2.319449
 20
0.799988
 30
0.0
 10
2.220979
 20
0.808669
 30
0.0
 10
2.154790
 20
0.753051
 30
0.0
  0
SPLINE
  5
133
100
AcDbEntity
  8
Layer_1
 62
7
100
AcDbSpline
 70
8
 71
3
 72
8
 73
4
 74
0
 40
0
 40
0
 40
0
 40
0
 40
1
 40
1
 40
1
 40
1
 10
2.154790
 20
0.753051
 30
0.0
 10
2.088601
 20
0.697712
 30
0.0
 10
2.079920
 20
0.599242
 30
0.0
 10
2.135538
 20
0.533053
 30
0.0
  0
SPLINE
  5
134
100
AcDbEntity
  8
Layer_1
 62
7
100
AcDbSpline
 70
8
 71
3
 72
8
 73
4
 74
0
 40
0
 40
0
 40
0
 40
0
 40
1
 40
1
 40
1
 40
1
 10
2.135538
 20
0.533053
 30
0.0
 10
2.191148
 20
0.466864
 30
0.0
 10
2.289619
 20
0.458454
 30
0.0
 10
2.355808
 20
0.513801
 30
0.0
  0
SPLINE
  5
135
100
AcDbEntity
  8
Layer_1
 62
7
100
AcDbSpline
 70
8
 71
3
 72
8
 73
4
 74
0
 40
0
 40
0
 40
0
 40
0
 40
1
 40
1
 40
1
 40
1
 10
2.355808
 20
0.513801
 30
0.0
 10
2.421725
 20
0.569139
 30
0.0
 10
2.430406
 20
0.667880
 30
0.0
 10
2.374804
 20
0.733799
 30
0.0
  0
LWPOLYLINE
  5
136
100
AcDbEntity
  8
Layer_1
 62
7
100
AcDbPolyline
 90
1
 70
1
 10
0.653054
 20
1.812358
 30
0.0
  0
LWPOLYLINE
  5
137
100
AcDbEntity
  8
Layer_1
 62
7
100
AcDbPolyline
 90
1
 70
1
 10
2.374804
 20
0.733799
 30
0.0
  0
ENDSEC
  0
SECTION
  2
OBJECTS
  0
DICTIONARY
  5
C
330
0
100
AcDbDictionary
  3
ACAD_GROUP
350
D
  3
ACAD_MLINESTYLE
350
17
  0
DICTIONARY
  5
D
330
C
100
AcDbDictionary
  0
DICTIONARY
  5
1A
330
C
100
AcDbDictionary
  0
DICTIONARY
  5
17
330
C
100
AcDbDictionary
  3
STANDARD
350
18
  0
DICTIONARY
  5
19
330
C
100
AcDbDictionary
  0
ENDSEC
  0
EOF
